<svg xmlns="http://www.w3.org/2000/svg" xmlns:xlink="http://www.w3.org/1999/xlink" width="1920" zoomAndPan="magnify" viewBox="0 0 1440 809.999993" height="1080" preserveAspectRatio="xMidYMid meet" version="1.0"><defs><clipPath id="00c642f3de"><path d="M 438.925781 243 L 1001.425781 243 L 1001.425781 567 L 438.925781 567 Z M 438.925781 243 " clip-rule="nonzero"/></clipPath></defs><path fill="#f8c954" d="M 998.90625 283.667969 L 998.90625 526.371094 C 998.90625 547.257812 981.960938 564.191406 961.0625 564.191406 L 479.292969 564.191406 C 458.394531 564.191406 441.449219 547.257812 441.449219 526.371094 L 441.449219 283.667969 C 441.449219 262.78125 458.390625 245.851562 479.292969 245.851562 L 961.0625 245.851562 C 981.960938 245.851562 998.90625 262.78125 998.90625 283.667969 Z M 998.90625 283.667969 " fill-opacity="1" fill-rule="nonzero"/><path fill="#2c8fa6" d="M 490.476562 289.980469 L 617.320312 289.980469 L 617.320312 416.742188 L 490.476562 416.742188 Z M 490.476562 289.980469 " fill-opacity="1" fill-rule="nonzero"/><path fill="#f78012" d="M 603.402344 416.742188 L 504.390625 416.742188 C 504.390625 395.648438 517.609375 377.648438 536.210938 370.53125 C 528.207031 364.945312 522.960938 355.683594 522.960938 345.1875 C 522.960938 328.113281 536.808594 314.273438 553.894531 314.273438 C 570.980469 314.273438 584.832031 328.113281 584.832031 345.1875 C 584.832031 355.683594 579.582031 364.945312 571.578125 370.53125 C 590.1875 377.648438 603.402344 395.648438 603.402344 416.742188 Z M 603.402344 416.742188 " fill-opacity="1" fill-rule="nonzero"/><g clip-path="url(#00c642f3de)"><path fill="#000000" d="M 561.089844 341.191406 C 563.015625 342.78125 563.976562 345.019531 563.976562 347.902344 C 563.976562 349.164062 563.789062 350.238281 563.410156 351.125 C 563.035156 352.011719 562.570312 352.742188 562.015625 353.3125 C 561.457031 353.882812 560.714844 354.515625 559.78125 355.203125 C 558.851562 355.925781 558.105469 356.574219 557.550781 357.144531 C 556.992188 357.714844 556.519531 358.441406 556.128906 359.328125 C 555.738281 360.214844 555.542969 361.304688 555.542969 362.597656 L 555.542969 363.855469 L 551.9375 363.855469 L 551.9375 362.597656 C 551.9375 360.855469 552.167969 359.40625 552.636719 358.246094 C 553.101562 357.089844 553.65625 356.183594 554.304688 355.519531 C 554.949219 354.859375 555.800781 354.140625 556.851562 353.359375 C 557.691406 352.757812 558.347656 352.230469 558.8125 351.78125 C 559.277344 351.328125 559.667969 350.773438 559.984375 350.113281 C 560.300781 349.453125 560.457031 348.65625 560.457031 347.726562 C 560.457031 345.921875 559.878906 344.539062 558.722656 343.578125 C 557.566406 342.617188 555.976562 342.136719 553.964844 342.136719 C 551.828125 342.136719 550.160156 342.707031 548.960938 343.847656 C 547.757812 344.992188 547.082031 346.566406 546.929688 348.582031 L 543.414062 348.582031 C 543.59375 345.546875 544.625 343.160156 546.503906 341.414062 C 548.382812 339.671875 550.792969 338.800781 553.738281 338.800781 C 556.714844 338.800781 559.167969 339.597656 561.089844 341.191406 Z M 553.695312 368.722656 C 552.972656 368.722656 552.347656 368.988281 551.824219 369.511719 C 551.296875 370.039062 551.035156 370.648438 551.035156 371.339844 C 551.035156 372.089844 551.296875 372.726562 551.824219 373.253906 C 552.347656 373.777344 552.972656 374.042969 553.695312 374.042969 C 554.417969 374.042969 555.039062 373.777344 555.566406 373.253906 C 556.09375 372.730469 556.355469 372.089844 556.355469 371.339844 C 556.355469 370.617188 556.09375 370 555.566406 369.488281 C 555.039062 368.980469 554.417969 368.722656 553.695312 368.722656 Z M 1001.425781 283.667969 L 1001.425781 526.371094 C 1001.425781 548.613281 983.316406 566.710938 961.0625 566.710938 L 479.292969 566.710938 C 457.035156 566.710938 438.925781 548.613281 438.925781 526.371094 L 438.925781 283.667969 C 438.925781 261.425781 457.035156 243.328125 479.292969 243.328125 L 961.0625 243.328125 C 983.316406 243.328125 1001.425781 261.425781 1001.425781 283.667969 Z M 996.382812 283.667969 C 996.382812 264.207031 980.539062 248.371094 961.0625 248.371094 L 479.292969 248.371094 C 459.816406 248.371094 443.972656 264.207031 443.972656 283.667969 L 443.972656 526.371094 C 443.972656 545.835938 459.816406 561.667969 479.292969 561.667969 L 961.0625 561.667969 C 980.539062 561.667969 996.382812 545.835938 996.382812 526.371094 Z M 619.84375 289.980469 L 619.84375 416.742188 C 619.84375 418.136719 618.714844 419.261719 617.320312 419.261719 L 490.476562 419.261719 C 489.082031 419.261719 487.953125 418.136719 487.953125 416.742188 L 487.953125 289.980469 C 487.953125 288.589844 489.082031 287.457031 490.476562 287.457031 L 617.320312 287.457031 C 618.710938 287.460938 619.84375 288.589844 619.84375 289.980469 Z M 600.808594 414.222656 C 599.808594 395.902344 587.953125 379.492188 570.679688 372.886719 C 569.808594 372.554688 569.191406 371.765625 569.078125 370.839844 C 568.960938 369.914062 569.371094 369 570.136719 368.464844 C 577.757812 363.144531 582.308594 354.441406 582.308594 345.1875 C 582.308594 329.53125 569.566406 316.792969 553.898438 316.792969 C 538.230469 316.792969 525.484375 329.53125 525.484375 345.1875 C 525.484375 354.441406 530.035156 363.144531 537.65625 368.464844 C 538.421875 369 538.828125 369.914062 538.71875 370.839844 C 538.601562 371.765625 537.988281 372.554688 537.113281 372.886719 C 519.839844 379.492188 507.988281 395.902344 506.984375 414.222656 Z M 614.796875 292.5 L 493 292.5 L 493 414.222656 L 501.960938 414.222656 C 502.898438 395.253906 514.316406 378.097656 531.367188 369.878906 C 524.457031 363.582031 520.4375 354.628906 520.4375 345.1875 C 520.4375 326.75 535.449219 311.75 553.898438 311.75 C 572.34375 311.75 587.355469 326.75 587.355469 345.1875 C 587.355469 354.628906 583.335938 363.582031 576.425781 369.878906 C 593.476562 378.097656 604.894531 395.253906 605.832031 414.222656 L 614.796875 414.222656 Z M 673.820312 333.519531 L 664.351562 333.519531 L 664.351562 300.398438 L 673.863281 300.398438 C 679.425781 300.398438 683.679688 301.832031 686.632812 304.695312 C 689.589844 307.558594 691.066406 311.65625 691.066406 316.980469 C 691.066406 322.277344 689.582031 326.359375 686.613281 329.222656 C 683.644531 332.085938 679.378906 333.519531 673.820312 333.519531 Z M 673.777344 328.570312 C 677.453125 328.570312 680.335938 327.695312 682.421875 325.945312 C 684.507812 324.195312 685.546875 321.207031 685.546875 316.980469 C 685.546875 312.984375 684.511719 310.046875 682.441406 308.167969 C 680.371094 306.285156 677.484375 305.34375 673.777344 305.34375 L 669.867188 305.34375 L 669.867188 328.570312 Z M 706.660156 333.519531 L 700.925781 333.519531 L 712.785156 300.398438 L 718.867188 300.398438 L 730.726562 333.519531 L 724.992188 333.519531 L 722.558594 326.269531 L 709.136719 326.269531 Z M 710.742188 321.453125 L 720.90625 321.453125 L 716.996094 309.816406 C 716.445312 308.109375 716.171875 306.78125 716.171875 305.824219 L 715.476562 305.824219 C 715.476562 306.867188 715.214844 308.199219 714.695312 309.816406 Z M 746.882812 333.519531 L 752.398438 333.519531 L 752.398438 305.347656 L 762.914062 305.347656 L 762.914062 300.398438 L 736.460938 300.398438 L 736.460938 305.347656 L 746.882812 305.347656 Z M 774.25 333.519531 L 768.515625 333.519531 L 780.375 300.398438 L 786.457031 300.398438 L 798.3125 333.519531 L 792.582031 333.519531 L 790.148438 326.269531 L 776.726562 326.269531 Z M 778.335938 321.453125 L 788.5 321.453125 L 784.589844 309.816406 C 784.035156 308.109375 783.761719 306.78125 783.761719 305.824219 L 783.066406 305.824219 C 783.066406 306.867188 782.808594 308.199219 782.285156 309.816406 Z M 669.867188 385.964844 L 664.351562 385.964844 L 664.351562 352.84375 L 678.03125 352.84375 C 681.277344 352.84375 683.832031 353.644531 685.699219 355.253906 C 687.566406 356.859375 688.5 359.28125 688.5 362.523438 C 688.5 365.621094 687.546875 368.050781 685.632812 369.816406 C 683.722656 371.582031 681.1875 372.464844 678.03125 372.464844 L 669.867188 372.464844 Z M 669.867188 367.644531 L 677.292969 367.644531 C 679.175781 367.644531 680.609375 367.21875 681.59375 366.367188 C 682.578125 365.511719 683.074219 364.289062 683.074219 362.699219 C 683.074219 361.105469 682.570312 359.890625 681.574219 359.050781 C 680.574219 358.214844 679.148438 357.792969 677.292969 357.792969 L 669.867188 357.792969 Z M 719.820312 370.773438 L 719.5625 371.378906 C 719.996094 371.699219 720.328125 372.046875 720.558594 372.421875 C 720.792969 372.796875 721.050781 373.316406 721.34375 373.984375 L 726.425781 385.964844 L 720.558594 385.964844 L 715.085938 372.421875 L 707.09375 372.421875 L 707.09375 385.964844 L 701.578125 385.964844 L 701.578125 352.84375 L 715.261719 352.84375 C 718.503906 352.84375 721.0625 353.644531 722.929688 355.253906 C 724.796875 356.859375 725.730469 359.28125 725.730469 362.523438 C 725.730469 365.128906 725.0625 367.253906 723.734375 368.90625 C 723.125 369.601562 722.484375 370.105469 721.820312 370.425781 C 721.152344 370.742188 720.488281 370.859375 719.820312 370.773438 Z M 720.300781 362.699219 C 720.300781 361.105469 719.800781 359.890625 718.800781 359.050781 C 717.800781 358.214844 716.375 357.792969 714.523438 357.792969 L 707.09375 357.792969 L 707.09375 367.644531 L 714.523438 367.644531 C 716.402344 367.644531 717.835938 367.21875 718.824219 366.367188 C 719.808594 365.511719 720.300781 364.289062 720.300781 362.699219 Z M 745.273438 385.964844 L 745.273438 352.84375 L 739.757812 352.84375 L 739.757812 385.964844 Z M 769.296875 385.964844 L 775.378906 385.964844 L 787.238281 352.84375 L 781.503906 352.84375 L 773.46875 376.542969 C 772.945312 378.078125 772.6875 379.410156 772.6875 380.539062 L 771.992188 380.539062 C 771.992188 379.496094 771.714844 378.164062 771.164062 376.542969 L 763.171875 352.84375 L 757.4375 352.84375 Z M 793.363281 385.964844 L 805.222656 352.84375 L 811.304688 352.84375 L 823.164062 385.964844 L 817.429688 385.964844 L 814.996094 378.714844 L 801.570312 378.714844 L 799.097656 385.964844 Z M 803.179688 373.898438 L 813.34375 373.898438 L 809.433594 362.261719 C 808.882812 360.554688 808.609375 359.226562 808.609375 358.269531 L 807.914062 358.269531 C 807.914062 359.3125 807.652344 360.644531 807.132812 362.261719 Z M 839.996094 384.207031 C 842.355469 385.757812 845.273438 386.53125 848.746094 386.53125 C 852.65625 386.53125 855.8125 385.539062 858.214844 383.558594 C 860.621094 381.574219 862.082031 378.875 862.601562 375.460938 L 856.566406 375.460938 C 856.21875 377.484375 855.347656 379.019531 853.957031 380.0625 C 852.570312 381.105469 850.800781 381.625 848.65625 381.625 C 845.472656 381.625 843.011719 380.503906 841.273438 378.261719 C 839.539062 376.015625 838.667969 373.058594 838.667969 369.382812 C 838.667969 365.707031 839.539062 362.761719 841.273438 360.546875 C 843.011719 358.335938 845.472656 357.226562 848.65625 357.226562 C 850.773438 357.226562 852.53125 357.722656 853.933594 358.703125 C 855.339844 359.6875 856.21875 361.0625 856.566406 362.828125 L 862.605469 362.828125 C 862.109375 359.644531 860.65625 357.097656 858.238281 355.1875 C 855.816406 353.277344 852.652344 352.320312 848.746094 352.320312 C 845.269531 352.320312 842.355469 353.089844 839.992188 354.625 C 837.632812 356.15625 835.875 358.21875 834.714844 360.808594 C 833.554688 363.398438 832.976562 366.257812 832.976562 369.382812 C 832.976562 372.507812 833.554688 375.375 834.714844 377.976562 C 835.875 380.582031 837.632812 382.660156 839.996094 384.207031 Z M 884.105469 385.964844 L 889.882812 385.964844 L 889.882812 373.113281 L 902.003906 352.84375 L 895.621094 352.84375 L 888.539062 364.953125 C 888.046875 365.792969 887.722656 366.4375 887.5625 366.886719 C 887.402344 367.335938 887.324219 367.890625 887.324219 368.558594 L 886.628906 368.558594 C 886.628906 367.890625 886.542969 367.34375 886.367188 366.910156 C 886.195312 366.472656 885.859375 365.839844 885.367188 365 L 878.332031 352.84375 L 871.902344 352.84375 L 884.105469 373.117188 Z M 947.023438 424.328125 L 661.261719 424.328125 C 659.871094 424.328125 658.738281 425.457031 658.738281 426.851562 C 658.738281 428.246094 659.871094 429.371094 661.261719 429.371094 L 947.023438 429.371094 C 948.417969 429.371094 949.546875 428.246094 949.546875 426.851562 C 949.546875 425.457031 948.417969 424.328125 947.023438 424.328125 Z M 661.261719 473.660156 L 858.148438 473.660156 C 859.542969 473.660156 860.671875 472.53125 860.671875 471.136719 C 860.671875 469.742188 859.542969 468.613281 858.148438 468.613281 L 661.261719 468.613281 C 659.871094 468.613281 658.738281 469.742188 658.738281 471.136719 C 658.738281 472.53125 659.871094 473.660156 661.261719 473.660156 Z M 929.746094 512.902344 L 661.261719 512.902344 C 659.871094 512.902344 658.738281 514.03125 658.738281 515.425781 C 658.738281 516.816406 659.871094 517.945312 661.261719 517.945312 L 929.746094 517.945312 C 931.140625 517.945312 932.269531 516.816406 932.269531 515.425781 C 932.269531 514.03125 931.140625 512.902344 929.746094 512.902344 Z M 929.746094 512.902344 " fill-opacity="1" fill-rule="nonzero"/></g></svg>