<svg xmlns="http://www.w3.org/2000/svg" xmlns:xlink="http://www.w3.org/1999/xlink" width="1920" zoomAndPan="magnify" viewBox="0 0 1440 809.999993" height="1080" preserveAspectRatio="xMidYMid meet" version="1.0"><defs><clipPath id="2a5da42b01"><path d="M 617 593 L 823 593 L 823 679.984375 L 617 679.984375 Z M 617 593 " clip-rule="nonzero"/></clipPath><clipPath id="bf8f5f85d6"><path d="M 600 662 L 840 662 L 840 679.984375 L 600 679.984375 Z M 600 662 " clip-rule="nonzero"/></clipPath><clipPath id="dc319f2f8a"><path d="M 951 131 L 994.984375 131 L 994.984375 175 L 951 175 Z M 951 131 " clip-rule="nonzero"/></clipPath></defs><g clip-path="url(#2a5da42b01)"><path fill="#00bebd" d="M 822.867188 679.558594 L 617.351562 679.558594 C 620.144531 676.757812 622.789062 673.828125 625.285156 670.761719 C 627.78125 667.699219 630.117188 664.515625 632.292969 661.214844 C 634.464844 657.914062 636.46875 654.511719 638.300781 651.007812 C 640.128906 647.503906 641.777344 643.917969 643.246094 640.25 C 644.714844 636.578125 645.996094 632.84375 647.085938 629.046875 C 648.175781 625.246094 649.070312 621.402344 649.773438 617.511719 C 650.476562 613.621094 650.980469 609.707031 651.285156 605.765625 C 651.589844 601.824219 651.699219 597.878906 651.605469 593.925781 L 788.613281 593.925781 C 788.519531 597.878906 788.625 601.824219 788.929688 605.765625 C 789.234375 609.707031 789.734375 613.625 790.4375 617.515625 C 791.136719 621.40625 792.03125 625.25 793.121094 629.050781 C 794.210938 632.847656 795.492188 636.585938 796.960938 640.253906 C 798.425781 643.925781 800.078125 647.511719 801.910156 651.015625 C 803.738281 654.519531 805.742188 657.921875 807.917969 661.21875 C 810.09375 664.519531 812.429688 667.703125 814.929688 670.765625 C 817.425781 673.832031 820.074219 676.761719 822.867188 679.558594 Z M 822.867188 679.558594 " fill-opacity="1" fill-rule="nonzero"/></g><g clip-path="url(#bf8f5f85d6)"><path fill="#50d9d7" d="M 831.429688 679.558594 L 608.789062 679.558594 C 608.226562 679.558594 607.671875 679.503906 607.121094 679.394531 C 606.566406 679.28125 606.03125 679.121094 605.511719 678.90625 C 604.992188 678.691406 604.5 678.425781 604.03125 678.113281 C 603.566406 677.800781 603.132812 677.445312 602.734375 677.050781 C 602.335938 676.652344 601.984375 676.21875 601.671875 675.75 C 601.359375 675.285156 601.09375 674.789062 600.878906 674.269531 C 600.664062 673.75 600.5 673.214844 600.390625 672.664062 C 600.28125 672.113281 600.226562 671.554688 600.226562 670.992188 C 600.226562 670.433594 600.28125 669.875 600.390625 669.324219 C 600.5 668.773438 600.664062 668.238281 600.878906 667.71875 C 601.09375 667.199219 601.359375 666.703125 601.671875 666.238281 C 601.984375 665.769531 602.335938 665.335938 602.734375 664.9375 C 603.132812 664.542969 603.566406 664.1875 604.03125 663.875 C 604.5 663.5625 604.992188 663.296875 605.511719 663.082031 C 606.03125 662.867188 606.566406 662.707031 607.121094 662.59375 C 607.671875 662.484375 608.226562 662.429688 608.789062 662.429688 L 831.429688 662.429688 C 831.992188 662.429688 832.550781 662.484375 833.101562 662.59375 C 833.652344 662.707031 834.1875 662.867188 834.707031 663.082031 C 835.226562 663.296875 835.71875 663.5625 836.1875 663.875 C 836.65625 664.1875 837.085938 664.542969 837.484375 664.9375 C 837.882812 665.335938 838.238281 665.769531 838.550781 666.238281 C 838.863281 666.703125 839.125 667.199219 839.339844 667.71875 C 839.558594 668.238281 839.71875 668.773438 839.828125 669.324219 C 839.9375 669.875 839.992188 670.433594 839.992188 670.992188 C 839.992188 671.554688 839.9375 672.113281 839.828125 672.664062 C 839.71875 673.214844 839.558594 673.75 839.339844 674.269531 C 839.125 674.789062 838.863281 675.285156 838.550781 675.75 C 838.238281 676.21875 837.882812 676.652344 837.484375 677.050781 C 837.085938 677.445312 836.65625 677.800781 836.1875 678.113281 C 835.71875 678.425781 835.226562 678.691406 834.707031 678.90625 C 834.1875 679.121094 833.652344 679.28125 833.101562 679.394531 C 832.550781 679.503906 831.992188 679.558594 831.429688 679.558594 Z M 831.429688 679.558594 " fill-opacity="1" fill-rule="nonzero"/></g><path fill="#50d9d7" d="M 497.46875 191.460938 L 942.75 191.460938 C 943.871094 191.460938 944.992188 191.515625 946.109375 191.625 C 947.222656 191.734375 948.332031 191.902344 949.433594 192.121094 C 950.53125 192.339844 951.621094 192.609375 952.691406 192.9375 C 953.765625 193.261719 954.820312 193.640625 955.859375 194.070312 C 956.894531 194.496094 957.90625 194.976562 958.898438 195.503906 C 959.886719 196.035156 960.847656 196.609375 961.78125 197.234375 C 962.710938 197.855469 963.613281 198.523438 964.480469 199.234375 C 965.347656 199.949219 966.175781 200.699219 966.96875 201.492188 C 967.765625 202.285156 968.515625 203.117188 969.226562 203.984375 C 969.941406 204.851562 970.605469 205.75 971.230469 206.683594 C 971.851562 207.617188 972.429688 208.578125 972.957031 209.566406 C 973.488281 210.554688 973.964844 211.570312 974.394531 212.605469 C 974.824219 213.640625 975.203125 214.699219 975.527344 215.769531 C 975.855469 216.84375 976.125 217.929688 976.34375 219.03125 C 976.5625 220.132812 976.726562 221.238281 976.835938 222.355469 C 976.949219 223.472656 977.003906 224.59375 977.003906 225.714844 L 977.003906 568.238281 C 977.003906 569.359375 976.949219 570.476562 976.835938 571.59375 C 976.726562 572.710938 976.5625 573.820312 976.34375 574.917969 C 976.125 576.019531 975.855469 577.105469 975.527344 578.179688 C 975.203125 579.253906 974.824219 580.308594 974.394531 581.34375 C 973.964844 582.382812 973.488281 583.394531 972.957031 584.382812 C 972.429688 585.371094 971.851562 586.332031 971.230469 587.265625 C 970.605469 588.199219 969.941406 589.097656 969.226562 589.964844 C 968.515625 590.832031 967.765625 591.664062 966.96875 592.457031 C 966.175781 593.25 965.347656 594.003906 964.480469 594.714844 C 963.613281 595.425781 962.710938 596.09375 961.78125 596.714844 C 960.847656 597.339844 959.886719 597.917969 958.898438 598.445312 C 957.90625 598.972656 956.894531 599.453125 955.859375 599.882812 C 954.820312 600.3125 953.765625 600.6875 952.691406 601.015625 C 951.621094 601.339844 950.53125 601.613281 949.433594 601.832031 C 948.332031 602.050781 947.222656 602.214844 946.109375 602.324219 C 944.992188 602.433594 943.871094 602.488281 942.75 602.488281 L 497.46875 602.488281 C 496.347656 602.488281 495.230469 602.433594 494.113281 602.324219 C 492.996094 602.214844 491.886719 602.050781 490.789062 601.832031 C 489.6875 601.613281 488.601562 601.339844 487.527344 601.015625 C 486.453125 600.6875 485.398438 600.3125 484.363281 599.882812 C 483.324219 599.453125 482.3125 598.972656 481.324219 598.445312 C 480.335938 597.917969 479.375 597.339844 478.441406 596.71875 C 477.507812 596.09375 476.609375 595.425781 475.742188 594.714844 C 474.875 594.003906 474.042969 593.25 473.25 592.457031 C 472.457031 591.664062 471.703125 590.832031 470.992188 589.964844 C 470.28125 589.097656 469.613281 588.199219 468.992188 587.265625 C 468.367188 586.332031 467.792969 585.371094 467.261719 584.382812 C 466.734375 583.394531 466.253906 582.382812 465.824219 581.34375 C 465.394531 580.308594 465.019531 579.253906 464.691406 578.179688 C 464.367188 577.105469 464.09375 576.019531 463.875 574.917969 C 463.65625 573.820312 463.492188 572.710938 463.382812 571.59375 C 463.273438 570.476562 463.21875 569.359375 463.21875 568.238281 L 463.21875 225.714844 C 463.21875 224.59375 463.273438 223.472656 463.382812 222.355469 C 463.492188 221.238281 463.65625 220.132812 463.875 219.03125 C 464.09375 217.929688 464.367188 216.84375 464.691406 215.769531 C 465.019531 214.699219 465.394531 213.640625 465.824219 212.605469 C 466.253906 211.570312 466.734375 210.554688 467.261719 209.566406 C 467.792969 208.578125 468.367188 207.617188 468.992188 206.683594 C 469.613281 205.75 470.28125 204.851562 470.992188 203.984375 C 471.703125 203.117188 472.457031 202.285156 473.25 201.492188 C 474.042969 200.699219 474.875 199.949219 475.742188 199.234375 C 476.609375 198.523438 477.507812 197.855469 478.441406 197.234375 C 479.375 196.609375 480.335938 196.035156 481.324219 195.503906 C 482.3125 194.976562 483.324219 194.496094 484.363281 194.070312 C 485.398438 193.640625 486.453125 193.261719 487.527344 192.9375 C 488.601562 192.609375 489.6875 192.339844 490.789062 192.121094 C 491.886719 191.902344 492.996094 191.734375 494.113281 191.625 C 495.230469 191.515625 496.347656 191.460938 497.46875 191.460938 Z M 497.46875 191.460938 " fill-opacity="1" fill-rule="nonzero"/><path fill="#93e6e5" d="M 497.46875 217.152344 L 942.75 217.152344 C 943.3125 217.152344 943.871094 217.207031 944.421875 217.316406 C 944.972656 217.425781 945.507812 217.585938 946.027344 217.800781 C 946.546875 218.019531 947.039062 218.28125 947.507812 218.59375 C 947.976562 218.90625 948.40625 219.261719 948.804688 219.660156 C 949.203125 220.054688 949.558594 220.488281 949.871094 220.957031 C 950.183594 221.421875 950.445312 221.917969 950.660156 222.4375 C 950.875 222.957031 951.039062 223.492188 951.148438 224.042969 C 951.257812 224.59375 951.3125 225.152344 951.3125 225.714844 L 951.3125 551.109375 C 951.3125 551.671875 951.257812 552.230469 951.148438 552.78125 C 951.039062 553.332031 950.875 553.867188 950.660156 554.386719 C 950.445312 554.90625 950.183594 555.402344 949.871094 555.867188 C 949.558594 556.335938 949.203125 556.769531 948.804688 557.164062 C 948.40625 557.5625 947.976562 557.917969 947.507812 558.230469 C 947.039062 558.542969 946.546875 558.808594 946.027344 559.023438 C 945.507812 559.238281 944.972656 559.398438 944.421875 559.507812 C 943.871094 559.617188 943.3125 559.675781 942.75 559.675781 L 497.46875 559.675781 C 496.90625 559.675781 496.351562 559.617188 495.800781 559.507812 C 495.25 559.398438 494.710938 559.238281 494.191406 559.023438 C 493.671875 558.808594 493.179688 558.542969 492.710938 558.230469 C 492.246094 557.917969 491.8125 557.5625 491.414062 557.164062 C 491.015625 556.769531 490.664062 556.335938 490.351562 555.867188 C 490.039062 555.402344 489.773438 554.90625 489.558594 554.386719 C 489.34375 553.867188 489.179688 553.332031 489.070312 552.78125 C 488.960938 552.230469 488.90625 551.671875 488.90625 551.109375 L 488.90625 225.714844 C 488.90625 225.152344 488.960938 224.59375 489.070312 224.042969 C 489.179688 223.492188 489.34375 222.957031 489.558594 222.4375 C 489.773438 221.917969 490.039062 221.421875 490.351562 220.957031 C 490.664062 220.488281 491.015625 220.054688 491.414062 219.660156 C 491.8125 219.261719 492.246094 218.90625 492.710938 218.59375 C 493.179688 218.28125 493.671875 218.019531 494.191406 217.800781 C 494.710938 217.585938 495.25 217.425781 495.800781 217.316406 C 496.351562 217.207031 496.90625 217.152344 497.46875 217.152344 Z M 497.46875 217.152344 " fill-opacity="1" fill-rule="nonzero"/><path fill="#ffffff" d="M 951.3125 259.964844 L 951.3125 551.109375 C 951.3125 551.671875 951.257812 552.230469 951.148438 552.78125 C 951.039062 553.332031 950.875 553.867188 950.660156 554.386719 C 950.445312 554.90625 950.183594 555.402344 949.871094 555.867188 C 949.558594 556.335938 949.203125 556.769531 948.804688 557.164062 C 948.40625 557.5625 947.976562 557.917969 947.507812 558.230469 C 947.039062 558.542969 946.546875 558.808594 946.027344 559.023438 C 945.507812 559.238281 944.972656 559.398438 944.421875 559.507812 C 943.871094 559.617188 943.3125 559.675781 942.75 559.675781 L 497.46875 559.675781 C 496.90625 559.675781 496.351562 559.617188 495.800781 559.507812 C 495.25 559.398438 494.710938 559.238281 494.191406 559.023438 C 493.671875 558.808594 493.179688 558.542969 492.710938 558.230469 C 492.246094 557.917969 491.8125 557.5625 491.414062 557.164062 C 491.015625 556.769531 490.664062 556.335938 490.351562 555.867188 C 490.039062 555.402344 489.773438 554.90625 489.558594 554.386719 C 489.34375 553.867188 489.179688 553.332031 489.070312 552.78125 C 488.960938 552.230469 488.90625 551.671875 488.90625 551.109375 L 488.90625 225.714844 C 488.90625 225.152344 488.960938 224.59375 489.070312 224.042969 C 489.179688 223.492188 489.34375 222.957031 489.558594 222.4375 C 489.773438 221.917969 490.039062 221.421875 490.351562 220.957031 C 490.664062 220.488281 491.015625 220.054688 491.414062 219.660156 C 491.8125 219.261719 492.246094 218.90625 492.710938 218.59375 C 493.179688 218.28125 493.671875 218.019531 494.191406 217.800781 C 494.710938 217.585938 495.25 217.425781 495.800781 217.316406 C 496.351562 217.207031 496.90625 217.152344 497.46875 217.152344 L 618.039062 217.152344 C 620.605469 217.152344 623.136719 217.4375 625.636719 218.007812 C 628.140625 218.582031 630.546875 219.421875 632.859375 220.53125 C 635.171875 221.644531 637.332031 223 639.339844 224.597656 C 641.347656 226.191406 643.152344 227.992188 644.753906 229.996094 L 658.457031 247.121094 C 660.058594 249.125 661.863281 250.925781 663.871094 252.519531 C 665.878906 254.117188 668.039062 255.472656 670.351562 256.582031 C 672.664062 257.695312 675.070312 258.535156 677.574219 259.105469 C 680.074219 259.679688 682.609375 259.964844 685.171875 259.964844 Z M 951.3125 259.964844 " fill-opacity="1" fill-rule="nonzero"/><path fill="#00bebd" d="M 677.894531 217.152344 L 522.558594 217.152344 L 538.316406 191.460938 L 662.136719 191.460938 Z M 677.894531 217.152344 " fill-opacity="1" fill-rule="nonzero"/><path fill="#50d9d7" d="M 698.101562 259.964844 L 685.171875 259.964844 C 682.609375 259.964844 680.074219 259.679688 677.574219 259.105469 C 675.070312 258.535156 672.664062 257.695312 670.351562 256.582031 C 668.039062 255.472656 665.878906 254.117188 663.871094 252.519531 C 661.863281 250.925781 660.058594 249.125 658.457031 247.121094 L 644.753906 229.996094 C 643.152344 227.992188 641.347656 226.191406 639.339844 224.597656 C 637.332031 223 635.171875 221.644531 632.859375 220.53125 C 630.546875 219.421875 628.140625 218.582031 625.636719 218.007812 C 623.136719 217.4375 620.605469 217.152344 618.039062 217.152344 L 677.980469 217.152344 C 692.707031 241.382812 698.101562 247.121094 698.101562 259.964844 Z M 698.101562 259.964844 " fill-opacity="1" fill-rule="nonzero"/><path fill="#f3f3f3" d="M 698.101562 259.964844 C 698.101562 261.085938 698.046875 262.207031 697.9375 263.324219 C 697.828125 264.441406 697.664062 265.546875 697.445312 266.648438 C 697.226562 267.75 696.953125 268.835938 696.628906 269.910156 C 696.300781 270.984375 695.925781 272.039062 695.496094 273.074219 C 695.066406 274.109375 694.585938 275.125 694.058594 276.113281 C 693.53125 277.101562 692.953125 278.0625 692.332031 278.996094 C 691.707031 279.929688 691.039062 280.828125 690.328125 281.695312 C 689.617188 282.5625 688.863281 283.394531 688.070312 284.1875 C 687.277344 284.980469 686.449219 285.730469 685.582031 286.445312 C 684.714844 287.15625 683.8125 287.824219 682.878906 288.445312 C 681.949219 289.070312 680.988281 289.644531 679.996094 290.175781 C 679.007812 290.703125 677.996094 291.183594 676.957031 291.609375 C 675.921875 292.039062 674.867188 292.417969 673.792969 292.742188 C 672.71875 293.070312 671.632812 293.339844 670.53125 293.558594 C 669.433594 293.777344 668.324219 293.945312 667.207031 294.054688 C 666.089844 294.164062 664.972656 294.21875 663.851562 294.21875 L 536.601562 294.21875 C 535.085938 294.222656 533.574219 294.125 532.070312 293.929688 C 530.566406 293.730469 529.082031 293.433594 527.617188 293.039062 C 526.152344 292.644531 524.71875 292.15625 523.320312 291.570312 C 521.921875 290.988281 520.566406 290.3125 519.253906 289.546875 C 517.945312 288.78125 516.691406 287.933594 515.492188 287.003906 C 514.296875 286.070312 513.164062 285.066406 512.101562 283.984375 C 511.039062 282.902344 510.050781 281.753906 509.136719 280.542969 C 508.226562 279.328125 507.398438 278.0625 506.65625 276.738281 C 505.914062 275.414062 505.261719 274.046875 504.699219 272.640625 C 504.140625 271.230469 503.675781 269.789062 503.304688 268.316406 C 502.933594 266.847656 502.664062 265.355469 502.492188 263.851562 C 502.320312 262.34375 502.246094 260.832031 502.277344 259.3125 C 502.304688 257.796875 502.433594 256.289062 502.664062 254.789062 C 502.894531 253.289062 503.21875 251.8125 503.644531 250.355469 C 504.070312 248.898438 504.59375 247.476562 505.207031 246.089844 C 505.820312 244.703125 506.523438 243.363281 507.316406 242.070312 L 522.558594 217.152344 L 618.039062 217.152344 C 620.605469 217.152344 623.136719 217.4375 625.636719 218.007812 C 628.140625 218.582031 630.546875 219.421875 632.859375 220.53125 C 635.171875 221.644531 637.332031 223 639.339844 224.597656 C 641.347656 226.191406 643.152344 227.992188 644.753906 229.996094 L 658.457031 247.121094 C 670.273438 261.9375 685.859375 259.964844 698.101562 259.964844 Z M 698.101562 259.964844 " fill-opacity="1" fill-rule="nonzero"/><path fill="#ffac00" d="M 585.585938 146.847656 L 521.960938 251.402344 C 521.773438 251.726562 521.597656 252.050781 521.433594 252.386719 C 521.269531 252.71875 521.117188 253.058594 520.972656 253.402344 C 520.832031 253.746094 520.699219 254.09375 520.582031 254.445312 C 520.460938 254.796875 520.351562 255.152344 520.253906 255.511719 C 520.160156 255.871094 520.074219 256.230469 520 256.597656 C 519.925781 256.960938 519.867188 257.328125 519.816406 257.695312 C 519.765625 258.0625 519.730469 258.433594 519.703125 258.804688 C 519.679688 259.175781 519.667969 259.546875 519.664062 259.917969 C 519.664062 260.289062 519.675781 260.664062 519.699219 261.035156 C 519.722656 261.40625 519.757812 261.773438 519.804688 262.144531 C 519.851562 262.511719 519.910156 262.878906 519.980469 263.242188 C 520.054688 263.609375 520.136719 263.972656 520.230469 264.332031 C 520.324219 264.691406 520.433594 265.046875 520.550781 265.398438 C 520.667969 265.75 520.796875 266.101562 520.9375 266.445312 C 521.078125 266.789062 521.230469 267.128906 521.390625 267.460938 C 521.554688 267.796875 521.730469 268.125 521.914062 268.449219 C 522.097656 268.769531 522.292969 269.085938 522.496094 269.398438 C 522.699219 269.707031 522.914062 270.011719 523.140625 270.308594 C 523.363281 270.605469 523.597656 270.894531 523.839844 271.175781 C 524.085938 271.457031 524.335938 271.730469 524.597656 271.992188 C 524.859375 272.257812 525.128906 272.515625 525.40625 272.761719 C 525.683594 273.007812 525.96875 273.246094 526.261719 273.476562 C 526.554688 273.703125 526.855469 273.921875 527.164062 274.132812 C 527.472656 274.339844 527.785156 274.539062 528.105469 274.726562 C 528.425781 274.917969 528.753906 275.09375 529.085938 275.261719 C 529.417969 275.429688 529.753906 275.585938 530.097656 275.730469 C 530.4375 275.875 530.785156 276.011719 531.136719 276.132812 C 531.488281 276.253906 531.839844 276.367188 532.199219 276.464844 C 532.558594 276.566406 532.917969 276.652344 533.285156 276.730469 C 533.648438 276.804688 534.011719 276.871094 534.382812 276.921875 C 534.75 276.976562 535.117188 277.015625 535.488281 277.042969 C 535.859375 277.070312 536.230469 277.089844 536.601562 277.09375 L 663.851562 277.09375 C 664.222656 277.089844 664.59375 277.070312 664.964844 277.042969 C 665.335938 277.015625 665.703125 276.976562 666.074219 276.921875 C 666.441406 276.871094 666.808594 276.804688 667.171875 276.730469 C 667.535156 276.652344 667.894531 276.566406 668.253906 276.464844 C 668.613281 276.367188 668.96875 276.253906 669.316406 276.132812 C 669.667969 276.007812 670.015625 275.875 670.359375 275.730469 C 670.699219 275.585938 671.035156 275.429688 671.371094 275.261719 C 671.703125 275.09375 672.027344 274.917969 672.347656 274.726562 C 672.667969 274.539062 672.980469 274.339844 673.289062 274.132812 C 673.597656 273.921875 673.898438 273.703125 674.191406 273.476562 C 674.484375 273.246094 674.769531 273.007812 675.046875 272.761719 C 675.324219 272.515625 675.59375 272.257812 675.855469 271.992188 C 676.117188 271.730469 676.367188 271.457031 676.613281 271.175781 C 676.855469 270.894531 677.089844 270.605469 677.3125 270.308594 C 677.539062 270.011719 677.753906 269.707031 677.957031 269.398438 C 678.164062 269.085938 678.355469 268.769531 678.542969 268.449219 C 678.726562 268.125 678.898438 267.796875 679.0625 267.460938 C 679.222656 267.128906 679.375 266.789062 679.515625 266.445312 C 679.65625 266.101562 679.785156 265.75 679.90625 265.398438 C 680.023438 265.046875 680.128906 264.691406 680.222656 264.332031 C 680.316406 263.972656 680.402344 263.609375 680.472656 263.242188 C 680.542969 262.878906 680.601562 262.511719 680.648438 262.144531 C 680.695312 261.773438 680.730469 261.40625 680.753906 261.035156 C 680.777344 260.664062 680.789062 260.289062 680.789062 259.917969 C 680.789062 259.546875 680.773438 259.175781 680.75 258.804688 C 680.722656 258.433594 680.6875 258.0625 680.636719 257.695312 C 680.589844 257.328125 680.527344 256.960938 680.453125 256.597656 C 680.378906 256.230469 680.296875 255.871094 680.199219 255.511719 C 680.101562 255.152344 679.992188 254.796875 679.875 254.445312 C 679.753906 254.09375 679.621094 253.746094 679.480469 253.402344 C 679.335938 253.058594 679.183594 252.71875 679.019531 252.386719 C 678.855469 252.050781 678.679688 251.726562 678.492188 251.402344 L 614.871094 146.847656 C 614.488281 146.222656 614.070312 145.621094 613.613281 145.046875 C 613.15625 144.476562 612.664062 143.933594 612.140625 143.425781 C 611.613281 142.914062 611.054688 142.441406 610.46875 142.003906 C 609.878906 141.566406 609.269531 141.164062 608.628906 140.804688 C 607.992188 140.445312 607.332031 140.128906 606.652344 139.855469 C 605.972656 139.578125 605.277344 139.347656 604.570312 139.164062 C 603.859375 138.976562 603.144531 138.835938 602.417969 138.746094 C 601.691406 138.652344 600.960938 138.605469 600.226562 138.605469 C 599.496094 138.605469 598.765625 138.652344 598.039062 138.746094 C 597.3125 138.835938 596.59375 138.976562 595.882812 139.164062 C 595.175781 139.347656 594.480469 139.578125 593.800781 139.855469 C 593.121094 140.128906 592.464844 140.445312 591.824219 140.804688 C 591.1875 141.164062 590.574219 141.566406 589.984375 142.003906 C 589.398438 142.441406 588.84375 142.914062 588.316406 143.425781 C 587.789062 143.933594 587.296875 144.476562 586.839844 145.046875 C 586.382812 145.621094 585.964844 146.222656 585.585938 146.847656 Z M 585.585938 146.847656 " fill-opacity="1" fill-rule="nonzero"/><path fill="#f3f3f3" d="M 600.226562 225.714844 C 599.664062 225.714844 599.109375 225.660156 598.554688 225.550781 C 598.003906 225.441406 597.46875 225.277344 596.949219 225.0625 C 596.429688 224.847656 595.9375 224.582031 595.46875 224.269531 C 595.003906 223.957031 594.570312 223.601562 594.171875 223.207031 C 593.773438 222.808594 593.417969 222.375 593.105469 221.90625 C 592.792969 221.441406 592.53125 220.945312 592.316406 220.425781 C 592.101562 219.90625 591.9375 219.371094 591.828125 218.820312 C 591.71875 218.269531 591.664062 217.710938 591.664062 217.152344 L 591.664062 182.898438 C 591.664062 182.335938 591.71875 181.777344 591.828125 181.226562 C 591.9375 180.675781 592.101562 180.140625 592.316406 179.621094 C 592.53125 179.101562 592.792969 178.609375 593.105469 178.140625 C 593.417969 177.671875 593.773438 177.242188 594.171875 176.84375 C 594.570312 176.445312 595.003906 176.089844 595.46875 175.777344 C 595.9375 175.464844 596.429688 175.203125 596.949219 174.988281 C 597.46875 174.773438 598.003906 174.609375 598.554688 174.5 C 599.109375 174.390625 599.664062 174.335938 600.226562 174.335938 C 600.789062 174.335938 601.347656 174.390625 601.898438 174.5 C 602.449219 174.609375 602.984375 174.773438 603.503906 174.988281 C 604.023438 175.203125 604.515625 175.464844 604.984375 175.777344 C 605.453125 176.089844 605.882812 176.445312 606.28125 176.84375 C 606.679688 177.242188 607.035156 177.671875 607.347656 178.140625 C 607.660156 178.609375 607.921875 179.101562 608.136719 179.621094 C 608.351562 180.140625 608.515625 180.675781 608.625 181.226562 C 608.734375 181.777344 608.789062 182.335938 608.789062 182.898438 L 608.789062 217.152344 C 608.789062 217.710938 608.734375 218.269531 608.625 218.820312 C 608.515625 219.371094 608.351562 219.90625 608.136719 220.425781 C 607.921875 220.945312 607.660156 221.441406 607.347656 221.90625 C 607.035156 222.375 606.679688 222.808594 606.28125 223.207031 C 605.882812 223.601562 605.453125 223.957031 604.984375 224.269531 C 604.515625 224.582031 604.023438 224.847656 603.503906 225.0625 C 602.984375 225.277344 602.449219 225.441406 601.898438 225.550781 C 601.347656 225.660156 600.789062 225.714844 600.226562 225.714844 Z M 600.226562 225.714844 " fill-opacity="1" fill-rule="nonzero"/><path fill="#ffac00" d="M 839.992188 328.472656 C 839.992188 329.3125 839.953125 330.152344 839.871094 330.988281 C 839.789062 331.824219 839.664062 332.65625 839.5 333.484375 C 839.335938 334.308594 839.132812 335.121094 838.886719 335.929688 C 838.644531 336.734375 838.359375 337.523438 838.039062 338.300781 C 837.714844 339.078125 837.355469 339.839844 836.960938 340.582031 C 836.5625 341.324219 836.132812 342.042969 835.664062 342.742188 C 835.195312 343.441406 834.695312 344.117188 834.164062 344.769531 C 833.628906 345.417969 833.0625 346.039062 832.46875 346.636719 C 831.875 347.230469 831.25 347.796875 830.601562 348.328125 C 829.949219 348.863281 829.277344 349.363281 828.578125 349.832031 C 827.875 350.296875 827.15625 350.730469 826.414062 351.125 C 825.671875 351.523438 824.914062 351.882812 824.136719 352.203125 C 823.359375 352.527344 822.566406 352.808594 821.761719 353.054688 C 820.957031 353.296875 820.140625 353.503906 819.316406 353.667969 C 818.492188 353.832031 817.660156 353.953125 816.820312 354.035156 C 815.984375 354.117188 815.144531 354.160156 814.304688 354.160156 C 813.460938 354.160156 812.625 354.117188 811.785156 354.035156 C 810.949219 353.953125 810.117188 353.832031 809.292969 353.667969 C 808.46875 353.503906 807.652344 353.296875 806.847656 353.054688 C 806.042969 352.808594 805.25 352.527344 804.472656 352.203125 C 803.695312 351.882812 802.9375 351.523438 802.195312 351.125 C 801.453125 350.730469 800.730469 350.296875 800.03125 349.832031 C 799.332031 349.363281 798.65625 348.863281 798.007812 348.328125 C 797.355469 347.796875 796.734375 347.230469 796.140625 346.636719 C 795.542969 346.039062 794.980469 345.417969 794.445312 344.769531 C 793.914062 344.117188 793.410156 343.441406 792.945312 342.742188 C 792.476562 342.042969 792.042969 341.324219 791.648438 340.582031 C 791.25 339.839844 790.890625 339.078125 790.570312 338.300781 C 790.25 337.523438 789.964844 336.734375 789.722656 335.929688 C 789.476562 335.121094 789.273438 334.308594 789.109375 333.480469 C 788.945312 332.65625 788.820312 331.824219 788.738281 330.988281 C 788.65625 330.152344 788.613281 329.3125 788.613281 328.472656 C 788.613281 327.628906 788.65625 326.789062 788.738281 325.953125 C 788.820312 325.117188 788.945312 324.285156 789.109375 323.460938 C 789.273438 322.632812 789.476562 321.820312 789.722656 321.011719 C 789.964844 320.207031 790.25 319.417969 790.570312 318.640625 C 790.890625 317.863281 791.25 317.101562 791.648438 316.359375 C 792.042969 315.617188 792.476562 314.898438 792.945312 314.199219 C 793.410156 313.5 793.914062 312.824219 794.445312 312.171875 C 794.980469 311.523438 795.542969 310.902344 796.140625 310.304688 C 796.734375 309.710938 797.355469 309.144531 798.007812 308.613281 C 798.65625 308.078125 799.332031 307.578125 800.03125 307.109375 C 800.730469 306.644531 801.453125 306.210938 802.195312 305.816406 C 802.9375 305.417969 803.695312 305.058594 804.472656 304.738281 C 805.25 304.414062 806.042969 304.132812 806.847656 303.886719 C 807.652344 303.644531 808.46875 303.4375 809.292969 303.273438 C 810.117188 303.109375 810.949219 302.988281 811.785156 302.90625 C 812.625 302.824219 813.460938 302.78125 814.304688 302.78125 C 815.144531 302.78125 815.984375 302.824219 816.820312 302.90625 C 817.660156 302.988281 818.492188 303.109375 819.316406 303.273438 C 820.140625 303.4375 820.957031 303.644531 821.761719 303.886719 C 822.566406 304.132812 823.359375 304.414062 824.136719 304.738281 C 824.914062 305.058594 825.671875 305.417969 826.414062 305.816406 C 827.15625 306.210938 827.875 306.644531 828.578125 307.109375 C 829.277344 307.578125 829.949219 308.078125 830.601562 308.613281 C 831.25 309.144531 831.875 309.710938 832.46875 310.304688 C 833.0625 310.902344 833.628906 311.523438 834.164062 312.171875 C 834.695312 312.824219 835.195312 313.5 835.664062 314.199219 C 836.132812 314.898438 836.5625 315.617188 836.960938 316.359375 C 837.355469 317.101562 837.714844 317.863281 838.039062 318.640625 C 838.359375 319.417969 838.644531 320.207031 838.886719 321.011719 C 839.132812 321.820312 839.335938 322.632812 839.5 323.460938 C 839.664062 324.285156 839.789062 325.117188 839.871094 325.953125 C 839.953125 326.789062 839.992188 327.628906 839.992188 328.472656 Z M 839.992188 328.472656 " fill-opacity="1" fill-rule="nonzero"/><path fill="#f3f3f3" d="M 608.789062 251.402344 C 608.789062 251.964844 608.734375 252.523438 608.625 253.074219 C 608.515625 253.625 608.351562 254.160156 608.136719 254.679688 C 607.921875 255.199219 607.660156 255.691406 607.347656 256.160156 C 607.035156 256.628906 606.679688 257.058594 606.28125 257.457031 C 605.882812 257.855469 605.453125 258.210938 604.984375 258.523438 C 604.515625 258.835938 604.023438 259.097656 603.503906 259.3125 C 602.984375 259.53125 602.449219 259.691406 601.898438 259.800781 C 601.347656 259.910156 600.789062 259.964844 600.226562 259.964844 C 599.664062 259.964844 599.109375 259.910156 598.554688 259.800781 C 598.003906 259.691406 597.46875 259.53125 596.949219 259.3125 C 596.429688 259.097656 595.9375 258.835938 595.46875 258.523438 C 595.003906 258.210938 594.570312 257.855469 594.171875 257.457031 C 593.773438 257.058594 593.417969 256.628906 593.105469 256.160156 C 592.792969 255.691406 592.53125 255.199219 592.316406 254.679688 C 592.101562 254.160156 591.9375 253.625 591.828125 253.074219 C 591.71875 252.523438 591.664062 251.964844 591.664062 251.402344 C 591.664062 250.839844 591.71875 250.285156 591.828125 249.730469 C 591.9375 249.179688 592.101562 248.644531 592.316406 248.125 C 592.53125 247.605469 592.792969 247.113281 593.105469 246.644531 C 593.417969 246.179688 593.773438 245.746094 594.171875 245.347656 C 594.570312 244.949219 595.003906 244.59375 595.46875 244.28125 C 595.9375 243.96875 596.429688 243.707031 596.949219 243.492188 C 597.46875 243.277344 598.003906 243.113281 598.554688 243.003906 C 599.109375 242.894531 599.664062 242.839844 600.226562 242.839844 C 600.789062 242.839844 601.347656 242.894531 601.898438 243.003906 C 602.449219 243.113281 602.984375 243.277344 603.503906 243.492188 C 604.023438 243.707031 604.515625 243.96875 604.984375 244.28125 C 605.453125 244.59375 605.882812 244.949219 606.28125 245.347656 C 606.679688 245.746094 607.035156 246.179688 607.347656 246.644531 C 607.660156 247.113281 607.921875 247.605469 608.136719 248.125 C 608.351562 248.644531 608.515625 249.179688 608.625 249.730469 C 608.734375 250.285156 608.789062 250.839844 608.789062 251.402344 Z M 608.789062 251.402344 " fill-opacity="1" fill-rule="nonzero"/><path fill="#ffac00" d="M 720.109375 431.226562 C 719.261719 431.234375 718.425781 431.113281 717.613281 430.871094 C 716.796875 430.628906 716.035156 430.269531 715.328125 429.800781 C 714.617188 429.332031 713.992188 428.765625 713.453125 428.109375 C 712.910156 427.453125 712.476562 426.734375 712.152344 425.949219 C 711.824219 425.164062 711.621094 424.347656 711.539062 423.5 C 711.457031 422.65625 711.496094 421.8125 711.664062 420.980469 C 711.832031 420.148438 712.117188 419.355469 712.519531 418.605469 C 712.921875 417.859375 713.425781 417.183594 714.03125 416.585938 L 808.222656 322.390625 C 808.625 321.992188 809.058594 321.636719 809.527344 321.324219 C 809.996094 321.011719 810.492188 320.746094 811.015625 320.53125 C 811.535156 320.316406 812.074219 320.15625 812.625 320.042969 C 813.179688 319.933594 813.738281 319.878906 814.300781 319.882812 C 814.867188 319.882812 815.425781 319.9375 815.976562 320.046875 C 816.53125 320.15625 817.066406 320.320312 817.589844 320.535156 C 818.109375 320.753906 818.605469 321.015625 819.074219 321.332031 C 819.542969 321.644531 819.976562 322 820.375 322.398438 C 820.773438 322.796875 821.128906 323.230469 821.445312 323.699219 C 821.757812 324.171875 822.023438 324.664062 822.238281 325.1875 C 822.453125 325.707031 822.617188 326.246094 822.726562 326.796875 C 822.839844 327.351562 822.894531 327.910156 822.894531 328.472656 C 822.894531 329.039062 822.839844 329.597656 822.730469 330.148438 C 822.621094 330.703125 822.457031 331.238281 822.242188 331.761719 C 822.027344 332.28125 821.761719 332.777344 821.449219 333.246094 C 821.136719 333.714844 820.78125 334.152344 820.382812 334.550781 L 726.191406 428.746094 C 725.382812 429.546875 724.453125 430.160156 723.398438 430.59375 C 722.34375 431.023438 721.25 431.234375 720.109375 431.226562 Z M 720.109375 431.226562 " fill-opacity="1" fill-rule="nonzero"/><path fill="#ffac00" d="M 720.109375 431.226562 L 617.351562 431.226562 C 616.789062 431.226562 616.234375 431.171875 615.683594 431.0625 C 615.132812 430.953125 614.597656 430.792969 614.078125 430.574219 C 613.558594 430.359375 613.0625 430.097656 612.597656 429.785156 C 612.128906 429.472656 611.695312 429.117188 611.296875 428.71875 C 610.902344 428.320312 610.546875 427.890625 610.234375 427.421875 C 609.921875 426.953125 609.65625 426.460938 609.441406 425.941406 C 609.226562 425.421875 609.0625 424.886719 608.953125 424.335938 C 608.84375 423.785156 608.789062 423.226562 608.789062 422.664062 C 608.789062 422.101562 608.84375 421.546875 608.953125 420.992188 C 609.0625 420.441406 609.226562 419.90625 609.441406 419.386719 C 609.65625 418.867188 609.921875 418.375 610.234375 417.90625 C 610.546875 417.441406 610.902344 417.007812 611.296875 416.609375 C 611.695312 416.210938 612.128906 415.855469 612.597656 415.542969 C 613.0625 415.230469 613.558594 414.96875 614.078125 414.753906 C 614.597656 414.539062 615.132812 414.375 615.683594 414.265625 C 616.234375 414.15625 616.789062 414.101562 617.351562 414.101562 L 720.109375 414.101562 C 720.671875 414.101562 721.230469 414.15625 721.78125 414.265625 C 722.332031 414.375 722.867188 414.539062 723.386719 414.753906 C 723.90625 414.96875 724.398438 415.230469 724.867188 415.542969 C 725.335938 415.855469 725.769531 416.210938 726.164062 416.609375 C 726.5625 417.007812 726.917969 417.441406 727.230469 417.90625 C 727.542969 418.375 727.804688 418.867188 728.023438 419.386719 C 728.238281 419.90625 728.398438 420.441406 728.507812 420.992188 C 728.617188 421.546875 728.671875 422.101562 728.671875 422.664062 C 728.671875 423.226562 728.617188 423.785156 728.507812 424.335938 C 728.398438 424.886719 728.238281 425.421875 728.023438 425.941406 C 727.804688 426.460938 727.542969 426.953125 727.230469 427.421875 C 726.917969 427.890625 726.5625 428.320312 726.164062 428.71875 C 725.769531 429.117188 725.335938 429.472656 724.867188 429.785156 C 724.398438 430.097656 723.90625 430.359375 723.386719 430.574219 C 722.867188 430.792969 722.332031 430.953125 721.78125 431.0625 C 721.230469 431.171875 720.671875 431.226562 720.109375 431.226562 Z M 720.109375 431.226562 " fill-opacity="1" fill-rule="nonzero"/><path fill="#ffac00" d="M 720.109375 431.226562 C 719.546875 431.226562 718.992188 431.171875 718.441406 431.0625 C 717.886719 430.953125 717.351562 430.792969 716.832031 430.574219 C 716.3125 430.359375 715.820312 430.097656 715.351562 429.785156 C 714.886719 429.472656 714.453125 429.117188 714.054688 428.71875 C 713.65625 428.320312 713.300781 427.890625 712.992188 427.421875 C 712.679688 426.953125 712.414062 426.460938 712.199219 425.941406 C 711.984375 425.421875 711.820312 424.886719 711.710938 424.335938 C 711.601562 423.785156 711.546875 423.226562 711.546875 422.664062 L 711.546875 319.90625 C 711.546875 319.34375 711.601562 318.789062 711.710938 318.238281 C 711.820312 317.6875 711.984375 317.148438 712.199219 316.628906 C 712.414062 316.109375 712.679688 315.617188 712.992188 315.148438 C 713.300781 314.683594 713.65625 314.25 714.054688 313.851562 C 714.453125 313.453125 714.886719 313.101562 715.351562 312.789062 C 715.820312 312.476562 716.3125 312.210938 716.832031 311.996094 C 717.351562 311.78125 717.886719 311.617188 718.441406 311.507812 C 718.992188 311.398438 719.546875 311.34375 720.109375 311.34375 C 720.671875 311.34375 721.230469 311.398438 721.78125 311.507812 C 722.332031 311.617188 722.867188 311.78125 723.386719 311.996094 C 723.90625 312.210938 724.398438 312.476562 724.867188 312.789062 C 725.335938 313.101562 725.769531 313.453125 726.164062 313.851562 C 726.5625 314.25 726.917969 314.683594 727.230469 315.148438 C 727.542969 315.617188 727.804688 316.109375 728.023438 316.628906 C 728.238281 317.148438 728.398438 317.6875 728.507812 318.238281 C 728.617188 318.789062 728.671875 319.34375 728.671875 319.90625 L 728.671875 422.664062 C 728.671875 423.226562 728.617188 423.785156 728.507812 424.335938 C 728.398438 424.886719 728.238281 425.421875 728.023438 425.941406 C 727.804688 426.460938 727.542969 426.953125 727.230469 427.421875 C 726.917969 427.890625 726.5625 428.320312 726.164062 428.71875 C 725.769531 429.117188 725.335938 429.472656 724.867188 429.785156 C 724.398438 430.097656 723.90625 430.359375 723.386719 430.574219 C 722.867188 430.792969 722.332031 430.953125 721.78125 431.0625 C 721.230469 431.171875 720.671875 431.226562 720.109375 431.226562 Z M 720.109375 431.226562 " fill-opacity="1" fill-rule="nonzero"/><path fill="#ffac00" d="M 720.109375 533.984375 C 719.546875 533.984375 718.992188 533.929688 718.441406 533.820312 C 717.886719 533.710938 717.351562 533.546875 716.832031 533.332031 C 716.3125 533.117188 715.820312 532.855469 715.351562 532.542969 C 714.886719 532.230469 714.453125 531.875 714.054688 531.476562 C 713.65625 531.078125 713.300781 530.648438 712.992188 530.179688 C 712.679688 529.710938 712.414062 529.21875 712.199219 528.699219 C 711.984375 528.179688 711.820312 527.644531 711.710938 527.09375 C 711.601562 526.539062 711.546875 525.984375 711.546875 525.421875 L 711.546875 422.664062 C 711.546875 422.101562 711.601562 421.546875 711.710938 420.992188 C 711.820312 420.441406 711.984375 419.90625 712.199219 419.386719 C 712.414062 418.867188 712.679688 418.375 712.992188 417.90625 C 713.300781 417.441406 713.65625 417.007812 714.054688 416.609375 C 714.453125 416.210938 714.886719 415.855469 715.351562 415.542969 C 715.820312 415.230469 716.3125 414.96875 716.832031 414.753906 C 717.351562 414.539062 717.886719 414.375 718.441406 414.265625 C 718.992188 414.15625 719.546875 414.101562 720.109375 414.101562 C 720.671875 414.101562 721.230469 414.15625 721.78125 414.265625 C 722.332031 414.375 722.867188 414.539062 723.386719 414.753906 C 723.90625 414.96875 724.398438 415.230469 724.867188 415.542969 C 725.335938 415.855469 725.769531 416.210938 726.164062 416.609375 C 726.5625 417.007812 726.917969 417.441406 727.230469 417.90625 C 727.542969 418.375 727.804688 418.867188 728.023438 419.386719 C 728.238281 419.90625 728.398438 420.441406 728.507812 420.992188 C 728.617188 421.546875 728.671875 422.101562 728.671875 422.664062 L 728.671875 525.421875 C 728.671875 525.984375 728.617188 526.539062 728.507812 527.09375 C 728.398438 527.644531 728.238281 528.179688 728.023438 528.699219 C 727.804688 529.21875 727.542969 529.710938 727.230469 530.179688 C 726.917969 530.648438 726.5625 531.078125 726.164062 531.476562 C 725.769531 531.875 725.335938 532.230469 724.867188 532.542969 C 724.398438 532.855469 723.90625 533.117188 723.386719 533.332031 C 722.867188 533.546875 722.332031 533.710938 721.78125 533.820312 C 721.230469 533.929688 720.671875 533.984375 720.109375 533.984375 Z M 720.109375 533.984375 " fill-opacity="1" fill-rule="nonzero"/><path fill="#ffac00" d="M 822.867188 431.226562 L 720.109375 431.226562 C 719.546875 431.226562 718.992188 431.171875 718.441406 431.0625 C 717.886719 430.953125 717.351562 430.792969 716.832031 430.574219 C 716.3125 430.359375 715.820312 430.097656 715.351562 429.785156 C 714.886719 429.472656 714.453125 429.117188 714.054688 428.71875 C 713.65625 428.320312 713.300781 427.890625 712.992188 427.421875 C 712.679688 426.953125 712.414062 426.460938 712.199219 425.941406 C 711.984375 425.421875 711.820312 424.886719 711.710938 424.335938 C 711.601562 423.785156 711.546875 423.226562 711.546875 422.664062 C 711.546875 422.101562 711.601562 421.546875 711.710938 420.992188 C 711.820312 420.441406 711.984375 419.90625 712.199219 419.386719 C 712.414062 418.867188 712.679688 418.375 712.992188 417.90625 C 713.300781 417.441406 713.65625 417.007812 714.054688 416.609375 C 714.453125 416.210938 714.886719 415.855469 715.351562 415.542969 C 715.820312 415.230469 716.3125 414.96875 716.832031 414.753906 C 717.351562 414.539062 717.886719 414.375 718.441406 414.265625 C 718.992188 414.15625 719.546875 414.101562 720.109375 414.101562 L 822.867188 414.101562 C 823.429688 414.101562 823.988281 414.15625 824.539062 414.265625 C 825.089844 414.375 825.625 414.539062 826.144531 414.753906 C 826.664062 414.96875 827.15625 415.230469 827.625 415.542969 C 828.09375 415.855469 828.523438 416.210938 828.921875 416.609375 C 829.320312 417.007812 829.675781 417.441406 829.988281 417.90625 C 830.300781 418.375 830.5625 418.867188 830.777344 419.386719 C 830.992188 419.90625 831.15625 420.441406 831.265625 420.992188 C 831.375 421.546875 831.429688 422.101562 831.429688 422.664062 C 831.429688 423.226562 831.375 423.785156 831.265625 424.335938 C 831.15625 424.886719 830.992188 425.421875 830.777344 425.941406 C 830.5625 426.460938 830.300781 426.953125 829.988281 427.421875 C 829.675781 427.890625 829.320312 428.320312 828.921875 428.71875 C 828.523438 429.117188 828.09375 429.472656 827.625 429.785156 C 827.15625 430.097656 826.664062 430.359375 826.144531 430.574219 C 825.625 430.792969 825.089844 430.953125 824.539062 431.0625 C 823.988281 431.171875 823.429688 431.226562 822.867188 431.226562 Z M 822.867188 431.226562 " fill-opacity="1" fill-rule="nonzero"/><path fill="#ffac00" d="M 651.605469 328.472656 C 651.605469 329.3125 651.5625 330.152344 651.480469 330.988281 C 651.398438 331.824219 651.277344 332.65625 651.113281 333.484375 C 650.949219 334.308594 650.742188 335.121094 650.5 335.929688 C 650.253906 336.734375 649.972656 337.523438 649.648438 338.300781 C 649.328125 339.078125 648.96875 339.839844 648.570312 340.582031 C 648.175781 341.324219 647.742188 342.042969 647.277344 342.742188 C 646.808594 343.441406 646.308594 344.117188 645.773438 344.769531 C 645.242188 345.417969 644.675781 346.039062 644.082031 346.636719 C 643.488281 347.230469 642.863281 347.796875 642.214844 348.328125 C 641.5625 348.863281 640.886719 349.363281 640.1875 349.832031 C 639.488281 350.296875 638.769531 350.730469 638.027344 351.125 C 637.285156 351.523438 636.523438 351.882812 635.746094 352.203125 C 634.96875 352.527344 634.179688 352.808594 633.375 353.054688 C 632.570312 353.296875 631.753906 353.503906 630.929688 353.667969 C 630.101562 353.832031 629.273438 353.953125 628.433594 354.035156 C 627.597656 354.117188 626.757812 354.160156 625.917969 354.160156 C 625.074219 354.160156 624.234375 354.117188 623.398438 354.035156 C 622.5625 353.953125 621.730469 353.832031 620.90625 353.667969 C 620.078125 353.503906 619.265625 353.296875 618.460938 353.054688 C 617.652344 352.808594 616.863281 352.527344 616.085938 352.203125 C 615.308594 351.882812 614.546875 351.523438 613.804688 351.125 C 613.066406 350.730469 612.34375 350.296875 611.644531 349.832031 C 610.945312 349.363281 610.269531 348.863281 609.621094 348.328125 C 608.96875 347.796875 608.347656 347.230469 607.75 346.636719 C 607.15625 346.039062 606.59375 345.417969 606.058594 344.769531 C 605.523438 344.117188 605.023438 343.441406 604.554688 342.742188 C 604.089844 342.042969 603.65625 341.324219 603.261719 340.582031 C 602.863281 339.839844 602.503906 339.078125 602.183594 338.300781 C 601.859375 337.523438 601.578125 336.734375 601.332031 335.929688 C 601.089844 335.121094 600.886719 334.308594 600.71875 333.480469 C 600.554688 332.65625 600.433594 331.824219 600.351562 330.988281 C 600.269531 330.152344 600.226562 329.3125 600.226562 328.472656 C 600.226562 327.628906 600.269531 326.789062 600.351562 325.953125 C 600.433594 325.117188 600.554688 324.285156 600.71875 323.460938 C 600.886719 322.632812 601.089844 321.820312 601.332031 321.011719 C 601.578125 320.207031 601.859375 319.417969 602.183594 318.640625 C 602.503906 317.863281 602.863281 317.101562 603.261719 316.359375 C 603.65625 315.617188 604.089844 314.898438 604.554688 314.199219 C 605.023438 313.5 605.523438 312.824219 606.058594 312.171875 C 606.59375 311.523438 607.15625 310.902344 607.75 310.304688 C 608.347656 309.710938 608.96875 309.144531 609.621094 308.613281 C 610.269531 308.078125 610.945312 307.578125 611.644531 307.109375 C 612.34375 306.644531 613.066406 306.210938 613.804688 305.816406 C 614.546875 305.417969 615.308594 305.058594 616.085938 304.738281 C 616.863281 304.414062 617.652344 304.132812 618.460938 303.886719 C 619.265625 303.644531 620.078125 303.4375 620.90625 303.273438 C 621.730469 303.109375 622.5625 302.988281 623.398438 302.90625 C 624.234375 302.824219 625.074219 302.78125 625.917969 302.78125 C 626.757812 302.78125 627.597656 302.824219 628.433594 302.90625 C 629.273438 302.988281 630.101562 303.109375 630.929688 303.273438 C 631.753906 303.4375 632.570312 303.644531 633.375 303.886719 C 634.179688 304.132812 634.96875 304.414062 635.746094 304.738281 C 636.523438 305.058594 637.285156 305.417969 638.027344 305.816406 C 638.769531 306.210938 639.488281 306.644531 640.1875 307.109375 C 640.886719 307.578125 641.5625 308.078125 642.214844 308.613281 C 642.863281 309.144531 643.488281 309.710938 644.082031 310.304688 C 644.675781 310.902344 645.242188 311.523438 645.773438 312.171875 C 646.308594 312.824219 646.808594 313.5 647.277344 314.199219 C 647.742188 314.898438 648.175781 315.617188 648.570312 316.359375 C 648.96875 317.101562 649.328125 317.863281 649.648438 318.640625 C 649.972656 319.417969 650.253906 320.207031 650.5 321.011719 C 650.742188 321.820312 650.949219 322.632812 651.113281 323.460938 C 651.277344 324.285156 651.398438 325.117188 651.480469 325.953125 C 651.5625 326.789062 651.605469 327.628906 651.605469 328.472656 Z M 651.605469 328.472656 " fill-opacity="1" fill-rule="nonzero"/><path fill="#ffac00" d="M 720.109375 431.226562 C 718.972656 431.234375 717.875 431.023438 716.824219 430.59375 C 715.769531 430.160156 714.839844 429.546875 714.03125 428.746094 L 619.835938 334.550781 C 619.4375 334.152344 619.082031 333.71875 618.769531 333.246094 C 618.457031 332.777344 618.191406 332.28125 617.976562 331.761719 C 617.761719 331.238281 617.597656 330.703125 617.488281 330.148438 C 617.378906 329.59375 617.324219 329.035156 617.324219 328.472656 C 617.324219 327.90625 617.378906 327.347656 617.488281 326.796875 C 617.597656 326.242188 617.761719 325.703125 617.976562 325.183594 C 618.195312 324.664062 618.457031 324.167969 618.773438 323.699219 C 619.085938 323.230469 619.441406 322.792969 619.839844 322.394531 C 620.242188 321.996094 620.675781 321.640625 621.144531 321.328125 C 621.613281 321.011719 622.109375 320.75 622.628906 320.53125 C 623.152344 320.316406 623.6875 320.152344 624.242188 320.042969 C 624.792969 319.933594 625.351562 319.878906 625.917969 319.878906 C 626.480469 319.878906 627.039062 319.933594 627.59375 320.042969 C 628.148438 320.152344 628.683594 320.3125 629.207031 320.53125 C 629.726562 320.746094 630.222656 321.011719 630.691406 321.324219 C 631.164062 321.636719 631.597656 321.992188 631.996094 322.390625 L 726.191406 416.585938 C 726.792969 417.183594 727.296875 417.859375 727.699219 418.605469 C 728.101562 419.355469 728.386719 420.148438 728.554688 420.980469 C 728.722656 421.8125 728.765625 422.65625 728.683594 423.5 C 728.597656 424.347656 728.394531 425.164062 728.070312 425.949219 C 727.742188 426.734375 727.308594 427.453125 726.769531 428.109375 C 726.226562 428.765625 725.601562 429.332031 724.894531 429.800781 C 724.183594 430.269531 723.421875 430.628906 722.609375 430.871094 C 721.792969 431.113281 720.960938 431.234375 720.109375 431.226562 Z M 720.109375 431.226562 " fill-opacity="1" fill-rule="nonzero"/><path fill="#ffac00" d="M 839.992188 516.859375 C 839.992188 517.699219 839.953125 518.539062 839.871094 519.375 C 839.789062 520.214844 839.664062 521.046875 839.5 521.871094 C 839.335938 522.695312 839.132812 523.511719 838.886719 524.316406 C 838.644531 525.121094 838.359375 525.910156 838.039062 526.6875 C 837.714844 527.464844 837.355469 528.226562 836.960938 528.96875 C 836.5625 529.710938 836.132812 530.429688 835.664062 531.128906 C 835.195312 531.832031 834.695312 532.503906 834.164062 533.15625 C 833.628906 533.804688 833.0625 534.429688 832.46875 535.023438 C 831.875 535.617188 831.25 536.183594 830.601562 536.714844 C 829.949219 537.25 829.277344 537.75 828.578125 538.21875 C 827.875 538.6875 827.15625 539.117188 826.414062 539.515625 C 825.671875 539.910156 824.914062 540.269531 824.136719 540.59375 C 823.359375 540.914062 822.566406 541.199219 821.761719 541.441406 C 820.957031 541.6875 820.140625 541.890625 819.316406 542.054688 C 818.492188 542.21875 817.660156 542.339844 816.820312 542.425781 C 815.984375 542.507812 815.144531 542.546875 814.304688 542.546875 C 813.460938 542.546875 812.625 542.507812 811.785156 542.425781 C 810.949219 542.339844 810.117188 542.21875 809.292969 542.054688 C 808.46875 541.890625 807.652344 541.6875 806.847656 541.441406 C 806.042969 541.199219 805.25 540.914062 804.472656 540.59375 C 803.695312 540.269531 802.9375 539.910156 802.195312 539.515625 C 801.453125 539.117188 800.730469 538.6875 800.03125 538.21875 C 799.332031 537.75 798.65625 537.25 798.007812 536.714844 C 797.355469 536.183594 796.734375 535.617188 796.140625 535.023438 C 795.542969 534.429688 794.980469 533.804688 794.445312 533.15625 C 793.914062 532.503906 793.410156 531.832031 792.945312 531.128906 C 792.476562 530.429688 792.042969 529.710938 791.648438 528.96875 C 791.25 528.226562 790.890625 527.464844 790.570312 526.6875 C 790.25 525.910156 789.964844 525.121094 789.722656 524.316406 C 789.476562 523.511719 789.273438 522.695312 789.109375 521.871094 C 788.945312 521.046875 788.820312 520.214844 788.738281 519.375 C 788.65625 518.539062 788.613281 517.699219 788.613281 516.859375 C 788.613281 516.015625 788.65625 515.179688 788.738281 514.339844 C 788.820312 513.503906 788.945312 512.671875 789.109375 511.847656 C 789.273438 511.023438 789.476562 510.207031 789.722656 509.402344 C 789.964844 508.597656 790.25 507.804688 790.570312 507.027344 C 790.890625 506.25 791.25 505.492188 791.648438 504.75 C 792.042969 504.007812 792.476562 503.285156 792.945312 502.585938 C 793.410156 501.886719 793.914062 501.210938 794.445312 500.5625 C 794.980469 499.910156 795.542969 499.289062 796.140625 498.695312 C 796.734375 498.097656 797.355469 497.535156 798.007812 497 C 798.65625 496.464844 799.332031 495.964844 800.03125 495.5 C 800.730469 495.03125 801.453125 494.597656 802.195312 494.203125 C 802.9375 493.804688 803.695312 493.445312 804.472656 493.125 C 805.25 492.804688 806.042969 492.519531 806.847656 492.277344 C 807.652344 492.03125 808.46875 491.828125 809.292969 491.664062 C 810.117188 491.5 810.949219 491.375 811.785156 491.292969 C 812.625 491.210938 813.460938 491.167969 814.304688 491.167969 C 815.144531 491.167969 815.984375 491.210938 816.820312 491.292969 C 817.660156 491.375 818.492188 491.5 819.316406 491.664062 C 820.140625 491.828125 820.957031 492.03125 821.761719 492.277344 C 822.566406 492.519531 823.359375 492.804688 824.136719 493.125 C 824.914062 493.445312 825.671875 493.804688 826.414062 494.203125 C 827.15625 494.597656 827.875 495.03125 828.578125 495.5 C 829.277344 495.964844 829.949219 496.464844 830.601562 497 C 831.25 497.535156 831.875 498.097656 832.46875 498.695312 C 833.0625 499.289062 833.628906 499.910156 834.164062 500.5625 C 834.695312 501.210938 835.195312 501.886719 835.664062 502.585938 C 836.132812 503.285156 836.5625 504.007812 836.960938 504.75 C 837.355469 505.492188 837.714844 506.25 838.039062 507.027344 C 838.359375 507.804688 838.644531 508.597656 838.886719 509.402344 C 839.132812 510.207031 839.335938 511.023438 839.5 511.847656 C 839.664062 512.671875 839.789062 513.503906 839.871094 514.339844 C 839.953125 515.179688 839.992188 516.015625 839.992188 516.859375 Z M 839.992188 516.859375 " fill-opacity="1" fill-rule="nonzero"/><path fill="#ffac00" d="M 814.304688 525.421875 C 813.167969 525.429688 812.070312 525.214844 811.015625 524.785156 C 809.964844 524.355469 809.03125 523.738281 808.222656 522.9375 L 714.03125 428.746094 C 713.632812 428.34375 713.273438 427.910156 712.960938 427.441406 C 712.648438 426.972656 712.382812 426.476562 712.167969 425.953125 C 711.949219 425.433594 711.789062 424.894531 711.675781 424.34375 C 711.566406 423.789062 711.511719 423.230469 711.511719 422.664062 C 711.511719 422.101562 711.566406 421.539062 711.675781 420.988281 C 711.789062 420.433594 711.949219 419.894531 712.167969 419.375 C 712.382812 418.851562 712.648438 418.355469 712.960938 417.886719 C 713.273438 417.417969 713.632812 416.984375 714.03125 416.585938 C 714.429688 416.1875 714.863281 415.828125 715.332031 415.515625 C 715.804688 415.203125 716.296875 414.9375 716.820312 414.722656 C 717.339844 414.503906 717.878906 414.34375 718.433594 414.230469 C 718.988281 414.121094 719.546875 414.066406 720.109375 414.066406 C 720.675781 414.066406 721.234375 414.121094 721.789062 414.230469 C 722.339844 414.34375 722.878906 414.503906 723.402344 414.722656 C 723.921875 414.9375 724.417969 415.203125 724.886719 415.515625 C 725.355469 415.828125 725.789062 416.1875 726.191406 416.585938 L 820.382812 510.777344 C 820.988281 511.378906 821.492188 512.050781 821.894531 512.800781 C 822.296875 513.550781 822.582031 514.339844 822.75 515.175781 C 822.917969 516.007812 822.960938 516.847656 822.875 517.695312 C 822.792969 518.539062 822.589844 519.355469 822.261719 520.140625 C 821.9375 520.929688 821.503906 521.648438 820.960938 522.304688 C 820.421875 522.960938 819.796875 523.523438 819.085938 523.996094 C 818.378906 524.464844 817.617188 524.820312 816.800781 525.0625 C 815.988281 525.308594 815.15625 525.425781 814.304688 525.421875 Z M 814.304688 525.421875 " fill-opacity="1" fill-rule="nonzero"/><path fill="#ffac00" d="M 651.605469 516.859375 C 651.605469 517.699219 651.5625 518.539062 651.480469 519.375 C 651.398438 520.214844 651.277344 521.046875 651.113281 521.871094 C 650.949219 522.695312 650.742188 523.511719 650.5 524.316406 C 650.253906 525.121094 649.972656 525.910156 649.648438 526.6875 C 649.328125 527.464844 648.96875 528.226562 648.570312 528.96875 C 648.175781 529.710938 647.742188 530.429688 647.277344 531.128906 C 646.808594 531.832031 646.308594 532.503906 645.773438 533.15625 C 645.242188 533.804688 644.675781 534.429688 644.082031 535.023438 C 643.488281 535.617188 642.863281 536.183594 642.214844 536.714844 C 641.5625 537.25 640.886719 537.75 640.1875 538.21875 C 639.488281 538.6875 638.769531 539.117188 638.027344 539.515625 C 637.285156 539.910156 636.523438 540.269531 635.746094 540.59375 C 634.96875 540.914062 634.179688 541.199219 633.375 541.441406 C 632.570312 541.6875 631.753906 541.890625 630.929688 542.054688 C 630.101562 542.21875 629.273438 542.339844 628.433594 542.425781 C 627.597656 542.507812 626.757812 542.546875 625.917969 542.546875 C 625.074219 542.546875 624.234375 542.507812 623.398438 542.425781 C 622.5625 542.339844 621.730469 542.21875 620.90625 542.054688 C 620.078125 541.890625 619.265625 541.6875 618.460938 541.441406 C 617.652344 541.199219 616.863281 540.914062 616.085938 540.59375 C 615.308594 540.269531 614.546875 539.910156 613.804688 539.515625 C 613.066406 539.117188 612.34375 538.6875 611.644531 538.21875 C 610.945312 537.75 610.269531 537.25 609.621094 536.714844 C 608.96875 536.183594 608.347656 535.617188 607.75 535.023438 C 607.15625 534.429688 606.59375 533.804688 606.058594 533.15625 C 605.523438 532.503906 605.023438 531.832031 604.554688 531.128906 C 604.089844 530.429688 603.65625 529.710938 603.261719 528.96875 C 602.863281 528.226562 602.503906 527.464844 602.183594 526.6875 C 601.859375 525.910156 601.578125 525.121094 601.332031 524.316406 C 601.089844 523.511719 600.886719 522.695312 600.71875 521.871094 C 600.554688 521.046875 600.433594 520.214844 600.351562 519.375 C 600.269531 518.539062 600.226562 517.699219 600.226562 516.859375 C 600.226562 516.015625 600.269531 515.179688 600.351562 514.339844 C 600.433594 513.503906 600.554688 512.671875 600.71875 511.847656 C 600.886719 511.023438 601.089844 510.207031 601.332031 509.402344 C 601.578125 508.597656 601.859375 507.804688 602.183594 507.027344 C 602.503906 506.25 602.863281 505.492188 603.261719 504.75 C 603.65625 504.007812 604.089844 503.285156 604.554688 502.585938 C 605.023438 501.886719 605.523438 501.210938 606.058594 500.5625 C 606.59375 499.910156 607.15625 499.289062 607.75 498.695312 C 608.347656 498.097656 608.96875 497.535156 609.621094 497 C 610.269531 496.464844 610.945312 495.964844 611.644531 495.5 C 612.34375 495.03125 613.066406 494.597656 613.804688 494.203125 C 614.546875 493.804688 615.308594 493.445312 616.085938 493.125 C 616.863281 492.804688 617.652344 492.519531 618.460938 492.277344 C 619.265625 492.03125 620.078125 491.828125 620.90625 491.664062 C 621.730469 491.5 622.5625 491.375 623.398438 491.292969 C 624.234375 491.210938 625.074219 491.167969 625.917969 491.167969 C 626.757812 491.167969 627.597656 491.210938 628.433594 491.292969 C 629.273438 491.375 630.101562 491.5 630.929688 491.664062 C 631.753906 491.828125 632.570312 492.03125 633.375 492.277344 C 634.179688 492.519531 634.96875 492.804688 635.746094 493.125 C 636.523438 493.445312 637.285156 493.804688 638.027344 494.203125 C 638.769531 494.597656 639.488281 495.03125 640.1875 495.5 C 640.886719 495.964844 641.5625 496.464844 642.214844 497 C 642.863281 497.535156 643.488281 498.097656 644.082031 498.695312 C 644.675781 499.289062 645.242188 499.910156 645.773438 500.5625 C 646.308594 501.210938 646.808594 501.886719 647.277344 502.585938 C 647.742188 503.285156 648.175781 504.007812 648.570312 504.75 C 648.96875 505.492188 649.328125 506.25 649.648438 507.027344 C 649.972656 507.804688 650.253906 508.597656 650.5 509.402344 C 650.742188 510.207031 650.949219 511.023438 651.113281 511.847656 C 651.277344 512.671875 651.398438 513.503906 651.480469 514.339844 C 651.5625 515.179688 651.605469 516.015625 651.605469 516.859375 Z M 651.605469 516.859375 " fill-opacity="1" fill-rule="nonzero"/><path fill="#ffac00" d="M 625.917969 525.421875 C 625.066406 525.425781 624.234375 525.308594 623.417969 525.0625 C 622.601562 524.820312 621.839844 524.464844 621.132812 523.996094 C 620.425781 523.523438 619.800781 522.960938 619.257812 522.304688 C 618.71875 521.648438 618.285156 520.925781 617.957031 520.140625 C 617.632812 519.355469 617.425781 518.539062 617.34375 517.695312 C 617.261719 516.847656 617.304688 516.007812 617.472656 515.175781 C 617.636719 514.339844 617.921875 513.550781 618.328125 512.800781 C 618.730469 512.050781 619.234375 511.378906 619.835938 510.777344 L 714.03125 416.585938 C 714.429688 416.1875 714.863281 415.828125 715.332031 415.515625 C 715.804688 415.203125 716.296875 414.9375 716.820312 414.722656 C 717.339844 414.503906 717.878906 414.34375 718.433594 414.230469 C 718.988281 414.121094 719.546875 414.066406 720.109375 414.066406 C 720.675781 414.066406 721.234375 414.121094 721.789062 414.230469 C 722.339844 414.34375 722.878906 414.503906 723.402344 414.722656 C 723.921875 414.9375 724.417969 415.203125 724.886719 415.515625 C 725.355469 415.828125 725.789062 416.1875 726.191406 416.585938 C 726.589844 416.984375 726.945312 417.417969 727.257812 417.886719 C 727.574219 418.355469 727.835938 418.851562 728.054688 419.375 C 728.269531 419.894531 728.433594 420.433594 728.542969 420.988281 C 728.652344 421.539062 728.707031 422.101562 728.707031 422.664062 C 728.707031 423.230469 728.652344 423.789062 728.542969 424.34375 C 728.433594 424.894531 728.269531 425.433594 728.054688 425.953125 C 727.835938 426.476562 727.574219 426.972656 727.257812 427.441406 C 726.945312 427.910156 726.589844 428.34375 726.191406 428.746094 L 631.996094 522.9375 C 631.1875 523.738281 630.257812 524.355469 629.203125 524.785156 C 628.148438 525.214844 627.054688 525.429688 625.917969 525.421875 Z M 625.917969 525.421875 " fill-opacity="1" fill-rule="nonzero"/><path fill="#ffac00" d="M 805.742188 422.664062 C 805.742188 424.066406 805.707031 425.464844 805.636719 426.867188 C 805.570312 428.265625 805.464844 429.664062 805.328125 431.058594 C 805.191406 432.453125 805.019531 433.84375 804.8125 435.230469 C 804.609375 436.617188 804.367188 437.996094 804.09375 439.371094 C 803.824219 440.746094 803.515625 442.113281 803.175781 443.472656 C 802.835938 444.832031 802.460938 446.179688 802.054688 447.523438 C 801.648438 448.863281 801.207031 450.191406 800.734375 451.511719 C 800.261719 452.832031 799.757812 454.140625 799.222656 455.433594 C 798.6875 456.730469 798.117188 458.007812 797.519531 459.277344 C 796.921875 460.542969 796.289062 461.792969 795.628906 463.03125 C 794.96875 464.265625 794.277344 465.484375 793.558594 466.6875 C 792.835938 467.890625 792.089844 469.074219 791.308594 470.238281 C 790.53125 471.402344 789.722656 472.550781 788.890625 473.675781 C 788.054688 474.800781 787.191406 475.90625 786.304688 476.988281 C 785.414062 478.070312 784.5 479.132812 783.558594 480.171875 C 782.617188 481.210938 781.652344 482.222656 780.660156 483.214844 C 779.667969 484.207031 778.65625 485.171875 777.617188 486.113281 C 776.578125 487.054688 775.515625 487.96875 774.433594 488.859375 C 773.351562 489.746094 772.246094 490.609375 771.121094 491.445312 C 769.996094 492.277344 768.847656 493.085938 767.683594 493.863281 C 766.519531 494.644531 765.335938 495.390625 764.132812 496.113281 C 762.929688 496.832031 761.710938 497.523438 760.476562 498.183594 C 759.242188 498.84375 757.988281 499.476562 756.722656 500.074219 C 755.457031 500.671875 754.175781 501.242188 752.878906 501.777344 C 751.585938 502.3125 750.277344 502.816406 748.957031 503.289062 C 747.640625 503.761719 746.308594 504.203125 744.96875 504.609375 C 743.625 505.015625 742.277344 505.386719 740.917969 505.730469 C 739.558594 506.070312 738.191406 506.375 736.816406 506.648438 C 735.441406 506.921875 734.0625 507.164062 732.675781 507.367188 C 731.289062 507.574219 729.898438 507.746094 728.503906 507.882812 C 727.109375 508.019531 725.710938 508.125 724.3125 508.191406 C 722.914062 508.261719 721.511719 508.296875 720.109375 508.296875 C 718.707031 508.296875 717.308594 508.261719 715.910156 508.191406 C 714.507812 508.125 713.113281 508.019531 711.71875 507.882812 C 710.324219 507.746094 708.933594 507.574219 707.546875 507.367188 C 706.160156 507.164062 704.777344 506.921875 703.40625 506.648438 C 702.03125 506.375 700.664062 506.070312 699.304688 505.730469 C 697.945312 505.390625 696.59375 505.015625 695.253906 504.609375 C 693.910156 504.203125 692.582031 503.761719 691.261719 503.289062 C 689.941406 502.816406 688.636719 502.3125 687.339844 501.777344 C 686.046875 501.242188 684.765625 500.671875 683.5 500.074219 C 682.230469 499.476562 680.980469 498.84375 679.746094 498.183594 C 678.507812 497.523438 677.289062 496.832031 676.085938 496.113281 C 674.886719 495.390625 673.703125 494.644531 672.535156 493.863281 C 671.371094 493.085938 670.226562 492.277344 669.101562 491.445312 C 667.972656 490.609375 666.871094 489.746094 665.785156 488.859375 C 664.703125 487.96875 663.640625 487.054688 662.605469 486.113281 C 661.566406 485.171875 660.550781 484.207031 659.558594 483.214844 C 658.570312 482.222656 657.601562 481.210938 656.660156 480.171875 C 655.722656 479.132812 654.804688 478.070312 653.917969 476.988281 C 653.027344 475.90625 652.164062 474.800781 651.332031 473.675781 C 650.496094 472.550781 649.6875 471.402344 648.910156 470.238281 C 648.132812 469.074219 647.382812 467.890625 646.664062 466.6875 C 645.941406 465.484375 645.25 464.265625 644.589844 463.03125 C 643.929688 461.792969 643.300781 460.542969 642.699219 459.277344 C 642.101562 458.007812 641.535156 456.730469 640.996094 455.433594 C 640.460938 454.140625 639.957031 452.832031 639.484375 451.511719 C 639.011719 450.191406 638.574219 448.863281 638.167969 447.523438 C 637.761719 446.179688 637.386719 444.832031 637.046875 443.472656 C 636.707031 442.113281 636.398438 440.746094 636.125 439.371094 C 635.851562 437.996094 635.613281 436.617188 635.40625 435.230469 C 635.199219 433.84375 635.027344 432.453125 634.890625 431.058594 C 634.753906 429.664062 634.652344 428.265625 634.582031 426.867188 C 634.515625 425.464844 634.480469 424.066406 634.480469 422.664062 C 634.480469 421.261719 634.515625 419.863281 634.582031 418.464844 C 634.652344 417.0625 634.753906 415.667969 634.890625 414.269531 C 635.027344 412.875 635.199219 411.484375 635.40625 410.101562 C 635.613281 408.714844 635.851562 407.332031 636.125 405.957031 C 636.398438 404.585938 636.707031 403.21875 637.046875 401.859375 C 637.386719 400.5 637.761719 399.148438 638.167969 397.808594 C 638.574219 396.464844 639.011719 395.136719 639.484375 393.816406 C 639.957031 392.496094 640.460938 391.191406 640.996094 389.894531 C 641.535156 388.601562 642.101562 387.320312 642.699219 386.050781 C 643.300781 384.785156 643.929688 383.535156 644.589844 382.296875 C 645.25 381.0625 645.941406 379.84375 646.664062 378.640625 C 647.382812 377.441406 648.132812 376.257812 648.910156 375.089844 C 649.6875 373.925781 650.496094 372.78125 651.332031 371.65625 C 652.164062 370.527344 653.027344 369.425781 653.917969 368.339844 C 654.804688 367.257812 655.722656 366.195312 656.660156 365.160156 C 657.601562 364.121094 658.570312 363.105469 659.558594 362.113281 C 660.550781 361.125 661.566406 360.15625 662.605469 359.214844 C 663.640625 358.273438 664.703125 357.359375 665.785156 356.472656 C 666.871094 355.582031 667.972656 354.71875 669.101562 353.886719 C 670.226562 353.050781 671.371094 352.242188 672.535156 351.464844 C 673.703125 350.6875 674.886719 349.9375 676.085938 349.214844 C 677.289062 348.496094 678.507812 347.804688 679.746094 347.144531 C 680.980469 346.484375 682.230469 345.855469 683.5 345.253906 C 684.765625 344.65625 686.046875 344.089844 687.339844 343.550781 C 688.636719 343.015625 689.941406 342.511719 691.261719 342.039062 C 692.582031 341.566406 693.910156 341.128906 695.253906 340.722656 C 696.59375 340.3125 697.945312 339.941406 699.304688 339.601562 C 700.664062 339.257812 702.03125 338.953125 703.40625 338.679688 C 704.777344 338.40625 706.160156 338.167969 707.546875 337.960938 C 708.933594 337.753906 710.324219 337.582031 711.71875 337.445312 C 713.113281 337.308594 714.507812 337.207031 715.910156 337.136719 C 717.308594 337.066406 718.707031 337.035156 720.109375 337.035156 C 721.511719 337.035156 722.914062 337.066406 724.3125 337.136719 C 725.710938 337.207031 727.109375 337.308594 728.503906 337.445312 C 729.898438 337.582031 731.289062 337.753906 732.675781 337.960938 C 734.0625 338.167969 735.441406 338.40625 736.816406 338.679688 C 738.191406 338.953125 739.558594 339.257812 740.917969 339.601562 C 742.277344 339.941406 743.625 340.3125 744.96875 340.722656 C 746.308594 341.128906 747.640625 341.566406 748.957031 342.039062 C 750.277344 342.511719 751.585938 343.015625 752.878906 343.550781 C 754.175781 344.089844 755.457031 344.65625 756.722656 345.253906 C 757.988281 345.855469 759.242188 346.484375 760.476562 347.144531 C 761.710938 347.804688 762.929688 348.496094 764.132812 349.214844 C 765.335938 349.9375 766.519531 350.6875 767.683594 351.464844 C 768.847656 352.242188 769.996094 353.050781 771.121094 353.886719 C 772.246094 354.71875 773.351562 355.582031 774.433594 356.472656 C 775.515625 357.359375 776.578125 358.273438 777.617188 359.214844 C 778.65625 360.15625 779.667969 361.125 780.660156 362.113281 C 781.652344 363.105469 782.617188 364.121094 783.558594 365.160156 C 784.5 366.195312 785.414062 367.257812 786.304688 368.339844 C 787.191406 369.425781 788.054688 370.527344 788.890625 371.65625 C 789.722656 372.78125 790.53125 373.925781 791.308594 375.089844 C 792.089844 376.257812 792.835938 377.441406 793.558594 378.640625 C 794.277344 379.84375 794.96875 381.0625 795.628906 382.296875 C 796.289062 383.535156 796.921875 384.785156 797.519531 386.050781 C 798.117188 387.320312 798.6875 388.601562 799.222656 389.894531 C 799.757812 391.191406 800.261719 392.496094 800.734375 393.816406 C 801.207031 395.136719 801.648438 396.464844 802.054688 397.808594 C 802.460938 399.148438 802.835938 400.5 803.175781 401.859375 C 803.515625 403.21875 803.824219 404.585938 804.09375 405.957031 C 804.367188 407.332031 804.609375 408.714844 804.8125 410.101562 C 805.019531 411.484375 805.191406 412.875 805.328125 414.269531 C 805.464844 415.667969 805.570312 417.0625 805.636719 418.464844 C 805.707031 419.863281 805.742188 421.261719 805.742188 422.664062 Z M 805.742188 422.664062 " fill-opacity="1" fill-rule="nonzero"/><path fill="#ea9706" d="M 688.171875 431.65625 C 664.363281 423.09375 668.644531 387.8125 684.058594 393.550781 L 700.160156 399.542969 C 700.683594 399.742188 701.199219 399.964844 701.703125 400.210938 C 702.203125 400.457031 702.695312 400.730469 703.171875 401.023438 C 703.648438 401.320312 704.109375 401.636719 704.554688 401.976562 C 705 402.320312 705.429688 402.679688 705.839844 403.0625 C 706.25 403.445312 706.640625 403.847656 707.011719 404.269531 C 707.378906 404.691406 707.730469 405.128906 708.058594 405.582031 C 708.386719 406.039062 708.691406 406.507812 708.972656 406.992188 C 709.253906 407.480469 709.507812 407.976562 709.742188 408.488281 C 709.976562 408.996094 710.183594 409.519531 710.363281 410.050781 C 710.542969 410.578125 710.699219 411.117188 710.828125 411.664062 C 710.957031 412.210938 711.058594 412.761719 711.132812 413.316406 C 711.207031 413.871094 711.253906 414.429688 711.273438 414.992188 C 711.292969 415.550781 711.285156 416.113281 711.25 416.671875 C 711.214844 417.230469 711.152344 417.789062 711.0625 418.34375 C 710.972656 418.894531 710.855469 419.445312 710.710938 419.984375 C 710.570312 420.527344 710.398438 421.0625 710.203125 421.585938 C 710.007812 422.113281 709.785156 422.628906 709.539062 423.132812 C 709.292969 423.636719 709.019531 424.125 708.726562 424.601562 C 708.429688 425.078125 708.113281 425.542969 707.773438 425.988281 C 707.433594 426.433594 707.070312 426.863281 706.691406 427.273438 C 706.308594 427.683594 705.90625 428.074219 705.484375 428.445312 C 705.066406 428.816406 704.628906 429.164062 704.171875 429.492188 C 703.71875 429.820312 703.246094 430.125 702.761719 430.410156 C 702.277344 430.691406 701.78125 430.949219 701.269531 431.179688 C 700.757812 431.414062 700.238281 431.621094 699.707031 431.804688 C 699.179688 431.984375 698.640625 432.140625 698.09375 432.269531 C 697.546875 432.398438 696.996094 432.503906 696.441406 432.578125 C 695.886719 432.652344 695.328125 432.699219 694.765625 432.71875 C 694.207031 432.742188 693.644531 432.734375 693.085938 432.699219 C 692.527344 432.664062 691.96875 432.601562 691.417969 432.511719 C 690.863281 432.421875 690.3125 432.308594 689.773438 432.164062 C 689.230469 432.019531 688.695312 431.851562 688.171875 431.65625 Z M 688.171875 431.65625 " fill-opacity="1" fill-rule="nonzero"/><path fill="#ea9706" d="M 752.050781 431.65625 C 775.855469 423.09375 771.574219 387.8125 756.074219 393.550781 L 740.0625 399.542969 C 739.535156 399.742188 739.019531 399.960938 738.515625 400.207031 C 738.011719 400.453125 737.519531 400.726562 737.042969 401.019531 C 736.5625 401.316406 736.101562 401.632812 735.65625 401.972656 C 735.207031 402.3125 734.78125 402.675781 734.367188 403.058594 C 733.957031 403.441406 733.566406 403.84375 733.195312 404.261719 C 732.820312 404.683594 732.472656 405.121094 732.144531 405.578125 C 731.816406 406.035156 731.507812 406.503906 731.226562 406.988281 C 730.945312 407.476562 730.6875 407.972656 730.453125 408.484375 C 730.21875 408.996094 730.011719 409.515625 729.828125 410.046875 C 729.648438 410.578125 729.492188 411.117188 729.363281 411.664062 C 729.234375 412.210938 729.132812 412.761719 729.058594 413.320312 C 728.980469 413.875 728.933594 414.433594 728.914062 414.996094 C 728.894531 415.554688 728.902344 416.117188 728.9375 416.679688 C 728.972656 417.238281 729.035156 417.796875 729.125 418.351562 C 729.214844 418.90625 729.332031 419.453125 729.476562 419.996094 C 729.621094 420.539062 729.789062 421.074219 729.984375 421.601562 C 730.183594 422.125 730.402344 422.640625 730.652344 423.144531 C 730.898438 423.648438 731.167969 424.140625 731.464844 424.617188 C 731.761719 425.097656 732.078125 425.558594 732.417969 426.003906 C 732.761719 426.453125 733.121094 426.878906 733.503906 427.289062 C 733.886719 427.703125 734.289062 428.09375 734.710938 428.464844 C 735.132812 428.835938 735.570312 429.183594 736.027344 429.511719 C 736.484375 429.839844 736.953125 430.144531 737.4375 430.429688 C 737.925781 430.710938 738.421875 430.96875 738.933594 431.199219 C 739.445312 431.433594 739.964844 431.640625 740.496094 431.824219 C 741.03125 432.003906 741.570312 432.160156 742.113281 432.289062 C 742.660156 432.417969 743.214844 432.519531 743.769531 432.59375 C 744.328125 432.667969 744.886719 432.714844 745.445312 432.734375 C 746.007812 432.753906 746.570312 432.746094 747.128906 432.710938 C 747.691406 432.671875 748.246094 432.609375 748.800781 432.519531 C 749.355469 432.429688 749.90625 432.3125 750.449219 432.167969 C 750.992188 432.023438 751.523438 431.851562 752.050781 431.65625 Z M 752.050781 431.65625 " fill-opacity="1" fill-rule="nonzero"/><path fill="#d9d9d9" d="M 523.160156 379.847656 L 591.664062 379.847656 L 591.664062 396.976562 L 523.160156 396.976562 Z M 523.160156 379.847656 " fill-opacity="1" fill-rule="nonzero"/><path fill="#d9d9d9" d="M 523.160156 414.101562 L 591.664062 414.101562 L 591.664062 431.226562 L 523.160156 431.226562 Z M 523.160156 414.101562 " fill-opacity="1" fill-rule="nonzero"/><path fill="#d9d9d9" d="M 523.160156 448.355469 L 591.664062 448.355469 L 591.664062 465.480469 L 523.160156 465.480469 Z M 523.160156 448.355469 " fill-opacity="1" fill-rule="nonzero"/><path fill="#d9d9d9" d="M 848.554688 379.847656 L 917.0625 379.847656 L 917.0625 396.976562 L 848.554688 396.976562 Z M 848.554688 379.847656 " fill-opacity="1" fill-rule="nonzero"/><path fill="#d9d9d9" d="M 848.554688 414.101562 L 917.0625 414.101562 L 917.0625 431.226562 L 848.554688 431.226562 Z M 848.554688 414.101562 " fill-opacity="1" fill-rule="nonzero"/><path fill="#d9d9d9" d="M 848.554688 448.355469 L 917.0625 448.355469 L 917.0625 465.480469 L 848.554688 465.480469 Z M 848.554688 448.355469 " fill-opacity="1" fill-rule="nonzero"/><g clip-path="url(#dc319f2f8a)"><path fill="#ffac00" d="M 959.875 174.335938 C 959.027344 174.339844 958.195312 174.222656 957.378906 173.976562 C 956.5625 173.734375 955.800781 173.378906 955.09375 172.90625 C 954.382812 172.4375 953.761719 171.875 953.21875 171.21875 C 952.679688 170.5625 952.246094 169.839844 951.917969 169.054688 C 951.59375 168.269531 951.386719 167.453125 951.304688 166.609375 C 951.222656 165.761719 951.265625 164.921875 951.429688 164.089844 C 951.597656 163.253906 951.882812 162.460938 952.285156 161.714844 C 952.691406 160.964844 953.191406 160.292969 953.796875 159.691406 L 979.484375 134.003906 C 979.886719 133.605469 980.320312 133.246094 980.789062 132.933594 C 981.257812 132.621094 981.753906 132.355469 982.277344 132.140625 C 982.796875 131.921875 983.335938 131.761719 983.886719 131.648438 C 984.441406 131.539062 985 131.484375 985.566406 131.484375 C 986.128906 131.484375 986.691406 131.539062 987.242188 131.648438 C 987.796875 131.761719 988.335938 131.921875 988.855469 132.140625 C 989.378906 132.355469 989.875 132.621094 990.34375 132.933594 C 990.8125 133.246094 991.246094 133.605469 991.644531 134.003906 C 992.042969 134.402344 992.402344 134.835938 992.714844 135.304688 C 993.027344 135.777344 993.292969 136.269531 993.507812 136.792969 C 993.726562 137.3125 993.886719 137.851562 994 138.40625 C 994.109375 138.960938 994.164062 139.519531 994.164062 140.082031 C 994.164062 140.648438 994.109375 141.207031 994 141.761719 C 993.886719 142.3125 993.726562 142.851562 993.507812 143.375 C 993.292969 143.894531 993.027344 144.390625 992.714844 144.859375 C 992.402344 145.328125 992.042969 145.761719 991.644531 146.164062 L 965.957031 171.851562 C 965.148438 172.652344 964.21875 173.269531 963.164062 173.699219 C 962.109375 174.128906 961.015625 174.339844 959.875 174.335938 Z M 959.875 174.335938 " fill-opacity="1" fill-rule="nonzero"/><path fill="#ffac00" d="M 985.566406 174.335938 C 984.429688 174.339844 983.332031 174.128906 982.277344 173.699219 C 981.226562 173.269531 980.292969 172.652344 979.484375 171.851562 L 953.796875 146.164062 C 953.398438 145.761719 953.042969 145.328125 952.730469 144.859375 C 952.417969 144.390625 952.152344 143.894531 951.9375 143.375 C 951.722656 142.851562 951.558594 142.316406 951.449219 141.761719 C 951.339844 141.207031 951.285156 140.648438 951.285156 140.085938 C 951.285156 139.519531 951.339844 138.960938 951.449219 138.410156 C 951.558594 137.855469 951.722656 137.316406 951.941406 136.796875 C 952.15625 136.273438 952.421875 135.78125 952.734375 135.3125 C 953.046875 134.84375 953.402344 134.40625 953.804688 134.007812 C 954.203125 133.609375 954.636719 133.253906 955.105469 132.941406 C 955.574219 132.625 956.070312 132.363281 956.589844 132.144531 C 957.113281 131.929688 957.648438 131.765625 958.203125 131.65625 C 958.753906 131.546875 959.3125 131.492188 959.878906 131.492188 C 960.441406 131.492188 961 131.546875 961.554688 131.65625 C 962.109375 131.765625 962.644531 131.925781 963.167969 132.144531 C 963.6875 132.359375 964.183594 132.621094 964.652344 132.9375 C 965.121094 133.25 965.558594 133.605469 965.957031 134.003906 L 991.644531 159.691406 C 992.25 160.292969 992.753906 160.964844 993.15625 161.714844 C 993.558594 162.460938 993.84375 163.253906 994.011719 164.089844 C 994.179688 164.921875 994.222656 165.761719 994.136719 166.609375 C 994.054688 167.453125 993.851562 168.269531 993.523438 169.054688 C 993.199219 169.839844 992.765625 170.5625 992.222656 171.21875 C 991.683594 171.875 991.058594 172.4375 990.347656 172.90625 C 989.640625 173.378906 988.878906 173.734375 988.0625 173.976562 C 987.25 174.222656 986.417969 174.339844 985.566406 174.335938 Z M 985.566406 174.335938 " fill-opacity="1" fill-rule="nonzero"/></g><path fill="#ffac00" d="M 454.65625 670.992188 C 453.804688 671 452.972656 670.878906 452.15625 670.636719 C 451.339844 670.394531 450.578125 670.035156 449.871094 669.566406 C 449.164062 669.097656 448.539062 668.535156 447.996094 667.878906 C 447.457031 667.222656 447.023438 666.5 446.695312 665.714844 C 446.371094 664.929688 446.164062 664.113281 446.082031 663.265625 C 446 662.421875 446.042969 661.582031 446.210938 660.746094 C 446.375 659.914062 446.660156 659.121094 447.066406 658.371094 C 447.46875 657.625 447.972656 656.949219 448.574219 656.351562 L 474.265625 630.660156 C 474.664062 630.261719 475.097656 629.90625 475.566406 629.59375 C 476.035156 629.28125 476.53125 629.015625 477.054688 628.800781 C 477.574219 628.585938 478.113281 628.421875 478.664062 628.3125 C 479.21875 628.203125 479.777344 628.148438 480.34375 628.148438 C 480.90625 628.148438 481.464844 628.207031 482.019531 628.316406 C 482.570312 628.425781 483.109375 628.589844 483.628906 628.804688 C 484.152344 629.019531 484.644531 629.285156 485.117188 629.597656 C 485.585938 629.914062 486.019531 630.269531 486.417969 630.667969 C 486.816406 631.066406 487.171875 631.5 487.484375 631.96875 C 487.800781 632.4375 488.0625 632.933594 488.28125 633.457031 C 488.496094 633.976562 488.660156 634.515625 488.769531 635.066406 C 488.878906 635.621094 488.933594 636.179688 488.9375 636.742188 C 488.9375 637.308594 488.882812 637.867188 488.773438 638.421875 C 488.660156 638.972656 488.5 639.511719 488.285156 640.03125 C 488.066406 640.554688 487.804688 641.050781 487.492188 641.519531 C 487.179688 641.988281 486.820312 642.421875 486.421875 642.820312 L 460.734375 668.511719 C 459.925781 669.3125 458.996094 669.929688 457.941406 670.359375 C 456.886719 670.789062 455.792969 671 454.65625 670.992188 Z M 454.65625 670.992188 " fill-opacity="1" fill-rule="nonzero"/><path fill="#ffac00" d="M 480.34375 670.992188 C 479.207031 671 478.109375 670.789062 477.054688 670.359375 C 476.003906 669.929688 475.070312 669.3125 474.265625 668.511719 L 448.574219 642.820312 C 448.175781 642.421875 447.820312 641.988281 447.507812 641.519531 C 447.195312 641.050781 446.929688 640.554688 446.714844 640.03125 C 446.5 639.511719 446.335938 638.972656 446.226562 638.417969 C 446.117188 637.867188 446.0625 637.308594 446.0625 636.742188 C 446.0625 636.179688 446.117188 635.621094 446.226562 635.066406 C 446.339844 634.515625 446.5 633.976562 446.71875 633.457031 C 446.933594 632.933594 447.199219 632.4375 447.511719 631.96875 C 447.824219 631.5 448.183594 631.066406 448.582031 630.667969 C 448.980469 630.269531 449.414062 629.914062 449.882812 629.597656 C 450.351562 629.285156 450.847656 629.019531 451.367188 628.804688 C 451.890625 628.589844 452.425781 628.425781 452.980469 628.316406 C 453.535156 628.207031 454.09375 628.148438 454.65625 628.148438 C 455.21875 628.148438 455.78125 628.203125 456.332031 628.3125 C 456.886719 628.421875 457.421875 628.585938 457.945312 628.800781 C 458.464844 629.015625 458.960938 629.28125 459.429688 629.59375 C 459.902344 629.90625 460.335938 630.261719 460.734375 630.660156 L 486.421875 656.351562 C 487.027344 656.949219 487.53125 657.625 487.933594 658.371094 C 488.335938 659.121094 488.621094 659.914062 488.789062 660.746094 C 488.957031 661.582031 489 662.421875 488.914062 663.265625 C 488.832031 664.113281 488.628906 664.929688 488.300781 665.714844 C 487.976562 666.5 487.542969 667.222656 487 667.878906 C 486.460938 668.535156 485.835938 669.097656 485.128906 669.566406 C 484.417969 670.035156 483.65625 670.394531 482.84375 670.636719 C 482.027344 670.878906 481.195312 671 480.34375 670.992188 Z M 480.34375 670.992188 " fill-opacity="1" fill-rule="nonzero"/></svg>