<svg xmlns="http://www.w3.org/2000/svg" xmlns:xlink="http://www.w3.org/1999/xlink" width="1920" zoomAndPan="magnify" viewBox="0 0 1440 809.999993" height="1080" preserveAspectRatio="xMidYMid meet" version="1.0"><defs><clipPath id="60cd7587ca"><path d="M 568.785156 530 L 706 530 L 706 691.238281 L 568.785156 691.238281 Z M 568.785156 530 " clip-rule="nonzero"/></clipPath><clipPath id="1332d88c6a"><path d="M 565.742188 610 L 637 610 L 637 691.238281 L 565.742188 691.238281 Z M 565.742188 610 " clip-rule="nonzero"/></clipPath><clipPath id="0f7879de00"><path d="M 609 622.46875 L 637 622.46875 L 637 691.238281 L 609 691.238281 Z M 609 622.46875 " clip-rule="nonzero"/></clipPath><clipPath id="3a3f1a0b5a"><path d="M 729 527 L 856 527 L 856 691.238281 L 729 691.238281 Z M 729 527 " clip-rule="nonzero"/></clipPath><clipPath id="c72621c98b"><path d="M 792.441406 613 L 859 613 L 859 691.238281 L 792.441406 691.238281 Z M 792.441406 613 " clip-rule="nonzero"/></clipPath><clipPath id="a7a1ff79e6"><path d="M 792.441406 622.46875 L 816 622.46875 L 816 691.238281 L 792.441406 691.238281 Z M 792.441406 622.46875 " clip-rule="nonzero"/></clipPath></defs><path fill="#e7528a" d="M 590.289062 244.734375 L 524.675781 255.644531 C 522.160156 256.0625 519.789062 254.367188 519.367188 251.855469 L 506.945312 177.144531 C 506.53125 174.628906 508.230469 172.253906 510.738281 171.835938 L 576.351562 160.925781 C 577.683594 160.710938 578.9375 161.601562 579.15625 162.933594 L 592.292969 241.929688 C 592.511719 243.261719 591.621094 244.515625 590.289062 244.734375 " fill-opacity="1" fill-rule="nonzero"/><path fill="#ffffff" d="M 590.46875 242.488281 L 584.363281 244.597656 L 523.671875 253.597656 C 522.546875 253.78125 521.484375 253.019531 521.300781 251.894531 L 508.757812 176.480469 C 508.570312 175.355469 509.328125 174.292969 510.453125 174.109375 L 571.390625 162.238281 L 577.25 163 L 590.46875 242.488281 " fill-opacity="1" fill-rule="nonzero"/><path fill="#ec6b66" d="M 583.816406 245.816406 L 518.203125 256.722656 C 515.6875 257.136719 513.3125 255.445312 512.902344 252.929688 L 500.472656 178.21875 C 500.058594 175.707031 501.753906 173.335938 504.265625 172.914062 L 569.878906 162 C 571.210938 161.78125 572.464844 162.683594 572.683594 164.007812 L 585.820312 243.011719 C 586.039062 244.335938 585.148438 245.597656 583.816406 245.816406 " fill-opacity="1" fill-rule="nonzero"/><path fill="#e7528a" d="M 507.898438 172.3125 L 504.265625 172.914062 C 501.753906 173.335938 500.058594 175.707031 500.472656 178.21875 L 512.902344 252.929688 C 513.3125 255.445312 515.6875 257.136719 518.203125 256.722656 L 521.835938 256.117188 L 507.898438 172.3125 " fill-opacity="1" fill-rule="nonzero"/><path fill="#f19472" d="M 557.457031 189.28125 L 527.820312 194.207031 L 525.441406 179.898438 L 555.074219 174.96875 L 557.457031 189.28125 " fill-opacity="1" fill-rule="nonzero"/><path fill="#ffffff" d="M 512.902344 252.929688 L 510.886719 240.847656 L 512.902344 252.929688 M 569.878906 162 C 569.902344 162 569.933594 161.996094 569.957031 161.988281 C 569.933594 161.996094 569.902344 162 569.878906 162 " fill-opacity="1" fill-rule="nonzero"/><path fill="#ec78a0" d="M 569.957031 161.988281 C 570.0625 161.976562 570.171875 161.972656 570.277344 161.972656 C 570.171875 161.972656 570.0625 161.976562 569.957031 161.988281 M 570.296875 161.972656 C 570.289062 161.972656 570.285156 161.972656 570.285156 161.972656 C 570.285156 161.972656 570.289062 161.972656 570.296875 161.972656 " fill-opacity="1" fill-rule="nonzero"/><path fill="#ef8a80" d="M 520.277344 246.777344 L 517.710938 231.308594 L 518.808594 229.769531 C 528.019531 216.882812 537.234375 203.996094 546.445312 191.105469 L 557.457031 189.28125 L 555.628906 178.269531 C 559.378906 173.015625 563.140625 167.753906 566.894531 162.5 L 569.878906 162 C 569.902344 162 569.933594 161.996094 569.957031 161.988281 C 570.0625 161.976562 570.171875 161.972656 570.277344 161.972656 L 570.285156 161.972656 C 570.285156 161.972656 570.289062 161.972656 570.296875 161.972656 C 571.460938 161.976562 572.488281 162.820312 572.683594 164.007812 L 574.003906 171.9375 C 569.277344 178.535156 564.558594 185.140625 559.828125 191.734375 C 547.421875 209.066406 534.988281 226.386719 522.519531 243.675781 C 521.769531 244.710938 521.027344 245.746094 520.277344 246.777344 " fill-opacity="1" fill-rule="nonzero"/><path fill="#ec78a0" d="M 514.089844 255.335938 C 513.484375 254.695312 513.054688 253.871094 512.902344 252.929688 L 510.886719 240.847656 L 517.710938 231.308594 L 520.277344 246.777344 C 518.214844 249.632812 516.152344 252.484375 514.089844 255.335938 " fill-opacity="1" fill-rule="nonzero"/><path fill="#f4aa8d" d="M 546.445312 191.105469 C 548.78125 187.84375 551.117188 184.574219 553.453125 181.304688 C 554.175781 180.292969 554.902344 179.277344 555.628906 178.269531 L 557.457031 189.28125 L 546.445312 191.105469 " fill-opacity="1" fill-rule="nonzero"/><path fill="#ec78a0" d="M 528.863281 254.949219 L 545.148438 252.242188 L 528.863281 254.949219 " fill-opacity="1" fill-rule="nonzero"/><path fill="#ffffff" d="M 579.363281 204.1875 L 576.683594 188.058594 L 576.683594 188.050781 L 579.363281 204.183594 L 579.363281 204.1875 " fill-opacity="1" fill-rule="nonzero"/><path fill="#ef8a80" d="M 528.863281 254.949219 L 529.726562 253.746094 L 573.425781 192.609375 L 576.683594 188.058594 L 579.363281 204.1875 C 572.292969 214.105469 565.230469 224.039062 558.164062 233.964844 C 553.832031 240.058594 549.496094 246.148438 545.148438 252.242188 L 528.863281 254.949219 " fill-opacity="1" fill-rule="nonzero"/><path fill="#596fbf" d="M 924.652344 492.375 L 881.4375 441.808594 C 879.785156 439.871094 880.015625 436.957031 881.949219 435.308594 L 939.527344 386.105469 C 941.464844 384.449219 944.375 384.679688 946.027344 386.617188 L 989.234375 437.183594 C 990.117188 438.207031 989.992188 439.746094 988.96875 440.621094 L 928.089844 492.644531 C 927.0625 493.523438 925.523438 493.40625 924.652344 492.375 " fill-opacity="1" fill-rule="nonzero"/><path fill="#ffffff" d="M 926.671875 491.367188 L 921.714844 487.234375 L 882.679688 439.890625 C 881.9375 439.019531 882.042969 437.71875 882.90625 436.984375 L 941.035156 387.3125 C 941.898438 386.574219 943.199219 386.675781 943.9375 387.542969 L 985.550781 433.605469 L 987.921875 439.019531 L 926.671875 491.367188 " fill-opacity="1" fill-rule="nonzero"/><path fill="#5457b0" d="M 920.390625 487.390625 L 877.175781 436.816406 C 875.523438 434.882812 875.75 431.972656 877.6875 430.320312 L 935.265625 381.121094 C 937.203125 379.460938 940.109375 379.691406 941.765625 381.625 L 984.972656 432.191406 C 985.847656 433.21875 985.730469 434.761719 984.707031 435.632812 L 923.824219 487.65625 C 922.800781 488.53125 921.261719 488.410156 920.390625 487.390625 " fill-opacity="1" fill-rule="nonzero"/><path fill="#596fbf" d="M 944.15625 384.425781 L 941.765625 381.625 C 940.109375 379.691406 937.203125 379.460938 935.265625 381.121094 L 877.6875 430.320312 C 875.75 431.972656 875.523438 434.882812 877.175781 436.816406 L 879.570312 439.621094 L 944.15625 384.425781 " fill-opacity="1" fill-rule="nonzero"/><path fill="#7c67ba" d="M 955.199219 435.628906 L 935.679688 412.785156 L 946.710938 403.359375 L 966.230469 426.207031 L 955.199219 435.628906 " fill-opacity="1" fill-rule="nonzero"/><path fill="#ffffff" d="M 876.242188 432.578125 C 876.265625 432.5 876.289062 432.417969 876.320312 432.335938 C 876.289062 432.417969 876.265625 432.5 876.242188 432.578125 M 877.6875 430.320312 L 886.992188 422.363281 L 887 422.363281 L 877.6875 430.320312 " fill-opacity="1" fill-rule="nonzero"/><path fill="#7572c0" d="M 978.597656 440.851562 C 970.503906 440.214844 962.414062 439.578125 954.320312 438.9375 C 933.070312 437.246094 911.824219 435.539062 890.578125 433.785156 C 889.304688 433.679688 888.039062 433.570312 886.769531 433.464844 L 898.691406 423.28125 L 900.582031 423.429688 C 916.367188 424.667969 932.15625 425.902344 947.953125 427.144531 L 955.199219 435.628906 L 963.6875 428.375 C 970.128906 428.882812 976.570312 429.394531 983.007812 429.898438 L 984.972656 432.191406 C 985.367188 432.65625 985.558594 433.21875 985.558594 433.777344 C 985.558594 434.46875 985.265625 435.152344 984.707031 435.632812 L 978.597656 440.851562 " fill-opacity="1" fill-rule="nonzero"/><path fill="#7c88cd" d="M 886.769531 433.464844 C 883.261719 433.171875 879.75 432.875 876.242188 432.578125 C 876.265625 432.5 876.289062 432.417969 876.320312 432.335938 C 876.574219 431.582031 877.03125 430.871094 877.6875 430.320312 L 887 422.363281 L 898.691406 423.28125 L 886.769531 433.464844 " fill-opacity="1" fill-rule="nonzero"/><path fill="#9782c9" d="M 955.199219 435.628906 L 947.953125 427.144531 C 951.960938 427.460938 955.960938 427.769531 959.964844 428.085938 C 961.207031 428.1875 962.445312 428.28125 963.6875 428.375 L 955.199219 435.628906 " fill-opacity="1" fill-rule="nonzero"/><path fill="#7c88cd" d="M 892.734375 455.027344 L 884.199219 445.035156 L 892.734375 455.027344 " fill-opacity="1" fill-rule="nonzero"/><path fill="#ffffff" d="M 953.75 462.089844 L 966.175781 451.46875 L 953.75 462.089844 " fill-opacity="1" fill-rule="nonzero"/><path fill="#7572c0" d="M 953.75 462.089844 C 941.59375 461.15625 929.445312 460.226562 917.296875 459.304688 C 909.839844 458.734375 902.382812 458.164062 894.921875 457.589844 L 892.734375 455.027344 L 884.199219 445.035156 L 885.675781 445.15625 L 960.589844 451.03125 L 966.175781 451.46875 L 953.75 462.089844 " fill-opacity="1" fill-rule="nonzero"/><path fill="#4845a4" d="M 560.019531 397.417969 L 503.652344 432.726562 C 501.496094 434.078125 498.648438 433.421875 497.292969 431.265625 L 457.09375 367.082031 C 455.746094 364.921875 456.398438 362.078125 458.550781 360.726562 L 514.921875 325.417969 C 516.0625 324.703125 517.574219 325.042969 518.285156 326.191406 L 560.792969 394.054688 C 561.503906 395.199219 561.160156 396.699219 560.019531 397.417969 " fill-opacity="1" fill-rule="nonzero"/><path fill="#ffffff" d="M 559.320312 395.269531 L 554.5 399.570312 L 501.9375 431.21875 C 500.972656 431.824219 499.703125 431.53125 499.09375 430.5625 L 458.507812 365.769531 C 457.910156 364.804688 458.199219 363.53125 459.164062 362.933594 L 510.84375 328.539062 L 516.542969 326.988281 L 559.320312 395.269531 " fill-opacity="1" fill-rule="nonzero"/><path fill="#793ea3" d="M 554.460938 400.898438 L 498.089844 436.210938 C 495.933594 437.558594 493.085938 436.90625 491.738281 434.746094 L 451.53125 370.5625 C 450.183594 368.40625 450.835938 365.558594 452.992188 364.210938 L 509.367188 328.898438 C 510.5 328.179688 512.011719 328.53125 512.722656 329.671875 L 555.230469 397.535156 C 555.949219 398.683594 555.605469 400.1875 554.460938 400.898438 " fill-opacity="1" fill-rule="nonzero"/><path fill="#4845a4" d="M 456.113281 362.253906 L 452.992188 364.210938 C 450.835938 365.558594 450.183594 368.40625 451.53125 370.5625 L 491.738281 434.746094 C 493.085938 436.90625 495.933594 437.558594 498.089844 436.210938 L 501.210938 434.253906 L 456.113281 362.253906 " fill-opacity="1" fill-rule="nonzero"/><path fill="#be39a4" d="M 508.382812 358.847656 L 482.921875 374.800781 L 475.222656 362.511719 L 500.683594 346.558594 L 508.382812 358.847656 " fill-opacity="1" fill-rule="nonzero"/><path fill="#ffffff" d="M 491.761719 434.789062 C 491.761719 434.789062 491.761719 434.789062 491.761719 434.785156 C 491.761719 434.789062 491.761719 434.789062 491.761719 434.789062 M 491.75 434.773438 C 491.75 434.773438 491.75 434.773438 491.75 434.765625 C 491.75 434.773438 491.75 434.773438 491.75 434.773438 " fill-opacity="1" fill-rule="nonzero"/><path fill="#6b61b6" d="M 509.378906 328.894531 C 509.382812 328.886719 509.382812 328.886719 509.390625 328.882812 C 509.382812 328.886719 509.382812 328.886719 509.378906 328.894531 M 509.394531 328.882812 C 509.789062 328.644531 510.222656 328.527344 510.648438 328.527344 C 510.222656 328.527344 509.789062 328.644531 509.394531 328.882812 M 510.660156 328.527344 C 510.660156 328.527344 510.65625 328.527344 510.65625 328.527344 C 510.65625 328.527344 510.660156 328.527344 510.660156 328.527344 " fill-opacity="1" fill-rule="nonzero"/><path fill="#9260b6" d="M 491.761719 434.789062 C 491.761719 434.789062 491.761719 434.789062 491.761719 434.785156 C 491.761719 434.789062 491.761719 434.789062 491.761719 434.789062 M 491.75 434.773438 C 491.75 434.773438 491.75 434.773438 491.75 434.765625 C 491.75 434.773438 491.75 434.773438 491.75 434.773438 M 496.183594 426.226562 L 487.863281 412.941406 L 488.289062 411.09375 C 491.832031 395.65625 495.378906 380.214844 498.921875 364.773438 L 508.382812 358.847656 L 502.460938 349.394531 C 503.902344 343.097656 505.355469 336.804688 506.796875 330.503906 L 509.367188 328.898438 C 509.367188 328.894531 509.371094 328.894531 509.378906 328.894531 C 509.382812 328.886719 509.382812 328.886719 509.390625 328.882812 C 509.390625 328.882812 509.394531 328.882812 509.394531 328.882812 C 509.789062 328.644531 510.222656 328.527344 510.648438 328.527344 C 510.648438 328.527344 510.65625 328.527344 510.65625 328.527344 C 510.65625 328.527344 510.660156 328.527344 510.660156 328.527344 C 511.453125 328.527344 512.21875 328.910156 512.6875 329.613281 C 512.6875 329.621094 512.695312 329.625 512.699219 329.632812 C 512.699219 329.636719 512.707031 329.644531 512.710938 329.648438 C 512.71875 329.65625 512.71875 329.660156 512.722656 329.671875 L 516.992188 336.484375 C 515.164062 344.390625 513.347656 352.304688 511.523438 360.210938 C 506.734375 380.984375 501.917969 401.75 497.058594 422.503906 C 496.765625 423.746094 496.472656 424.988281 496.183594 426.226562 " fill-opacity="1" fill-rule="nonzero"/><path fill="#6b61b6" d="M 493.765625 436.507812 C 492.972656 436.15625 492.277344 435.585938 491.773438 434.808594 C 491.765625 434.800781 491.765625 434.796875 491.761719 434.789062 C 491.761719 434.789062 491.761719 434.789062 491.761719 434.785156 C 491.753906 434.785156 491.753906 434.777344 491.75 434.773438 C 491.75 434.773438 491.75 434.773438 491.75 434.765625 C 491.742188 434.761719 491.738281 434.753906 491.738281 434.746094 L 485.234375 424.371094 L 487.863281 412.941406 L 496.183594 426.226562 C 495.375 429.65625 494.566406 433.082031 493.765625 436.507812 " fill-opacity="1" fill-rule="nonzero"/><path fill="#cb62b8" d="M 498.921875 364.773438 C 499.828125 360.863281 500.722656 356.949219 501.621094 353.035156 C 501.902344 351.816406 502.179688 350.605469 502.460938 349.394531 L 508.382812 358.847656 L 498.921875 364.773438 " fill-opacity="1" fill-rule="nonzero"/><path fill="#ffffff" d="M 507.253906 430.46875 L 520.246094 422.332031 L 507.253906 430.46875 " fill-opacity="1" fill-rule="nonzero"/><path fill="#ffffff" d="M 534.339844 364.179688 L 525.660156 350.332031 L 525.660156 350.328125 L 534.339844 364.179688 " fill-opacity="1" fill-rule="nonzero"/><path fill="#9260b6" d="M 507.253906 430.46875 L 507.582031 429.03125 L 524.40625 355.789062 L 525.660156 350.332031 L 534.339844 364.179688 C 531.632812 376.066406 528.929688 387.941406 526.226562 399.828125 C 524.566406 407.117188 522.902344 414.414062 521.246094 421.707031 L 520.246094 422.332031 L 507.253906 430.46875 " fill-opacity="1" fill-rule="nonzero"/><path fill="#353132" d="M 905.417969 583.464844 L 518.535156 583.464844 C 513.699219 583.464844 510.726562 577.421875 513.234375 572.695312 L 560.839844 483.050781 C 561.964844 480.941406 563.972656 479.644531 566.136719 479.644531 L 856.25 479.644531 C 858.382812 479.644531 860.363281 480.898438 861.496094 482.960938 L 910.671875 572.613281 C 913.261719 577.332031 910.292969 583.464844 905.417969 583.464844 " fill-opacity="1" fill-rule="nonzero"/><path fill="#353132" d="M 911.582031 577.25 L 512.324219 577.25 L 512.324219 567.175781 L 911.582031 567.175781 L 911.582031 577.25 " fill-opacity="1" fill-rule="nonzero"/><path fill="#648fa3" d="M 905.417969 575.738281 L 518.535156 575.738281 C 513.699219 575.738281 510.726562 569.695312 513.234375 564.976562 L 560.839844 475.324219 C 561.964844 473.207031 563.972656 471.917969 566.136719 471.917969 L 856.25 471.917969 C 858.382812 471.917969 860.363281 473.171875 861.496094 475.234375 L 910.671875 564.886719 C 913.261719 569.605469 910.292969 575.738281 905.417969 575.738281 " fill-opacity="1" fill-rule="nonzero"/><path fill="#353132" d="M 853.796875 472.375 L 574.582031 472.375 C 564.328125 472.375 555.941406 463.984375 555.941406 453.738281 L 555.941406 290.628906 C 555.941406 280.378906 564.328125 271.992188 574.582031 271.992188 L 853.796875 271.992188 C 864.046875 271.992188 872.433594 280.378906 872.433594 290.628906 L 872.433594 453.738281 C 872.433594 463.984375 864.046875 472.375 853.796875 472.375 " fill-opacity="1" fill-rule="nonzero"/><path fill="#ffffff" d="M 854.800781 457.148438 L 573.578125 457.148438 C 571.941406 457.148438 570.609375 455.8125 570.609375 454.183594 L 570.609375 290.183594 C 570.609375 288.550781 571.941406 287.21875 573.578125 287.21875 L 854.800781 287.21875 C 856.433594 287.21875 857.765625 288.550781 857.765625 290.183594 L 857.765625 454.183594 C 857.765625 455.8125 856.433594 457.148438 854.800781 457.148438 " fill-opacity="1" fill-rule="nonzero"/><path fill="#e5f7fd" d="M 841.820312 449.304688 L 586.554688 449.304688 C 585.078125 449.304688 583.863281 448.089844 583.863281 446.609375 L 583.863281 297.757812 C 583.863281 296.269531 585.078125 295.058594 586.554688 295.058594 L 841.820312 295.058594 C 843.300781 295.058594 844.511719 296.269531 844.511719 297.757812 L 844.511719 446.609375 C 844.511719 448.089844 843.300781 449.304688 841.820312 449.304688 " fill-opacity="1" fill-rule="nonzero"/><path fill="#868e93" d="M 844.511719 304.9375 L 844.511719 297.757812 C 844.511719 296.269531 843.300781 295.058594 841.820312 295.058594 L 586.554688 295.058594 C 585.078125 295.058594 583.863281 296.269531 583.863281 297.757812 L 583.863281 304.9375 L 844.511719 304.9375 " fill-opacity="1" fill-rule="nonzero"/><path fill="#ee2826" d="M 840.976562 299.996094 C 840.976562 301.292969 839.929688 302.34375 838.628906 302.34375 C 837.332031 302.34375 836.28125 301.292969 836.28125 299.996094 C 836.28125 298.703125 837.332031 297.648438 838.628906 297.648438 C 839.929688 297.648438 840.976562 298.703125 840.976562 299.996094 " fill-opacity="1" fill-rule="nonzero"/><path fill="#fff30a" d="M 833.171875 299.996094 C 833.171875 301.292969 832.121094 302.34375 830.832031 302.34375 C 829.527344 302.34375 828.476562 301.292969 828.476562 299.996094 C 828.476562 298.703125 829.527344 297.648438 830.832031 297.648438 C 832.121094 297.648438 833.171875 298.703125 833.171875 299.996094 " fill-opacity="1" fill-rule="nonzero"/><path fill="#54bf3d" d="M 826.1875 299.996094 C 826.1875 301.292969 825.136719 302.34375 823.839844 302.34375 C 822.546875 302.34375 821.492188 301.292969 821.492188 299.996094 C 821.492188 298.703125 822.546875 297.648438 823.839844 297.648438 C 825.136719 297.648438 826.1875 298.703125 826.1875 299.996094 " fill-opacity="1" fill-rule="nonzero"/><path fill="#636061" d="M 555.941406 448.828125 L 555.941406 384.363281 C 560.832031 379.457031 565.71875 374.546875 570.609375 369.636719 L 570.609375 434.175781 C 565.71875 439.0625 560.832031 443.941406 555.941406 448.828125 M 718.289062 287.21875 L 652.949219 287.21875 C 654.398438 285.769531 655.855469 284.316406 657.3125 282.867188 C 660.953125 279.242188 664.609375 275.617188 668.257812 271.992188 L 733.664062 271.992188 C 728.539062 277.066406 723.417969 282.144531 718.289062 287.21875 " fill-opacity="1" fill-rule="nonzero"/><path fill="#ffffff" d="M 570.609375 434.175781 L 570.609375 369.636719 C 575.027344 365.195312 579.449219 360.769531 583.863281 356.328125 L 583.863281 420.941406 C 583.042969 421.761719 582.222656 422.582031 581.402344 423.394531 C 577.808594 426.992188 574.207031 430.582031 570.609375 434.175781 M 710.378906 295.058594 L 645.078125 295.058594 C 647.699219 292.441406 650.320312 289.832031 652.949219 287.21875 L 718.289062 287.21875 C 716.078125 289.410156 713.867188 291.605469 711.65625 293.792969 C 711.226562 294.214844 710.804688 294.636719 710.378906 295.058594 " fill-opacity="1" fill-rule="nonzero"/><path fill="#ebf9fe" d="M 583.863281 420.941406 L 583.863281 356.328125 C 589.675781 350.5 595.488281 344.667969 601.308594 338.84375 C 612.59375 327.527344 623.886719 316.230469 635.191406 304.9375 L 700.421875 304.9375 C 682.445312 322.777344 664.484375 340.632812 646.53125 358.492188 C 625.628906 379.296875 604.742188 400.113281 583.863281 420.941406 " fill-opacity="1" fill-rule="nonzero"/><path fill="#a0a8ac" d="M 700.421875 304.9375 L 635.191406 304.9375 C 638.484375 301.644531 641.78125 298.351562 645.078125 295.058594 L 710.378906 295.058594 C 707.054688 298.351562 703.738281 301.644531 700.421875 304.9375 " fill-opacity="1" fill-rule="nonzero"/><path fill="#636061" d="M 650.832031 472.375 L 581.117188 472.375 C 586.195312 467.300781 591.269531 462.226562 596.339844 457.148438 L 666.054688 457.148438 L 650.832031 472.375 M 835.976562 287.21875 L 766.261719 287.21875 C 771.339844 282.144531 776.414062 277.066406 781.488281 271.992188 L 851.203125 271.992188 L 835.976562 287.21875 " fill-opacity="1" fill-rule="nonzero"/><path fill="#ffffff" d="M 666.054688 457.148438 L 596.339844 457.148438 C 598.953125 454.535156 601.570312 451.917969 604.183594 449.304688 L 673.898438 449.304688 L 666.054688 457.148438 M 828.136719 295.058594 L 758.417969 295.058594 C 761.03125 292.449219 763.648438 289.832031 766.261719 287.21875 L 835.976562 287.21875 L 828.136719 295.058594 " fill-opacity="1" fill-rule="nonzero"/><path fill="#ebf9fe" d="M 673.898438 449.304688 L 604.183594 449.304688 C 618.859375 434.628906 633.539062 419.949219 648.210938 405.273438 C 679.644531 373.832031 711.085938 342.398438 742.519531 310.960938 C 744.527344 308.953125 746.535156 306.945312 748.546875 304.9375 L 818.261719 304.9375 L 673.898438 449.304688 " fill-opacity="1" fill-rule="nonzero"/><path fill="#a0a8ac" d="M 818.261719 304.9375 L 748.546875 304.9375 C 751.839844 301.644531 755.125 298.351562 758.417969 295.058594 L 828.136719 295.058594 L 825.148438 298.046875 C 824.773438 297.796875 824.324219 297.648438 823.839844 297.648438 C 822.546875 297.648438 821.492188 298.703125 821.492188 299.996094 C 821.492188 300.484375 821.640625 300.929688 821.890625 301.304688 L 818.261719 304.9375 " fill-opacity="1" fill-rule="nonzero"/><path fill="#7cce5f" d="M 821.890625 301.304688 C 821.640625 300.929688 821.492188 300.484375 821.492188 299.996094 C 821.492188 298.703125 822.546875 297.648438 823.839844 297.648438 C 824.324219 297.648438 824.773438 297.796875 825.148438 298.046875 L 821.890625 301.304688 " fill-opacity="1" fill-rule="nonzero"/><path fill="#353132" d="M 598.132812 491.960938 L 584.492188 491.960938 L 588.808594 483.777344 L 602.003906 483.777344 L 598.132812 491.960938 " fill-opacity="1" fill-rule="nonzero"/><path fill="#353132" d="M 590.710938 507.539062 L 576.214844 507.539062 L 580.570312 499.355469 L 594.621094 499.355469 L 590.710938 507.539062 " fill-opacity="1" fill-rule="nonzero"/><path fill="#353132" d="M 574.296875 541.601562 L 557.878906 541.601562 L 562.308594 533.417969 L 578.257812 533.417969 L 574.296875 541.601562 " fill-opacity="1" fill-rule="nonzero"/><path fill="#353132" d="M 595.066406 541.601562 L 578.644531 541.601562 L 582.484375 533.417969 L 598.4375 533.417969 L 595.066406 541.601562 " fill-opacity="1" fill-rule="nonzero"/><path fill="#353132" d="M 723.078125 541.601562 L 706.664062 541.601562 L 706.867188 533.417969 L 722.816406 533.417969 L 723.078125 541.601562 " fill-opacity="1" fill-rule="nonzero"/><path fill="#353132" d="M 745.8125 541.601562 L 729.390625 541.601562 L 728.945312 533.417969 L 744.902344 533.417969 L 745.8125 541.601562 " fill-opacity="1" fill-rule="nonzero"/><path fill="#353132" d="M 616.433594 541.601562 L 600.011719 541.601562 L 603.246094 533.417969 L 619.203125 533.417969 L 616.433594 541.601562 " fill-opacity="1" fill-rule="nonzero"/><path fill="#353132" d="M 701.332031 541.601562 L 622.203125 541.601562 L 624.808594 533.417969 L 701.6875 533.417969 L 701.332031 541.601562 " fill-opacity="1" fill-rule="nonzero"/><path fill="#353132" d="M 593.128906 518.890625 L 570.136719 518.890625 L 574.519531 510.707031 L 596.820312 510.707031 L 593.128906 518.890625 " fill-opacity="1" fill-rule="nonzero"/><path fill="#353132" d="M 586.503906 530.242188 L 564.019531 530.242188 L 568.429688 522.058594 L 590.253906 522.058594 L 586.503906 530.242188 " fill-opacity="1" fill-rule="nonzero"/><path fill="#353132" d="M 635.183594 491.960938 L 621.542969 491.960938 L 624.652344 483.777344 L 637.847656 483.777344 L 635.183594 491.960938 " fill-opacity="1" fill-rule="nonzero"/><path fill="#353132" d="M 653.226562 491.960938 L 639.589844 491.960938 L 642.109375 483.777344 L 655.300781 483.777344 L 653.226562 491.960938 " fill-opacity="1" fill-rule="nonzero"/><path fill="#353132" d="M 672.128906 491.960938 L 658.488281 491.960938 L 660.390625 483.777344 L 673.582031 483.777344 L 672.128906 491.960938 " fill-opacity="1" fill-rule="nonzero"/><path fill="#353132" d="M 691.996094 491.960938 L 678.355469 491.960938 L 679.609375 483.777344 L 692.804688 483.777344 L 691.996094 491.960938 " fill-opacity="1" fill-rule="nonzero"/><path fill="#353132" d="M 613.828125 507.539062 L 599.335938 507.539062 L 602.972656 499.355469 L 617.015625 499.355469 L 613.828125 507.539062 " fill-opacity="1" fill-rule="nonzero"/><path fill="#353132" d="M 633.015625 507.539062 L 618.511719 507.539062 L 621.550781 499.355469 L 635.59375 499.355469 L 633.015625 507.539062 " fill-opacity="1" fill-rule="nonzero"/><path fill="#353132" d="M 653.101562 507.539062 L 638.601562 507.539062 L 641.015625 499.355469 L 655.058594 499.355469 L 653.101562 507.539062 " fill-opacity="1" fill-rule="nonzero"/><path fill="#353132" d="M 674.226562 507.539062 L 659.722656 507.539062 L 661.476562 499.355469 L 675.519531 499.355469 L 674.226562 507.539062 " fill-opacity="1" fill-rule="nonzero"/><path fill="#353132" d="M 694.597656 507.539062 L 680.097656 507.539062 L 681.214844 499.355469 L 695.257812 499.355469 L 694.597656 507.539062 " fill-opacity="1" fill-rule="nonzero"/><path fill="#353132" d="M 715.722656 507.539062 L 701.226562 507.539062 L 701.675781 499.355469 L 715.722656 499.355469 L 715.722656 507.539062 " fill-opacity="1" fill-rule="nonzero"/><path fill="#353132" d="M 734.898438 507.539062 L 720.40625 507.539062 L 720.253906 499.355469 L 734.300781 499.355469 L 734.898438 507.539062 " fill-opacity="1" fill-rule="nonzero"/><path fill="#353132" d="M 754.996094 507.539062 L 740.492188 507.539062 L 739.714844 499.355469 L 753.765625 499.355469 L 754.996094 507.539062 " fill-opacity="1" fill-rule="nonzero"/><path fill="#353132" d="M 776.109375 507.539062 L 739.695312 507.539062 L 738.949219 499.355469 L 774.21875 499.355469 L 776.109375 507.539062 " fill-opacity="1" fill-rule="nonzero"/><path fill="#353132" d="M 784.269531 541.601562 L 750.269531 541.601562 L 749.234375 533.417969 L 782.269531 533.417969 L 784.269531 541.601562 " fill-opacity="1" fill-rule="nonzero"/><path fill="#353132" d="M 781.5 530.242188 L 755.546875 530.242188 L 754.109375 520.476562 L 747.636719 520.476562 L 746.460938 510.707031 L 776.847656 510.707031 L 781.5 530.242188 " fill-opacity="1" fill-rule="nonzero"/><path fill="#353132" d="M 614.402344 518.890625 L 599.269531 518.890625 L 602.777344 510.707031 L 617.449219 510.707031 L 614.402344 518.890625 " fill-opacity="1" fill-rule="nonzero"/><path fill="#353132" d="M 634.421875 518.890625 L 619.292969 518.890625 L 622.191406 510.707031 L 636.859375 510.707031 L 634.421875 518.890625 " fill-opacity="1" fill-rule="nonzero"/><path fill="#353132" d="M 655.390625 518.890625 L 640.253906 518.890625 L 642.523438 510.707031 L 657.199219 510.707031 L 655.390625 518.890625 " fill-opacity="1" fill-rule="nonzero"/><path fill="#353132" d="M 677.433594 518.890625 L 662.304688 518.890625 L 663.902344 510.707031 L 678.574219 510.707031 L 677.433594 518.890625 " fill-opacity="1" fill-rule="nonzero"/><path fill="#353132" d="M 698.707031 518.890625 L 683.566406 518.890625 L 684.523438 510.707031 L 699.199219 510.707031 L 698.707031 518.890625 " fill-opacity="1" fill-rule="nonzero"/><path fill="#353132" d="M 720.75 518.890625 L 705.617188 518.890625 L 705.902344 510.707031 L 720.578125 510.707031 L 720.75 518.890625 " fill-opacity="1" fill-rule="nonzero"/><path fill="#353132" d="M 740.773438 518.890625 L 725.632812 518.890625 L 725.3125 510.707031 L 739.992188 510.707031 L 740.773438 518.890625 " fill-opacity="1" fill-rule="nonzero"/><path fill="#353132" d="M 610.007812 530.242188 L 594.230469 530.242188 L 597.757812 522.058594 L 613.070312 522.058594 L 610.007812 530.242188 " fill-opacity="1" fill-rule="nonzero"/><path fill="#353132" d="M 630.875 530.242188 L 615.097656 530.242188 L 618.015625 522.058594 L 633.324219 522.058594 L 630.875 530.242188 " fill-opacity="1" fill-rule="nonzero"/><path fill="#353132" d="M 652.730469 530.242188 L 636.957031 530.242188 L 639.226562 522.058594 L 654.542969 522.058594 L 652.730469 530.242188 " fill-opacity="1" fill-rule="nonzero"/><path fill="#353132" d="M 675.707031 530.242188 L 659.933594 530.242188 L 661.53125 522.058594 L 676.839844 522.058594 L 675.707031 530.242188 " fill-opacity="1" fill-rule="nonzero"/><path fill="#353132" d="M 697.878906 530.242188 L 682.101562 530.242188 L 683.050781 522.058594 L 698.359375 522.058594 L 697.878906 530.242188 " fill-opacity="1" fill-rule="nonzero"/><path fill="#353132" d="M 720.855469 530.242188 L 705.082031 530.242188 L 705.355469 522.058594 L 720.671875 522.058594 L 720.855469 530.242188 " fill-opacity="1" fill-rule="nonzero"/><path fill="#353132" d="M 741.722656 530.242188 L 725.949219 530.242188 L 725.609375 522.058594 L 740.925781 522.058594 L 741.722656 530.242188 " fill-opacity="1" fill-rule="nonzero"/><path fill="#353132" d="M 715.734375 491.960938 L 702.097656 491.960938 L 702.570312 483.777344 L 715.769531 483.777344 L 715.734375 491.960938 " fill-opacity="1" fill-rule="nonzero"/><path fill="#353132" d="M 733.777344 491.960938 L 720.136719 491.960938 L 720.023438 483.777344 L 733.21875 483.777344 L 733.777344 491.960938 " fill-opacity="1" fill-rule="nonzero"/><path fill="#353132" d="M 752.675781 491.960938 L 739.035156 491.960938 L 738.304688 483.777344 L 751.503906 483.777344 L 752.675781 491.960938 " fill-opacity="1" fill-rule="nonzero"/><path fill="#353132" d="M 772.550781 491.960938 L 758.90625 491.960938 L 757.527344 483.777344 L 770.726562 483.777344 L 772.550781 491.960938 " fill-opacity="1" fill-rule="nonzero"/><path fill="#353132" d="M 802.175781 491.960938 L 788.539062 491.960938 L 786.191406 483.777344 L 799.382812 483.777344 L 802.175781 491.960938 " fill-opacity="1" fill-rule="nonzero"/><path fill="#353132" d="M 821.078125 491.960938 L 807.4375 491.960938 L 804.472656 483.777344 L 817.671875 483.777344 L 821.078125 491.960938 " fill-opacity="1" fill-rule="nonzero"/><path fill="#353132" d="M 840.945312 491.960938 L 827.304688 491.960938 L 823.691406 483.777344 L 836.886719 483.777344 L 840.945312 491.960938 " fill-opacity="1" fill-rule="nonzero"/><path fill="#353132" d="M 807.09375 507.539062 L 792.597656 507.539062 L 790.191406 499.355469 L 804.234375 499.355469 L 807.09375 507.539062 " fill-opacity="1" fill-rule="nonzero"/><path fill="#353132" d="M 827.179688 507.539062 L 812.683594 507.539062 L 809.65625 499.355469 L 823.699219 499.355469 L 827.179688 507.539062 " fill-opacity="1" fill-rule="nonzero"/><path fill="#353132" d="M 848.304688 507.539062 L 833.800781 507.539062 L 830.109375 499.355469 L 844.15625 499.355469 L 848.304688 507.539062 " fill-opacity="1" fill-rule="nonzero"/><path fill="#353132" d="M 811.117188 518.890625 L 795.984375 518.890625 L 793.53125 510.707031 L 808.203125 510.707031 L 811.117188 518.890625 " fill-opacity="1" fill-rule="nonzero"/><path fill="#353132" d="M 832.085938 518.890625 L 816.953125 518.890625 L 813.863281 510.707031 L 828.542969 510.707031 L 832.085938 518.890625 " fill-opacity="1" fill-rule="nonzero"/><path fill="#353132" d="M 860.042969 530.242188 L 844.269531 530.242188 L 835.238281 510.707031 L 849.917969 510.707031 L 860.042969 530.242188 " fill-opacity="1" fill-rule="nonzero"/><path fill="#353132" d="M 815.207031 530.242188 L 799.433594 530.242188 L 796.9375 522.058594 L 812.25 522.058594 L 815.207031 530.242188 " fill-opacity="1" fill-rule="nonzero"/><path fill="#353132" d="M 837.066406 530.242188 L 821.292969 530.242188 L 818.152344 522.058594 L 833.46875 522.058594 L 837.066406 530.242188 " fill-opacity="1" fill-rule="nonzero"/><path fill="#353132" d="M 842.109375 541.601562 L 802.9375 541.601562 L 800.40625 533.417969 L 838.46875 533.417969 L 842.109375 541.601562 " fill-opacity="1" fill-rule="nonzero"/><path fill="#353132" d="M 866.03125 541.601562 L 849.605469 541.601562 L 845.753906 533.417969 L 861.707031 533.417969 L 866.03125 541.601562 " fill-opacity="1" fill-rule="nonzero"/><path fill="#bdbcbc" d="M 598.75 489.980469 L 585.175781 489.980469 L 589.488281 481.796875 L 602.621094 481.796875 L 598.75 489.980469 " fill-opacity="1" fill-rule="nonzero"/><path fill="#bdbcbc" d="M 591.339844 505.558594 L 576.910156 505.558594 L 581.261719 497.375 L 595.246094 497.375 L 591.339844 505.558594 " fill-opacity="1" fill-rule="nonzero"/><path fill="#bdbcbc" d="M 574.949219 539.613281 L 558.59375 539.613281 L 563.019531 531.429688 L 578.90625 531.429688 L 574.949219 539.613281 " fill-opacity="1" fill-rule="nonzero"/><path fill="#bdbcbc" d="M 595.625 539.613281 L 579.277344 539.613281 L 583.109375 531.429688 L 598.996094 531.429688 L 595.625 539.613281 " fill-opacity="1" fill-rule="nonzero"/><path fill="#bdbcbc" d="M 723.109375 539.613281 L 706.753906 539.613281 L 706.960938 531.429688 L 722.847656 531.429688 L 723.109375 539.613281 " fill-opacity="1" fill-rule="nonzero"/><path fill="#bdbcbc" d="M 745.742188 539.613281 L 729.382812 539.613281 L 728.949219 531.429688 L 744.832031 531.429688 L 745.742188 539.613281 " fill-opacity="1" fill-rule="nonzero"/><path fill="#bdbcbc" d="M 616.902344 539.613281 L 600.550781 539.613281 L 603.78125 531.429688 L 619.671875 531.429688 L 616.902344 539.613281 " fill-opacity="1" fill-rule="nonzero"/><path fill="#bdbcbc" d="M 701.453125 539.613281 L 622.648438 539.613281 L 625.253906 531.429688 L 701.808594 531.429688 L 701.453125 539.613281 " fill-opacity="1" fill-rule="nonzero"/><path fill="#bdbcbc" d="M 593.734375 516.910156 L 570.835938 516.910156 L 575.214844 508.726562 L 597.421875 508.726562 L 593.734375 516.910156 " fill-opacity="1" fill-rule="nonzero"/><path fill="#bdbcbc" d="M 587.113281 528.261719 L 564.726562 528.261719 L 569.136719 520.078125 L 590.859375 520.078125 L 587.113281 528.261719 " fill-opacity="1" fill-rule="nonzero"/><path fill="#bdbcbc" d="M 635.636719 489.980469 L 622.0625 489.980469 L 625.15625 481.796875 L 638.292969 481.796875 L 635.636719 489.980469 " fill-opacity="1" fill-rule="nonzero"/><path fill="#bdbcbc" d="M 653.597656 489.980469 L 640.015625 489.980469 L 642.535156 481.796875 L 655.664062 481.796875 L 653.597656 489.980469 " fill-opacity="1" fill-rule="nonzero"/><path fill="#bdbcbc" d="M 672.40625 489.980469 L 658.832031 489.980469 L 660.734375 481.796875 L 673.863281 481.796875 L 672.40625 489.980469 " fill-opacity="1" fill-rule="nonzero"/><path fill="#bdbcbc" d="M 692.1875 489.980469 L 678.605469 489.980469 L 679.859375 481.796875 L 692.992188 481.796875 L 692.1875 489.980469 " fill-opacity="1" fill-rule="nonzero"/><path fill="#bdbcbc" d="M 614.359375 505.558594 L 599.929688 505.558594 L 603.558594 497.375 L 617.539062 497.375 L 614.359375 505.558594 " fill-opacity="1" fill-rule="nonzero"/><path fill="#bdbcbc" d="M 633.453125 505.558594 L 619.019531 505.558594 L 622.054688 497.375 L 636.035156 497.375 L 633.453125 505.558594 " fill-opacity="1" fill-rule="nonzero"/><path fill="#bdbcbc" d="M 653.453125 505.558594 L 639.015625 505.558594 L 641.425781 497.375 L 655.410156 497.375 L 653.453125 505.558594 " fill-opacity="1" fill-rule="nonzero"/><path fill="#bdbcbc" d="M 674.480469 505.558594 L 660.042969 505.558594 L 661.792969 497.375 L 675.777344 497.375 L 674.480469 505.558594 " fill-opacity="1" fill-rule="nonzero"/><path fill="#bdbcbc" d="M 694.765625 505.558594 L 680.328125 505.558594 L 681.445312 497.375 L 695.429688 497.375 L 694.765625 505.558594 " fill-opacity="1" fill-rule="nonzero"/><path fill="#bdbcbc" d="M 715.792969 505.558594 L 701.355469 505.558594 L 701.8125 497.375 L 715.796875 497.375 L 715.792969 505.558594 " fill-opacity="1" fill-rule="nonzero"/><path fill="#bdbcbc" d="M 734.886719 505.558594 L 720.453125 505.558594 L 720.308594 497.375 L 734.292969 497.375 L 734.886719 505.558594 " fill-opacity="1" fill-rule="nonzero"/><path fill="#bdbcbc" d="M 754.886719 505.558594 L 740.449219 505.558594 L 739.683594 497.375 L 753.664062 497.375 L 754.886719 505.558594 " fill-opacity="1" fill-rule="nonzero"/><path fill="#bdbcbc" d="M 775.910156 505.558594 L 739.660156 505.558594 L 738.910156 497.375 L 774.03125 497.375 L 775.910156 505.558594 " fill-opacity="1" fill-rule="nonzero"/><path fill="#bdbcbc" d="M 784.039062 539.613281 L 750.179688 539.613281 L 749.152344 531.429688 L 782.042969 531.429688 L 784.039062 539.613281 " fill-opacity="1" fill-rule="nonzero"/><path fill="#bdbcbc" d="M 781.273438 528.261719 L 755.433594 528.261719 L 754 518.496094 L 747.558594 518.496094 L 746.394531 508.726562 L 776.644531 508.726562 L 781.273438 528.261719 " fill-opacity="1" fill-rule="nonzero"/><path fill="#bdbcbc" d="M 614.910156 516.910156 L 599.84375 516.910156 L 603.347656 508.726562 L 617.953125 508.726562 L 614.910156 516.910156 " fill-opacity="1" fill-rule="nonzero"/><path fill="#bdbcbc" d="M 634.84375 516.910156 L 619.777344 516.910156 L 622.671875 508.726562 L 637.28125 508.726562 L 634.84375 516.910156 " fill-opacity="1" fill-rule="nonzero"/><path fill="#bdbcbc" d="M 655.722656 516.910156 L 640.652344 516.910156 L 642.917969 508.726562 L 657.523438 508.726562 L 655.722656 516.910156 " fill-opacity="1" fill-rule="nonzero"/><path fill="#bdbcbc" d="M 677.667969 516.910156 L 662.601562 516.910156 L 664.199219 508.726562 L 678.808594 508.726562 L 677.667969 516.910156 " fill-opacity="1" fill-rule="nonzero"/><path fill="#bdbcbc" d="M 698.84375 516.910156 L 683.777344 516.910156 L 684.734375 508.726562 L 699.339844 508.726562 L 698.84375 516.910156 " fill-opacity="1" fill-rule="nonzero"/><path fill="#bdbcbc" d="M 720.789062 516.910156 L 705.722656 516.910156 L 706.015625 508.726562 L 720.625 508.726562 L 720.789062 516.910156 " fill-opacity="1" fill-rule="nonzero"/><path fill="#bdbcbc" d="M 740.722656 516.910156 L 725.660156 516.910156 L 725.34375 508.726562 L 739.953125 508.726562 L 740.722656 516.910156 " fill-opacity="1" fill-rule="nonzero"/><path fill="#bdbcbc" d="M 610.519531 528.261719 L 594.8125 528.261719 L 598.335938 520.078125 L 613.582031 520.078125 L 610.519531 528.261719 " fill-opacity="1" fill-rule="nonzero"/><path fill="#bdbcbc" d="M 631.296875 528.261719 L 615.589844 528.261719 L 618.5 520.078125 L 633.746094 520.078125 L 631.296875 528.261719 " fill-opacity="1" fill-rule="nonzero"/><path fill="#bdbcbc" d="M 653.0625 528.261719 L 637.351562 528.261719 L 639.625 520.078125 L 654.867188 520.078125 L 653.0625 528.261719 " fill-opacity="1" fill-rule="nonzero"/><path fill="#bdbcbc" d="M 675.9375 528.261719 L 660.230469 528.261719 L 661.832031 520.078125 L 677.078125 520.078125 L 675.9375 528.261719 " fill-opacity="1" fill-rule="nonzero"/><path fill="#bdbcbc" d="M 698.015625 528.261719 L 682.308594 528.261719 L 683.257812 520.078125 L 698.503906 520.078125 L 698.015625 528.261719 " fill-opacity="1" fill-rule="nonzero"/><path fill="#bdbcbc" d="M 720.898438 528.261719 L 705.191406 528.261719 L 705.46875 520.078125 L 720.714844 520.078125 L 720.898438 528.261719 " fill-opacity="1" fill-rule="nonzero"/><path fill="#bdbcbc" d="M 741.675781 528.261719 L 725.96875 528.261719 L 725.628906 520.078125 L 740.878906 520.078125 L 741.675781 528.261719 " fill-opacity="1" fill-rule="nonzero"/><path fill="#bdbcbc" d="M 715.816406 489.980469 L 702.234375 489.980469 L 702.71875 481.796875 L 715.847656 481.796875 L 715.816406 489.980469 " fill-opacity="1" fill-rule="nonzero"/><path fill="#bdbcbc" d="M 733.769531 489.980469 L 720.195312 489.980469 L 720.089844 481.796875 L 733.21875 481.796875 L 733.769531 489.980469 " fill-opacity="1" fill-rule="nonzero"/><path fill="#bdbcbc" d="M 752.585938 489.980469 L 739.007812 489.980469 L 738.28125 481.796875 L 751.417969 481.796875 L 752.585938 489.980469 " fill-opacity="1" fill-rule="nonzero"/><path fill="#bdbcbc" d="M 772.359375 489.980469 L 758.785156 489.980469 L 757.414062 481.796875 L 770.546875 481.796875 L 772.359375 489.980469 " fill-opacity="1" fill-rule="nonzero"/><path fill="#bdbcbc" d="M 801.855469 489.980469 L 788.28125 489.980469 L 785.941406 481.796875 L 799.074219 481.796875 L 801.855469 489.980469 " fill-opacity="1" fill-rule="nonzero"/><path fill="#bdbcbc" d="M 820.667969 489.980469 L 807.09375 489.980469 L 804.140625 481.796875 L 817.269531 481.796875 L 820.667969 489.980469 " fill-opacity="1" fill-rule="nonzero"/><path fill="#bdbcbc" d="M 840.445312 489.980469 L 826.867188 489.980469 L 823.265625 481.796875 L 836.398438 481.796875 L 840.445312 489.980469 " fill-opacity="1" fill-rule="nonzero"/><path fill="#bdbcbc" d="M 806.753906 505.558594 L 792.316406 505.558594 L 789.929688 497.375 L 803.90625 497.375 L 806.753906 505.558594 " fill-opacity="1" fill-rule="nonzero"/><path fill="#bdbcbc" d="M 826.753906 505.558594 L 812.316406 505.558594 L 809.296875 497.375 L 823.28125 497.375 L 826.753906 505.558594 " fill-opacity="1" fill-rule="nonzero"/><path fill="#bdbcbc" d="M 847.773438 505.558594 L 833.34375 505.558594 L 829.664062 497.375 L 843.648438 497.375 L 847.773438 505.558594 " fill-opacity="1" fill-rule="nonzero"/><path fill="#bdbcbc" d="M 810.761719 516.910156 L 795.695312 516.910156 L 793.25 508.726562 L 807.867188 508.726562 L 810.761719 516.910156 " fill-opacity="1" fill-rule="nonzero"/><path fill="#bdbcbc" d="M 831.636719 516.910156 L 816.574219 516.910156 L 813.5 508.726562 L 828.109375 508.726562 L 831.636719 516.910156 " fill-opacity="1" fill-rule="nonzero"/><path fill="#bdbcbc" d="M 859.484375 528.261719 L 843.773438 528.261719 L 834.777344 508.726562 L 849.390625 508.726562 L 859.484375 528.261719 " fill-opacity="1" fill-rule="nonzero"/><path fill="#bdbcbc" d="M 814.835938 528.261719 L 799.136719 528.261719 L 796.652344 520.078125 L 811.894531 520.078125 L 814.835938 528.261719 " fill-opacity="1" fill-rule="nonzero"/><path fill="#bdbcbc" d="M 836.601562 528.261719 L 820.898438 528.261719 L 817.773438 520.078125 L 833.015625 520.078125 L 836.601562 528.261719 " fill-opacity="1" fill-rule="nonzero"/><path fill="#bdbcbc" d="M 841.636719 539.613281 L 802.625 539.613281 L 800.105469 531.429688 L 838.003906 531.429688 L 841.636719 539.613281 " fill-opacity="1" fill-rule="nonzero"/><path fill="#bdbcbc" d="M 865.457031 539.613281 L 849.101562 539.613281 L 845.253906 531.429688 L 861.140625 531.429688 L 865.457031 539.613281 " fill-opacity="1" fill-rule="nonzero"/><path fill="#bdbcbc" d="M 735.851562 567.839844 L 675.605469 567.839844 C 674.855469 567.839844 674.386719 566.6875 674.777344 565.789062 L 682.195312 548.71875 C 682.367188 548.316406 682.683594 548.074219 683.015625 548.074219 L 728.191406 548.074219 C 728.523438 548.074219 728.832031 548.308594 729.011719 548.703125 L 736.671875 565.773438 C 737.070312 566.671875 736.605469 567.839844 735.851562 567.839844 " fill-opacity="1" fill-rule="nonzero"/><path fill="#fbc83b" d="M 749.839844 377.613281 C 749.839844 355.867188 732.066406 338.273438 710.253906 338.582031 C 688.691406 338.886719 671.332031 356.898438 671.789062 378.457031 C 672.0625 391.242188 678.480469 402.511719 688.210938 409.433594 C 694.855469 414.160156 696.558594 420.972656 698.742188 428.824219 L 721.210938 428.824219 C 721.210938 428.824219 725.972656 414.433594 732.492188 410.070312 C 742.953125 403.070312 749.839844 391.144531 749.839844 377.613281 " fill-opacity="1" fill-rule="nonzero"/><path fill="#f9ad3b" d="M 712.964844 421.816406 C 699.40625 413.492188 686.867188 401.183594 682.335938 385.535156 C 678.636719 372.761719 681.15625 359.804688 685.863281 347.664062 C 677.066406 355.027344 671.527344 366.164062 671.789062 378.457031 C 672.0625 391.242188 678.480469 402.511719 688.210938 409.433594 C 694.855469 414.160156 696.558594 420.972656 698.742188 428.824219 L 721.210938 428.824219 C 721.210938 428.824219 721.480469 428.003906 721.980469 426.699219 C 718.890625 425.246094 715.875 423.605469 712.964844 421.816406 " fill-opacity="1" fill-rule="nonzero"/><path fill="#ffffff" d="M 741.46875 358.042969 C 744.910156 364.003906 745.378906 370.171875 742.519531 371.824219 C 739.660156 373.476562 734.550781 369.980469 731.109375 364.027344 C 727.667969 358.066406 727.199219 351.894531 730.054688 350.242188 C 732.921875 348.589844 738.027344 352.085938 741.46875 358.042969 " fill-opacity="1" fill-rule="nonzero"/><path fill="#ffffff" d="M 703.417969 426.9375 C 708.046875 413.957031 709.492188 400.550781 708.125 386.855469 C 707.804688 383.6875 703.910156 373.78125 699.839844 380.738281 C 693.183594 392.101562 713.742188 406.820312 720.054688 390.925781 C 721.207031 388.03125 721.117188 378.296875 715.933594 379.050781 C 711.945312 379.632812 712.183594 386.523438 712.054688 389.382812 C 711.792969 395.394531 712.386719 401.457031 713.058594 407.433594 C 713.722656 413.328125 713.039062 422.445312 717.785156 426.832031 C 718.816406 427.792969 720.375 426.242188 719.328125 425.28125 C 714.78125 421.066406 715.691406 411.289062 715.03125 405.535156 C 714.371094 399.730469 714.058594 393.84375 714.3125 388.007812 C 714.378906 386.511719 714.578125 385.03125 714.882812 383.5625 C 715.121094 381.613281 716.257812 381.921875 718.300781 384.488281 C 718.691406 386.46875 718.574219 388.425781 717.9375 390.34375 C 716.46875 396.089844 710.585938 397.890625 705.699219 394.070312 C 703.941406 392.375 702.667969 390.367188 701.878906 388.054688 C 700.5 385.257812 701.855469 384.859375 705.933594 386.855469 C 707.675781 400.152344 705.789062 413.785156 701.304688 426.355469 C 700.828125 427.691406 702.949219 428.261719 703.417969 426.9375 " fill-opacity="1" fill-rule="nonzero"/><path fill="#66cef5" d="M 723.214844 432.917969 L 698.410156 432.917969 C 696.570312 432.917969 695.066406 431.414062 695.066406 429.578125 L 695.066406 429.398438 C 695.066406 427.554688 696.570312 426.058594 698.410156 426.058594 L 723.214844 426.058594 C 725.050781 426.058594 726.554688 427.554688 726.554688 429.398438 L 726.554688 429.578125 C 726.554688 431.414062 725.050781 432.917969 723.214844 432.917969 " fill-opacity="1" fill-rule="nonzero"/><path fill="#4b95b4" d="M 723.214844 439.789062 L 698.410156 439.789062 C 696.570312 439.789062 695.066406 438.285156 695.066406 436.441406 L 695.066406 436.257812 C 695.066406 434.421875 696.570312 432.917969 698.410156 432.917969 L 723.214844 432.917969 C 725.050781 432.917969 726.554688 434.421875 726.554688 436.257812 L 726.554688 436.441406 C 726.554688 438.285156 725.050781 439.789062 723.214844 439.789062 " fill-opacity="1" fill-rule="nonzero"/><path fill="#f68a3b" d="M 712.902344 331.859375 C 712.101562 331.859375 711.453125 331.207031 711.453125 330.410156 L 711.453125 310.636719 C 711.453125 309.839844 712.101562 309.191406 712.902344 309.191406 C 713.699219 309.191406 714.347656 309.839844 714.347656 310.636719 L 714.347656 330.410156 C 714.347656 331.207031 713.699219 331.859375 712.902344 331.859375 " fill-opacity="1" fill-rule="nonzero"/><path fill="#f68a3b" d="M 778.566406 380.828125 L 758.796875 380.828125 C 757.996094 380.828125 757.347656 380.179688 757.347656 379.382812 C 757.347656 378.585938 757.996094 377.933594 758.796875 377.933594 L 778.566406 377.933594 C 779.367188 377.933594 780.015625 378.585938 780.015625 379.382812 C 780.015625 380.179688 779.367188 380.828125 778.566406 380.828125 " fill-opacity="1" fill-rule="nonzero"/><path fill="#f68a3b" d="M 662.824219 380.828125 L 643.058594 380.828125 C 642.257812 380.828125 641.609375 380.179688 641.609375 379.382812 C 641.609375 378.585938 642.257812 377.933594 643.058594 377.933594 L 662.824219 377.933594 C 663.628906 377.933594 664.277344 378.585938 664.277344 379.382812 C 664.277344 380.179688 663.628906 380.828125 662.824219 380.828125 " fill-opacity="1" fill-rule="nonzero"/><path fill="#f68a3b" d="M 754.421875 360.8125 C 753.871094 360.8125 753.347656 360.5 753.105469 359.96875 C 752.769531 359.246094 753.09375 358.386719 753.816406 358.054688 L 771.785156 349.804688 C 772.507812 349.46875 773.371094 349.785156 773.703125 350.515625 C 774.035156 351.234375 773.722656 352.097656 772.992188 352.4375 L 755.023438 360.679688 C 754.828125 360.769531 754.625 360.8125 754.421875 360.8125 " fill-opacity="1" fill-rule="nonzero"/><path fill="#f68a3b" d="M 649.234375 409.097656 C 648.6875 409.097656 648.164062 408.785156 647.921875 408.25 C 647.585938 407.527344 647.902344 406.664062 648.632812 406.332031 L 666.601562 398.089844 C 667.324219 397.753906 668.1875 398.070312 668.519531 398.796875 C 668.851562 399.527344 668.539062 400.382812 667.804688 400.714844 L 649.839844 408.964844 C 649.644531 409.054688 649.4375 409.097656 649.234375 409.097656 " fill-opacity="1" fill-rule="nonzero"/><path fill="#f68a3b" d="M 774.339844 404.386719 C 774.171875 404.386719 774 404.359375 773.835938 404.300781 L 755.296875 397.421875 C 754.546875 397.144531 754.167969 396.3125 754.449219 395.5625 C 754.726562 394.8125 755.558594 394.433594 756.308594 394.710938 L 774.84375 401.582031 C 775.59375 401.863281 775.972656 402.695312 775.695312 403.445312 C 775.480469 404.027344 774.929688 404.386719 774.339844 404.386719 " fill-opacity="1" fill-rule="nonzero"/><path fill="#f68a3b" d="M 665.820312 364.144531 C 665.65625 364.144531 665.488281 364.117188 665.316406 364.054688 L 646.78125 357.183594 C 646.03125 356.90625 645.648438 356.074219 645.929688 355.324219 C 646.207031 354.574219 647.039062 354.195312 647.789062 354.46875 L 666.328125 361.347656 C 667.074219 361.617188 667.457031 362.457031 667.175781 363.199219 C 666.960938 363.789062 666.410156 364.144531 665.820312 364.144531 " fill-opacity="1" fill-rule="nonzero"/><path fill="#f68a3b" d="M 759.535156 427.917969 C 759.171875 427.917969 758.804688 427.78125 758.523438 427.515625 L 744.308594 413.773438 C 743.738281 413.214844 743.71875 412.300781 744.273438 411.722656 C 744.832031 411.152344 745.746094 411.132812 746.324219 411.691406 L 760.535156 425.433594 C 761.109375 425.988281 761.128906 426.902344 760.570312 427.480469 C 760.289062 427.769531 759.910156 427.917969 759.535156 427.917969 " fill-opacity="1" fill-rule="nonzero"/><path fill="#f68a3b" d="M 676.3125 347.480469 C 675.949219 347.480469 675.585938 347.347656 675.308594 347.074219 L 661.085938 333.335938 C 660.515625 332.78125 660.496094 331.867188 661.054688 331.289062 C 661.609375 330.714844 662.523438 330.699219 663.097656 331.253906 L 677.316406 344.996094 C 677.890625 345.554688 677.902344 346.46875 677.351562 347.039062 C 677.066406 347.335938 676.691406 347.480469 676.3125 347.480469 " fill-opacity="1" fill-rule="nonzero"/><path fill="#f68a3b" d="M 744.160156 346.328125 C 743.796875 346.328125 743.433594 346.191406 743.148438 345.921875 C 742.578125 345.363281 742.566406 344.449219 743.121094 343.878906 L 756.855469 329.65625 C 757.414062 329.085938 758.328125 329.066406 758.90625 329.625 C 759.476562 330.179688 759.492188 331.09375 758.941406 331.667969 L 745.199219 345.886719 C 744.914062 346.179688 744.539062 346.328125 744.160156 346.328125 " fill-opacity="1" fill-rule="nonzero"/><path fill="#f68a3b" d="M 663.722656 429.554688 C 663.359375 429.554688 663 429.417969 662.71875 429.148438 C 662.148438 428.589844 662.128906 427.675781 662.683594 427.097656 L 676.425781 412.882812 C 676.984375 412.304688 677.898438 412.289062 678.476562 412.847656 C 679.046875 413.398438 679.0625 414.320312 678.503906 414.898438 L 664.769531 429.113281 C 664.476562 429.40625 664.105469 429.554688 663.722656 429.554688 " fill-opacity="1" fill-rule="nonzero"/><path fill="#f68a3b" d="M 731.238281 337.410156 C 731.035156 337.410156 730.824219 337.371094 730.625 337.273438 C 729.902344 336.9375 729.59375 336.074219 729.9375 335.347656 L 738.351562 317.457031 C 738.691406 316.734375 739.554688 316.425781 740.277344 316.769531 C 740.996094 317.109375 741.3125 317.96875 740.96875 318.695312 L 732.550781 336.578125 C 732.304688 337.109375 731.785156 337.410156 731.238281 337.410156 " fill-opacity="1" fill-rule="nonzero"/><path fill="#f68a3b" d="M 694.558594 335.683594 C 693.960938 335.683594 693.410156 335.3125 693.195312 334.726562 L 686.5 316.121094 C 686.230469 315.371094 686.621094 314.539062 687.371094 314.265625 C 688.125 314 688.953125 314.390625 689.21875 315.140625 L 695.917969 333.742188 C 696.191406 334.5 695.800781 335.324219 695.050781 335.597656 C 694.882812 335.65625 694.722656 335.683594 694.558594 335.683594 " fill-opacity="1" fill-rule="nonzero"/><path fill="#f2c09a" d="M 658.046875 556.96875 C 661.769531 558.140625 666.15625 554.855469 667.78125 549.652344 L 681.078125 507.269531 C 682.710938 502.074219 682.574219 494.230469 678.164062 492.839844 C 673.546875 491.390625 669.160156 497.816406 667.535156 503.015625 L 654.230469 545.398438 C 652.605469 550.59375 654.320312 555.800781 658.046875 556.96875 " fill-opacity="1" fill-rule="nonzero"/><path fill="#efd5bc" d="M 670.625 502.699219 C 671.128906 499.429688 673.476562 493.851562 676.566406 494.699219 C 680.710938 495.835938 679.621094 501.308594 678.289062 505.117188 C 675.964844 504.324219 670.625 502.707031 670.625 502.699219 " fill-opacity="1" fill-rule="nonzero"/><path fill="#f2c09a" d="M 642.535156 553.148438 C 646.535156 554.414062 651.3125 550.632812 653.15625 544.761719 L 671.480469 486.101562 C 673.320312 480.226562 673.296875 471.394531 668.5625 469.902344 C 663.59375 468.335938 658.765625 475.640625 656.925781 481.511719 L 638.601562 540.179688 C 636.765625 546.050781 638.53125 551.886719 642.535156 553.148438 " fill-opacity="1" fill-rule="nonzero"/><path fill="#efd5bc" d="M 660.269531 481.121094 C 660.859375 477.429688 663.484375 471.105469 666.808594 472.015625 C 671.257812 473.238281 670 479.40625 668.503906 483.722656 C 666.003906 482.855469 660.265625 481.125 660.269531 481.121094 " fill-opacity="1" fill-rule="nonzero"/><path fill="#f2c09a" d="M 624.253906 555.777344 C 628.261719 557.035156 633.039062 553.265625 634.882812 547.394531 L 653.199219 488.726562 C 655.039062 482.855469 655.023438 474.023438 650.28125 472.523438 C 645.316406 470.96875 640.484375 478.273438 638.644531 484.144531 L 620.320312 542.808594 C 618.484375 548.683594 620.25 554.515625 624.253906 555.777344 " fill-opacity="1" fill-rule="nonzero"/><path fill="#efd5bc" d="M 641.988281 483.746094 C 642.582031 480.054688 645.203125 473.730469 648.527344 474.648438 C 652.976562 475.859375 651.722656 482.039062 650.21875 486.347656 C 647.730469 485.480469 641.988281 483.753906 641.988281 483.746094 " fill-opacity="1" fill-rule="nonzero"/><path fill="#f2c09a" d="M 601.734375 570.894531 C 605.734375 572.15625 610.519531 568.382812 612.363281 562.507812 L 630.679688 503.839844 C 632.519531 497.96875 632.496094 489.136719 627.761719 487.644531 C 622.796875 486.082031 617.964844 493.386719 616.125 499.257812 L 597.800781 557.925781 C 595.957031 563.800781 597.730469 569.636719 601.734375 570.894531 " fill-opacity="1" fill-rule="nonzero"/><path fill="#efd5bc" d="M 619.46875 498.859375 C 620.0625 495.167969 622.683594 488.851562 626.007812 489.761719 C 630.460938 490.980469 629.199219 497.15625 627.703125 501.464844 C 625.210938 500.601562 619.46875 498.871094 619.46875 498.859375 " fill-opacity="1" fill-rule="nonzero"/><g clip-path="url(#60cd7587ca)"><path fill="#f2c09a" d="M 568.933594 691.238281 L 611.363281 691.238281 L 637.097656 607.621094 C 652.195312 604.160156 659.800781 589.652344 663.285156 582.632812 C 666.765625 575.613281 676.699219 561.96875 683.960938 554.824219 C 691.222656 547.679688 701.035156 543.828125 705.195312 542.285156 C 706.964844 541.625 704.980469 536.453125 702.890625 534.503906 C 698.65625 530.550781 692.375 529.628906 687.179688 532.1875 C 675.914062 537.738281 664.75 549.242188 664.75 549.242188 L 615.78125 535.117188 C 615.78125 535.117188 606.851562 534.273438 602.675781 542.832031 C 600.183594 547.941406 594.355469 568.085938 593.238281 582.46875 C 592.800781 588.042969 598.1875 596.0625 598.1875 596.0625 L 568.933594 691.238281 " fill-opacity="1" fill-rule="nonzero"/></g><path fill="#efd5bc" d="M 690.871094 545.054688 C 690.582031 543.8125 690.261719 542.570312 689.933594 541.332031 C 689.582031 539.984375 689.148438 539.789062 690.390625 539.164062 C 694.550781 537.082031 699.050781 536.363281 703.644531 537.21875 C 704.167969 537.320312 704.691406 537.441406 705.207031 537.570312 C 706.070312 539.710938 706.3125 541.800781 705.160156 542.234375 C 702.296875 543.292969 697.09375 545.316406 691.597656 548.535156 C 691.390625 547.371094 691.144531 546.210938 690.871094 545.054688 " fill-opacity="1" fill-rule="nonzero"/><g clip-path="url(#1332d88c6a)"><path fill="#f14759" d="M 616.09375 691.238281 L 636.640625 624.386719 L 590.714844 610.277344 L 565.875 691.238281 L 616.09375 691.238281 " fill-opacity="1" fill-rule="nonzero"/></g><g clip-path="url(#0f7879de00)"><path fill="#ce3c4a" d="M 616.09375 691.238281 L 636.640625 624.386719 L 631.429688 622.789062 C 630.292969 625.125 629.179688 627.460938 628.0625 629.800781 L 609.183594 691.238281 L 616.09375 691.238281 " fill-opacity="1" fill-rule="nonzero"/></g><path fill="#af1c3b" d="M 633.152344 635.738281 L 636.640625 624.386719 L 590.714844 610.277344 L 587.226562 621.628906 L 633.152344 635.738281 " fill-opacity="1" fill-rule="nonzero"/><path fill="#f14759" d="M 611.535156 629.101562 L 615.03125 617.75 L 612.328125 616.917969 L 608.835938 628.269531 L 611.535156 629.101562 " fill-opacity="1" fill-rule="nonzero"/><path fill="#f14759" d="M 598.039062 624.953125 L 601.519531 613.59375 L 598.824219 612.769531 L 595.335938 624.121094 L 598.039062 624.953125 " fill-opacity="1" fill-rule="nonzero"/><path fill="#f14759" d="M 625.953125 633.527344 L 629.4375 622.175781 L 626.738281 621.34375 L 623.25 632.703125 L 625.953125 633.527344 " fill-opacity="1" fill-rule="nonzero"/><path fill="#f2c09a" d="M 775.777344 555.585938 C 771.984375 556.519531 767.820312 552.953125 766.53125 547.664062 L 755.992188 504.507812 C 754.703125 499.222656 755.339844 491.394531 759.832031 490.296875 C 764.539062 489.144531 768.496094 495.839844 769.785156 501.132812 L 780.324219 544.28125 C 781.621094 549.570312 779.570312 554.65625 775.777344 555.585938 " fill-opacity="1" fill-rule="nonzero"/><path fill="#efd5bc" d="M 766.71875 500.621094 C 766.429688 497.328125 764.449219 491.597656 761.304688 492.25 C 757.097656 493.125 757.828125 498.652344 758.917969 502.539062 C 761.289062 501.890625 766.71875 500.625 766.71875 500.621094 " fill-opacity="1" fill-rule="nonzero"/><path fill="#f2c09a" d="M 791.496094 552.773438 C 787.425781 553.777344 782.898438 549.703125 781.441406 543.722656 L 766.941406 483.996094 C 765.476562 478.015625 766.074219 469.207031 770.898438 468.019531 C 775.949219 466.785156 780.300781 474.378906 781.757812 480.363281 L 796.257812 540.085938 C 797.71875 546.0625 795.582031 551.777344 791.496094 552.773438 " fill-opacity="1" fill-rule="nonzero"/><path fill="#efd5bc" d="M 778.445312 479.746094 C 778.089844 476.03125 775.882812 469.546875 772.507812 470.242188 C 767.992188 471.175781 768.84375 477.421875 770.066406 481.816406 C 772.609375 481.113281 778.445312 479.757812 778.445312 479.746094 " fill-opacity="1" fill-rule="nonzero"/><path fill="#f2c09a" d="M 809.570312 556.578125 C 805.492188 557.578125 800.972656 553.5 799.507812 547.519531 L 785.007812 487.800781 C 783.550781 481.820312 784.140625 473.007812 788.964844 471.824219 L 788.964844 471.816406 C 794.023438 470.582031 798.375 478.183594 799.832031 484.164062 L 814.332031 543.886719 C 815.789062 549.867188 813.648438 555.578125 809.570312 556.578125 " fill-opacity="1" fill-rule="nonzero"/><path fill="#efd5bc" d="M 796.519531 483.550781 C 796.164062 479.828125 793.953125 473.351562 790.582031 474.039062 C 786.058594 474.972656 786.914062 481.21875 788.140625 485.617188 C 790.675781 484.917969 796.519531 483.554688 796.519531 483.550781 " fill-opacity="1" fill-rule="nonzero"/><path fill="#f2c09a" d="M 831.074219 573.113281 C 826.996094 574.109375 822.46875 570.039062 821.011719 564.0625 L 806.511719 504.335938 C 805.046875 498.355469 805.636719 489.542969 810.46875 488.359375 C 815.519531 487.117188 819.871094 494.71875 821.328125 500.695312 L 835.828125 560.421875 C 837.289062 566.402344 835.152344 572.113281 831.074219 573.113281 " fill-opacity="1" fill-rule="nonzero"/><path fill="#efd5bc" d="M 818.015625 500.085938 C 817.660156 496.363281 815.453125 489.890625 812.078125 490.582031 C 807.554688 491.515625 808.414062 497.753906 809.636719 502.152344 C 812.179688 501.453125 818.015625 500.089844 818.015625 500.085938 " fill-opacity="1" fill-rule="nonzero"/><g clip-path="url(#3a3f1a0b5a)"><path fill="#f2c09a" d="M 729.671875 537.890625 C 733.730469 539.703125 743.269531 544.179688 750.054688 551.777344 C 756.835938 559.371094 765.871094 573.628906 768.890625 580.863281 C 771.914062 588.089844 778.570312 603.054688 793.410156 607.476562 L 813.378906 691.238281 L 855.074219 691.238281 L 832.988281 598.457031 C 832.988281 598.457031 838.878906 590.800781 838.804688 585.207031 C 838.621094 570.78125 834.097656 550.308594 831.941406 545.046875 C 828.320312 536.238281 819.367188 536.507812 819.367188 536.507812 L 769.578125 547.441406 C 769.578125 547.441406 759.183594 535.242188 748.300781 528.976562 C 743.28125 526.085938 736.949219 526.597656 732.46875 530.273438 C 730.257812 532.089844 727.945312 537.117188 729.671875 537.890625 " fill-opacity="1" fill-rule="nonzero"/></g><path fill="#efd5bc" d="M 743.785156 541.582031 C 744.160156 540.359375 744.558594 539.140625 744.960938 537.925781 C 745.394531 536.601562 745.847656 536.429688 744.648438 535.726562 C 740.628906 533.386719 736.183594 532.382812 731.546875 532.941406 C 731.011719 533.007812 730.484375 533.089844 729.960938 533.183594 C 728.960938 535.265625 728.589844 537.34375 729.710938 537.84375 C 732.5 539.085938 737.5625 541.441406 742.835938 545.007812 C 743.121094 543.859375 743.433594 542.71875 743.785156 541.582031 " fill-opacity="1" fill-rule="nonzero"/><g clip-path="url(#c72621c98b)"><path fill="#f14759" d="M 858.085938 691.238281 L 839.523438 613.125 L 792.789062 624.246094 L 808.734375 691.238281 L 858.085938 691.238281 " fill-opacity="1" fill-rule="nonzero"/></g><g clip-path="url(#a7a1ff79e6)"><path fill="#ce3c4a" d="M 815.527344 691.238281 L 800.996094 630.207031 C 800.039062 627.792969 799.074219 625.386719 798.09375 622.984375 L 792.789062 624.246094 L 808.734375 691.238281 L 815.527344 691.238281 " fill-opacity="1" fill-rule="nonzero"/></g><path fill="#af1c3b" d="M 795.539062 635.800781 L 792.789062 624.246094 L 839.523438 613.125 L 842.277344 624.679688 L 795.539062 635.800781 " fill-opacity="1" fill-rule="nonzero"/><path fill="#f14759" d="M 817.535156 630.5625 L 814.785156 619.015625 L 817.535156 618.355469 L 820.28125 629.910156 L 817.535156 630.5625 " fill-opacity="1" fill-rule="nonzero"/><path fill="#f14759" d="M 831.277344 627.292969 L 828.53125 615.738281 L 831.277344 615.085938 L 834.027344 626.640625 L 831.277344 627.292969 " fill-opacity="1" fill-rule="nonzero"/><path fill="#f14759" d="M 802.867188 634.058594 L 800.117188 622.503906 L 802.867188 621.847656 L 805.613281 633.402344 L 802.867188 634.058594 " fill-opacity="1" fill-rule="nonzero"/><path fill="#f7973b" d="M 931.480469 422.867188 L 810.058594 389.488281 C 807.542969 388.796875 806.066406 386.195312 806.753906 383.679688 L 826.769531 310.863281 C 827.460938 308.347656 830.0625 306.867188 832.582031 307.558594 L 954 340.9375 C 956.519531 341.632812 958 344.226562 957.300781 346.75 L 937.285156 419.5625 C 936.597656 422.078125 933.992188 423.554688 931.480469 422.867188 " fill-opacity="1" fill-rule="nonzero"/><path fill="#f57d3b" d="M 954 340.9375 L 892.324219 323.984375 L 869.804688 405.917969 L 931.480469 422.867188 C 933.992188 423.554688 936.597656 422.078125 937.285156 419.5625 L 957.300781 346.75 C 958 344.226562 956.519531 341.632812 954 340.9375 " fill-opacity="1" fill-rule="nonzero"/><path fill="#d7d7d7" d="M 811.585938 378.226562 L 815.21875 386.75 L 866.226562 400.773438 C 866.226562 400.773438 866.773438 398.449219 868.902344 396.585938 C 871.066406 394.6875 873.175781 395.160156 873.175781 395.160156 L 863.113281 375.8125 L 830.792969 364.847656 L 811.585938 378.226562 " fill-opacity="1" fill-rule="nonzero"/><path fill="#ffffff" d="M 891.820312 327.335938 C 873.882812 314.695312 852.101562 308.710938 830.230469 310.402344 C 824.011719 333.011719 817.796875 355.617188 811.585938 378.226562 C 833.464844 376.53125 855.238281 382.523438 873.175781 395.160156 C 879.390625 372.550781 885.601562 349.941406 891.820312 327.335938 " fill-opacity="1" fill-rule="nonzero"/><path fill="#d7d7d7" d="M 817.886719 372.152344 C 817.886719 372.152344 817.957031 372.144531 818.117188 372.132812 C 818.59375 372.101562 819.78125 372.042969 821.539062 372.042969 C 830.09375 372.039062 852.035156 373.480469 870.625 386.648438 C 871.03125 386.9375 871.59375 386.84375 871.878906 386.433594 C 872.164062 386.027344 872.070312 385.464844 871.667969 385.179688 C 852.566406 371.667969 830.285156 370.25 821.539062 370.242188 C 819.144531 370.242188 817.761719 370.351562 817.742188 370.351562 C 817.242188 370.390625 816.875 370.824219 816.910156 371.324219 C 816.953125 371.816406 817.386719 372.191406 817.886719 372.152344 " fill-opacity="1" fill-rule="nonzero"/><path fill="#d7d7d7" d="M 819.964844 365.054688 C 819.964844 365.054688 820.039062 365.046875 820.199219 365.042969 C 820.671875 365.011719 821.863281 364.953125 823.621094 364.953125 C 832.171875 364.941406 854.117188 366.390625 872.707031 379.554688 C 873.109375 379.84375 873.675781 379.746094 873.960938 379.34375 C 874.25 378.933594 874.152344 378.367188 873.746094 378.082031 C 854.644531 364.578125 832.363281 363.152344 823.621094 363.148438 C 821.226562 363.148438 819.839844 363.253906 819.824219 363.257812 C 819.324219 363.296875 818.957031 363.730469 818.992188 364.226562 C 819.03125 364.726562 819.464844 365.097656 819.964844 365.054688 " fill-opacity="1" fill-rule="nonzero"/><path fill="#d7d7d7" d="M 822.046875 357.964844 C 822.046875 357.964844 822.125 357.957031 822.277344 357.945312 C 822.757812 357.917969 823.953125 357.855469 825.714844 357.855469 C 834.269531 357.851562 856.207031 359.296875 874.785156 372.460938 C 875.191406 372.746094 875.753906 372.648438 876.039062 372.246094 C 876.332031 371.835938 876.238281 371.269531 875.828125 370.984375 C 856.730469 357.484375 834.460938 356.054688 825.714844 356.050781 C 823.304688 356.050781 821.921875 356.164062 821.902344 356.164062 C 821.402344 356.203125 821.035156 356.636719 821.078125 357.136719 C 821.113281 357.632812 821.554688 358 822.046875 357.964844 " fill-opacity="1" fill-rule="nonzero"/><path fill="#d7d7d7" d="M 824.125 350.867188 C 824.125 350.867188 824.203125 350.863281 824.363281 350.847656 C 824.839844 350.820312 826.027344 350.761719 827.789062 350.761719 C 836.339844 350.753906 858.28125 352.199219 876.867188 365.363281 C 877.269531 365.65625 877.835938 365.554688 878.121094 365.148438 C 878.410156 364.746094 878.316406 364.179688 877.914062 363.890625 C 858.804688 350.386719 836.53125 348.960938 827.789062 348.953125 C 825.386719 348.953125 824.007812 349.066406 823.984375 349.066406 C 823.484375 349.109375 823.117188 349.542969 823.15625 350.035156 C 823.199219 350.535156 823.632812 350.902344 824.125 350.867188 " fill-opacity="1" fill-rule="nonzero"/><path fill="#d7d7d7" d="M 826.210938 343.769531 C 826.210938 343.769531 826.285156 343.765625 826.445312 343.753906 C 826.917969 343.730469 828.113281 343.664062 829.875 343.664062 C 838.425781 343.65625 860.367188 345.109375 878.945312 358.265625 C 879.355469 358.558594 879.921875 358.464844 880.207031 358.054688 C 880.492188 357.648438 880.398438 357.085938 879.992188 356.800781 C 860.890625 343.296875 838.617188 341.867188 829.875 341.863281 C 827.472656 341.863281 826.085938 341.96875 826.070312 341.976562 C 825.570312 342.011719 825.203125 342.453125 825.238281 342.945312 C 825.277344 343.4375 825.714844 343.8125 826.210938 343.769531 " fill-opacity="1" fill-rule="nonzero"/><path fill="#cac9c9" d="M 881.429688 350.402344 C 857.421875 333.410156 828.097656 335.742188 828.097656 335.742188 L 833.492188 316.117188 C 833.492188 316.117188 862.816406 313.785156 886.828125 330.777344 L 881.429688 350.402344 " fill-opacity="1" fill-rule="nonzero"/><path fill="#d7d7d7" d="M 934.734375 412.078125 L 927.257812 417.546875 L 876.242188 403.527344 C 876.242188 403.527344 876.960938 401.257812 876.089844 398.558594 C 875.203125 395.828125 873.144531 395.144531 873.144531 395.144531 L 891.683594 383.65625 L 925.058594 390.753906 L 934.734375 412.078125 " fill-opacity="1" fill-rule="nonzero"/><path fill="#ffffff" d="M 891.785156 327.324219 C 913.660156 325.632812 935.445312 331.617188 953.375 344.257812 C 947.164062 366.867188 940.945312 389.46875 934.734375 412.078125 C 916.800781 399.445312 895.015625 393.453125 873.144531 395.144531 C 879.355469 372.539062 885.574219 349.933594 891.785156 327.324219 " fill-opacity="1" fill-rule="nonzero"/><path fill="#d7d7d7" d="M 933.46875 402.164062 C 933.394531 402.125 912.257812 387.132812 885.1875 387.117188 C 883.332031 387.117188 881.449219 387.1875 879.542969 387.34375 C 879.046875 387.378906 878.671875 387.816406 878.714844 388.3125 C 878.757812 388.8125 879.191406 389.179688 879.683594 389.136719 C 881.539062 388.988281 883.375 388.921875 885.1875 388.921875 C 898.386719 388.921875 910.214844 392.601562 918.730469 396.289062 C 922.992188 398.128906 926.425781 399.972656 928.785156 401.355469 C 929.96875 402.046875 930.886719 402.617188 931.496094 403.023438 C 931.804688 403.21875 932.042969 403.378906 932.199219 403.480469 C 932.351562 403.585938 932.425781 403.640625 932.425781 403.640625 C 932.835938 403.925781 933.394531 403.828125 933.683594 403.425781 C 933.96875 403.015625 933.875 402.449219 933.46875 402.164062 " fill-opacity="1" fill-rule="nonzero"/><path fill="#d7d7d7" d="M 935.308594 395.003906 C 935.230469 394.960938 914.09375 379.972656 887.023438 379.953125 C 885.167969 379.953125 883.285156 380.027344 881.378906 380.179688 C 880.882812 380.214844 880.515625 380.65625 880.550781 381.148438 C 880.59375 381.648438 881.027344 382.015625 881.527344 381.976562 C 883.378906 381.828125 885.21875 381.761719 887.023438 381.761719 C 900.222656 381.761719 912.050781 385.441406 920.574219 389.125 C 924.835938 390.96875 928.265625 392.8125 930.628906 394.195312 C 931.804688 394.886719 932.722656 395.457031 933.339844 395.859375 C 933.648438 396.054688 933.878906 396.214844 934.035156 396.316406 C 934.1875 396.425781 934.265625 396.476562 934.265625 396.476562 C 934.671875 396.761719 935.234375 396.667969 935.519531 396.265625 C 935.8125 395.855469 935.710938 395.289062 935.308594 395.003906 " fill-opacity="1" fill-rule="nonzero"/><path fill="#d7d7d7" d="M 937.144531 387.84375 C 937.066406 387.800781 915.933594 372.8125 888.867188 372.792969 C 887.003906 372.792969 885.121094 372.863281 883.21875 373.019531 C 882.722656 373.054688 882.351562 373.488281 882.386719 373.988281 C 882.429688 374.488281 882.863281 374.855469 883.363281 374.8125 C 885.21875 374.664062 887.054688 374.601562 888.867188 374.601562 C 902.058594 374.601562 913.886719 378.277344 922.410156 381.964844 C 926.671875 383.804688 930.101562 385.648438 932.464844 387.035156 C 933.644531 387.722656 934.558594 388.292969 935.175781 388.699219 C 935.484375 388.894531 935.714844 389.054688 935.871094 389.15625 C 936.027344 389.261719 936.101562 389.316406 936.101562 389.316406 C 936.507812 389.601562 937.070312 389.507812 937.355469 389.101562 C 937.648438 388.691406 937.546875 388.128906 937.144531 387.84375 " fill-opacity="1" fill-rule="nonzero"/><path fill="#d7d7d7" d="M 938.980469 380.679688 C 938.902344 380.636719 917.769531 365.648438 890.703125 365.632812 C 888.84375 365.632812 886.957031 365.703125 885.054688 365.855469 C 884.558594 365.890625 884.1875 366.328125 884.222656 366.824219 C 884.265625 367.324219 884.699219 367.695312 885.199219 367.652344 C 887.054688 367.503906 888.890625 367.4375 890.703125 367.4375 C 903.898438 367.4375 915.722656 371.117188 924.246094 374.800781 C 928.507812 376.644531 931.9375 378.488281 934.300781 379.871094 C 935.484375 380.5625 936.394531 381.132812 937.011719 381.535156 C 937.320312 381.730469 937.554688 381.890625 937.707031 381.992188 C 937.863281 382.101562 937.941406 382.152344 937.941406 382.152344 C 938.34375 382.4375 938.910156 382.34375 939.195312 381.941406 C 939.484375 381.53125 939.390625 380.964844 938.980469 380.679688 " fill-opacity="1" fill-rule="nonzero"/><path fill="#d7d7d7" d="M 940.816406 373.519531 C 940.738281 373.476562 919.605469 358.488281 892.539062 358.46875 C 890.683594 358.46875 888.800781 358.539062 886.894531 358.695312 C 886.398438 358.730469 886.023438 359.164062 886.066406 359.664062 C 886.109375 360.164062 886.542969 360.53125 887.035156 360.488281 C 888.890625 360.339844 890.726562 360.277344 892.539062 360.277344 C 905.734375 360.277344 917.558594 363.953125 926.082031 367.640625 C 930.34375 369.480469 933.773438 371.324219 936.140625 372.710938 C 937.316406 373.398438 938.230469 373.96875 938.847656 374.375 C 939.15625 374.570312 939.390625 374.730469 939.542969 374.832031 C 939.699219 374.9375 939.777344 374.992188 939.777344 374.992188 C 940.179688 375.277344 940.746094 375.183594 941.03125 374.777344 C 941.320312 374.367188 941.21875 373.804688 940.816406 373.519531 " fill-opacity="1" fill-rule="nonzero"/><path fill="#cac9c9" d="M 888.917969 352.464844 C 918.242188 350.128906 942.253906 367.121094 942.253906 367.121094 L 947.652344 347.496094 C 947.652344 347.496094 923.640625 330.503906 894.316406 332.835938 L 888.917969 352.464844 " fill-opacity="1" fill-rule="nonzero"/><path fill="#abaaaa" d="M 891.785156 327.324219 C 891.785156 327.324219 890.804688 331.617188 889.199219 338.011719 C 888.371094 341.203125 887.457031 344.941406 886.386719 348.921875 C 885.324219 352.90625 884.183594 357.148438 883.042969 361.394531 C 881.851562 365.625 880.664062 369.863281 879.546875 373.828125 C 878.4375 377.796875 877.304688 381.476562 876.386719 384.636719 C 874.496094 390.960938 873.144531 395.144531 873.144531 395.144531 C 873.144531 395.144531 874.121094 390.855469 875.730469 384.460938 C 876.558594 381.269531 877.46875 377.53125 878.542969 373.546875 C 879.605469 369.570312 880.746094 365.320312 881.890625 361.078125 C 883.078125 356.847656 884.273438 352.613281 885.382812 348.644531 C 886.5 344.679688 887.625 341 888.546875 337.832031 C 890.433594 331.515625 891.785156 327.324219 891.785156 327.324219 " fill-opacity="1" fill-rule="nonzero"/><path fill="#b839a3" d="M 668.007812 278.421875 L 551.710938 326.707031 C 549.296875 327.707031 546.527344 326.5625 545.53125 324.15625 L 516.574219 254.410156 C 515.574219 251.996094 516.71875 249.234375 519.128906 248.234375 L 635.425781 199.949219 C 637.839844 198.945312 640.605469 200.09375 641.609375 202.5 L 670.558594 272.246094 C 671.5625 274.652344 670.421875 277.421875 668.007812 278.421875 " fill-opacity="1" fill-rule="nonzero"/><path fill="#8f43a6" d="M 635.425781 199.949219 L 576.351562 224.480469 L 608.933594 302.949219 L 668.007812 278.421875 C 670.421875 277.421875 671.5625 274.652344 670.558594 272.246094 L 641.609375 202.5 C 640.605469 200.09375 637.835938 198.945312 635.425781 199.949219 " fill-opacity="1" fill-rule="nonzero"/><path fill="#d7d7d7" d="M 545.992188 316.886719 L 554.09375 321.382812 L 602.953125 301.089844 C 602.953125 301.089844 601.957031 298.925781 602.488281 296.140625 C 603.03125 293.324219 604.980469 292.394531 604.980469 292.394531 L 585.152344 283.3125 L 552.921875 294.523438 L 545.992188 316.886719 " fill-opacity="1" fill-rule="nonzero"/><path fill="#ffffff" d="M 578.015625 227.425781 C 556.097656 228.480469 535.234375 237.144531 519.023438 251.925781 C 528.007812 273.578125 537 295.230469 545.992188 316.886719 C 562.207031 302.105469 583.066406 293.441406 604.980469 292.394531 C 595.996094 270.738281 587.007812 249.085938 578.015625 227.425781 " fill-opacity="1" fill-rule="nonzero"/><path fill="#d7d7d7" d="M 547.230469 308.222656 C 547.230469 308.222656 547.300781 308.152344 547.460938 308.007812 C 549.878906 305.875 570.558594 288.476562 597.742188 287.25 C 598.242188 287.222656 598.621094 286.800781 598.601562 286.304688 C 598.578125 285.808594 598.15625 285.421875 597.660156 285.445312 C 567.882812 286.839844 546.082031 306.835938 546.011719 306.890625 C 545.644531 307.230469 545.621094 307.800781 545.953125 308.164062 C 546.289062 308.53125 546.859375 308.554688 547.230469 308.222656 " fill-opacity="1" fill-rule="nonzero"/><path fill="#d7d7d7" d="M 544.507812 301.347656 C 544.507812 301.347656 544.585938 301.273438 544.746094 301.132812 C 547.160156 299 567.839844 281.601562 595.027344 280.371094 C 595.523438 280.347656 595.90625 279.925781 595.886719 279.433594 C 595.863281 278.933594 595.441406 278.546875 594.941406 278.570312 C 565.167969 279.960938 543.367188 299.960938 543.289062 300.015625 C 542.921875 300.351562 542.898438 300.925781 543.234375 301.285156 C 543.570312 301.65625 544.140625 301.683594 544.507812 301.347656 " fill-opacity="1" fill-rule="nonzero"/><path fill="#d7d7d7" d="M 541.792969 294.46875 C 541.792969 294.46875 541.863281 294.398438 542.023438 294.253906 C 544.441406 292.128906 565.125 274.726562 592.304688 273.496094 C 592.800781 273.472656 593.183594 273.050781 593.164062 272.554688 C 593.140625 272.054688 592.71875 271.671875 592.21875 271.695312 C 562.449219 273.085938 540.644531 293.085938 540.574219 293.136719 C 540.203125 293.476562 540.179688 294.046875 540.515625 294.414062 C 540.851562 294.785156 541.421875 294.808594 541.792969 294.46875 " fill-opacity="1" fill-rule="nonzero"/><path fill="#d7d7d7" d="M 539.074219 287.59375 C 539.074219 287.59375 539.148438 287.519531 539.3125 287.386719 C 541.726562 285.246094 562.410156 267.847656 589.585938 266.617188 C 590.085938 266.59375 590.472656 266.179688 590.449219 265.679688 C 590.425781 265.179688 590.003906 264.792969 589.503906 264.816406 C 559.734375 266.207031 537.929688 286.214844 537.855469 286.261719 C 537.488281 286.601562 537.464844 287.171875 537.796875 287.539062 C 538.136719 287.902344 538.707031 287.929688 539.074219 287.59375 " fill-opacity="1" fill-rule="nonzero"/><path fill="#d7d7d7" d="M 536.355469 280.714844 C 536.355469 280.714844 536.429688 280.652344 536.589844 280.507812 C 539.003906 278.375 559.691406 260.972656 586.871094 259.742188 C 587.371094 259.71875 587.75 259.296875 587.726562 258.800781 C 587.710938 258.304688 587.289062 257.917969 586.789062 257.941406 C 557.011719 259.332031 535.210938 279.335938 535.136719 279.386719 C 534.765625 279.722656 534.742188 280.292969 535.082031 280.664062 C 535.414062 281.03125 535.984375 281.054688 536.355469 280.714844 " fill-opacity="1" fill-rule="nonzero"/><path fill="#cac9c9" d="M 583.996094 252.015625 C 554.609375 253.363281 532.914062 273.226562 532.914062 273.226562 L 525.109375 254.421875 C 525.109375 254.421875 546.808594 234.566406 576.191406 233.214844 L 583.996094 252.015625 " fill-opacity="1" fill-rule="nonzero"/><path fill="#d7d7d7" d="M 663.945312 267.914062 L 661.410156 276.824219 L 612.546875 297.109375 C 612.546875 297.109375 611.714844 294.875 609.371094 293.285156 C 606.988281 291.675781 604.957031 292.40625 604.957031 292.40625 L 612.515625 271.949219 L 643.214844 257.039062 L 663.945312 267.914062 " fill-opacity="1" fill-rule="nonzero"/><path fill="#ffffff" d="M 577.984375 227.4375 C 594.199219 212.664062 615.058594 204.003906 636.980469 202.953125 C 645.964844 224.605469 654.957031 246.253906 663.945312 267.914062 C 642.03125 268.964844 621.167969 277.625 604.957031 292.40625 C 595.957031 270.75 586.972656 249.097656 577.984375 227.4375 " fill-opacity="1" fill-rule="nonzero"/><path fill="#d7d7d7" d="M 656.851562 260.871094 C 656.804688 260.871094 649.398438 261.214844 639.25 264.054688 C 629.097656 266.902344 616.203125 272.253906 605.207031 282.316406 C 604.835938 282.648438 604.8125 283.21875 605.148438 283.585938 C 605.484375 283.957031 606.054688 283.980469 606.425781 283.644531 C 617.128906 273.84375 629.765625 268.589844 639.738281 265.796875 C 644.71875 264.402344 649.03125 263.617188 652.09375 263.183594 C 653.621094 262.96875 654.839844 262.839844 655.671875 262.765625 C 656.085938 262.726562 656.40625 262.707031 656.621094 262.691406 C 656.835938 262.675781 656.9375 262.671875 656.9375 262.671875 C 657.4375 262.648438 657.820312 262.226562 657.796875 261.726562 C 657.773438 261.234375 657.351562 260.847656 656.851562 260.871094 " fill-opacity="1" fill-rule="nonzero"/><path fill="#d7d7d7" d="M 653.90625 254.089844 C 653.859375 254.09375 646.445312 254.433594 636.296875 257.28125 C 626.148438 260.128906 613.246094 265.476562 602.253906 275.535156 C 601.882812 275.871094 601.859375 276.441406 602.191406 276.8125 C 602.53125 277.179688 603.101562 277.203125 603.472656 276.863281 C 614.175781 267.070312 626.816406 261.808594 636.78125 259.015625 C 641.769531 257.621094 646.078125 256.835938 649.140625 256.40625 C 650.671875 256.1875 651.890625 256.0625 652.722656 255.984375 C 653.136719 255.949219 653.453125 255.925781 653.667969 255.914062 C 653.882812 255.894531 653.988281 255.890625 653.988281 255.890625 C 654.480469 255.871094 654.867188 255.449219 654.84375 254.949219 C 654.828125 254.453125 654.398438 254.070312 653.90625 254.089844 " fill-opacity="1" fill-rule="nonzero"/><path fill="#d7d7d7" d="M 650.953125 247.3125 C 650.902344 247.3125 643.492188 247.660156 633.339844 250.5 C 623.195312 253.347656 610.292969 258.695312 599.296875 268.757812 C 598.929688 269.089844 598.90625 269.660156 599.246094 270.03125 C 599.578125 270.398438 600.148438 270.421875 600.515625 270.089844 C 611.222656 260.289062 623.863281 255.035156 633.828125 252.242188 C 638.816406 250.84375 643.125 250.058594 646.183594 249.625 C 647.71875 249.410156 648.9375 249.28125 649.769531 249.210938 C 650.183594 249.167969 650.5 249.144531 650.714844 249.132812 C 650.929688 249.113281 651.035156 249.113281 651.035156 249.113281 C 651.527344 249.089844 651.914062 248.667969 651.890625 248.167969 C 651.867188 247.675781 651.445312 247.289062 650.953125 247.3125 " fill-opacity="1" fill-rule="nonzero"/><path fill="#d7d7d7" d="M 647.996094 240.53125 C 647.949219 240.539062 640.542969 240.875 630.394531 243.722656 C 620.242188 246.570312 607.347656 251.917969 596.351562 261.976562 C 595.980469 262.316406 595.957031 262.886719 596.292969 263.25 C 596.628906 263.617188 597.199219 263.644531 597.570312 263.308594 C 608.273438 253.507812 620.914062 248.253906 630.882812 245.460938 C 635.863281 244.0625 640.175781 243.277344 643.238281 242.851562 C 644.765625 242.628906 645.984375 242.503906 646.816406 242.429688 C 647.230469 242.390625 647.550781 242.367188 647.765625 242.355469 C 647.980469 242.339844 648.082031 242.332031 648.082031 242.332031 C 648.582031 242.308594 648.960938 241.886719 648.941406 241.394531 C 648.917969 240.894531 648.496094 240.507812 647.996094 240.53125 " fill-opacity="1" fill-rule="nonzero"/><path fill="#d7d7d7" d="M 645.050781 233.757812 C 645.003906 233.757812 637.589844 234.101562 627.441406 236.941406 C 617.292969 239.789062 604.390625 245.136719 593.398438 255.195312 C 593.027344 255.535156 593.003906 256.105469 593.34375 256.472656 C 593.675781 256.835938 594.246094 256.863281 594.617188 256.527344 C 605.320312 246.726562 617.960938 241.472656 627.925781 238.679688 C 632.914062 237.28125 637.222656 236.503906 640.285156 236.070312 C 641.816406 235.855469 643.035156 235.722656 643.867188 235.648438 C 644.28125 235.609375 644.597656 235.585938 644.8125 235.574219 C 645.027344 235.5625 645.132812 235.558594 645.132812 235.558594 C 645.625 235.535156 646.011719 235.113281 645.988281 234.613281 C 645.972656 234.117188 645.542969 233.734375 645.050781 233.757812 " fill-opacity="1" fill-rule="nonzero"/><path fill="#cac9c9" d="M 591.175781 249.03125 C 612.875 229.175781 642.257812 227.824219 642.257812 227.824219 L 634.453125 209.027344 C 634.453125 209.027344 605.070312 210.375 583.371094 230.238281 L 591.175781 249.03125 " fill-opacity="1" fill-rule="nonzero"/><path fill="#abaaaa" d="M 577.984375 227.4375 C 577.984375 227.4375 579.847656 231.425781 582.507812 237.464844 C 583.816406 240.492188 585.398438 243.996094 586.996094 247.796875 C 588.601562 251.59375 590.3125 255.640625 592.023438 259.695312 C 593.683594 263.765625 595.347656 267.835938 596.902344 271.652344 C 598.464844 275.460938 599.832031 279.0625 601.050781 282.125 C 603.445312 288.269531 604.957031 292.40625 604.957031 292.40625 C 604.957031 292.40625 603.089844 288.417969 600.429688 282.386719 C 599.121094 279.359375 597.539062 275.847656 595.941406 272.050781 C 594.335938 268.253906 592.625 264.207031 590.914062 260.152344 C 589.253906 256.082031 587.589844 252.015625 586.039062 248.191406 C 584.476562 244.382812 583.101562 240.789062 581.886719 237.722656 C 579.488281 231.574219 577.984375 227.4375 577.984375 227.4375 " fill-opacity="1" fill-rule="nonzero"/><path fill="#f5802b" d="M 741.632812 237.816406 L 669.453125 214.457031 C 666.6875 213.566406 665.171875 210.601562 666.066406 207.835938 L 692.660156 125.644531 C 693.558594 122.878906 696.523438 121.363281 699.289062 122.257812 L 771.46875 145.621094 C 772.929688 146.089844 773.734375 147.660156 773.265625 149.121094 L 745.140625 236.027344 C 744.664062 237.488281 743.097656 238.292969 741.632812 237.816406 " fill-opacity="1" fill-rule="nonzero"/><path fill="#ffffff" d="M 742.996094 235.632812 L 735.707031 234.570312 L 669.507812 211.847656 C 668.277344 211.449219 667.597656 210.125 667.996094 208.894531 L 694.847656 125.917969 C 695.253906 124.679688 696.570312 124.003906 697.808594 124.402344 L 765.75 144.34375 L 771.289062 148.1875 L 742.996094 235.632812 " fill-opacity="1" fill-rule="nonzero"/><path fill="#fabd27" d="M 734.515625 235.515625 L 662.332031 212.152344 C 659.5625 211.261719 658.054688 208.292969 658.945312 205.53125 L 685.542969 123.339844 C 686.4375 120.574219 689.40625 119.058594 692.167969 119.957031 L 764.347656 143.3125 C 765.8125 143.789062 766.613281 145.351562 766.136719 146.816406 L 738.015625 233.722656 C 737.542969 235.1875 735.976562 235.984375 734.515625 235.515625 " fill-opacity="1" fill-rule="nonzero"/><path fill="#f5802b" d="M 696.160156 121.246094 L 692.167969 119.957031 C 689.40625 119.058594 686.4375 120.574219 685.542969 123.339844 L 658.945312 205.53125 C 658.054688 208.292969 659.5625 211.261719 662.332031 212.152344 L 666.328125 213.449219 L 696.160156 121.246094 " fill-opacity="1" fill-rule="nonzero"/><path fill="#fee449" d="M 737.460938 164.425781 L 704.851562 153.871094 L 709.949219 138.132812 L 742.554688 148.679688 L 737.460938 164.425781 " fill-opacity="1" fill-rule="nonzero"/><path fill="#ffffff" d="M 763.316406 155.539062 L 766.136719 146.816406 C 766.234375 146.53125 766.273438 146.246094 766.273438 145.960938 C 766.273438 146.246094 766.234375 146.53125 766.136719 146.816406 L 763.316406 155.539062 " fill-opacity="1" fill-rule="nonzero"/><path fill="#fbcb53" d="M 669.65625 203.164062 L 675.160156 186.148438 L 677.085938 185.167969 C 693.171875 176.949219 709.261719 168.722656 725.347656 160.503906 L 737.460938 164.425781 L 741.378906 152.3125 C 747.941406 148.960938 754.507812 145.609375 761.066406 142.25 L 764.347656 143.3125 C 765.527344 143.695312 766.273438 144.78125 766.273438 145.960938 C 766.273438 146.246094 766.234375 146.53125 766.136719 146.816406 L 763.316406 155.539062 C 755.070312 159.75 746.828125 163.957031 738.578125 168.164062 C 716.914062 179.207031 695.242188 190.226562 673.542969 201.203125 C 672.246094 201.859375 670.949219 202.511719 669.65625 203.164062 " fill-opacity="1" fill-rule="nonzero"/><path fill="#f89950" d="M 658.890625 208.589844 C 658.613281 207.621094 658.613281 206.566406 658.945312 205.53125 L 663.25 192.242188 L 675.160156 186.148438 L 669.65625 203.164062 C 666.066406 204.976562 662.480469 206.785156 658.890625 208.589844 " fill-opacity="1" fill-rule="nonzero"/><path fill="#feea72" d="M 737.460938 164.425781 L 725.347656 160.503906 C 729.433594 158.417969 733.507812 156.332031 737.59375 154.246094 C 738.851562 153.601562 740.117188 152.953125 741.378906 152.3125 L 737.460938 164.425781 " fill-opacity="1" fill-rule="nonzero"/><path fill="#ffffff" d="M 691.984375 221.75 L 674.058594 215.949219 L 691.984375 221.75 " fill-opacity="1" fill-rule="nonzero"/><path fill="#f89950" d="M 691.984375 221.75 L 674.058594 215.949219 L 691.984375 221.75 " fill-opacity="1" fill-rule="nonzero"/><path fill="#ffffff" d="M 751.839844 191.011719 L 757.578125 173.269531 L 751.839844 191.011719 " fill-opacity="1" fill-rule="nonzero"/><path fill="#fbcb53" d="M 691.984375 221.75 L 674.058594 215.949219 L 675.5625 215.183594 L 751.890625 176.175781 L 757.578125 173.269531 L 751.839844 191.011719 C 739.476562 197.359375 727.109375 203.707031 714.746094 210.058594 C 707.164062 213.957031 699.574219 217.851562 691.984375 221.75 " fill-opacity="1" fill-rule="nonzero"/><path fill="#ed2128" d="M 908.003906 228.929688 L 851.632812 264.242188 C 849.472656 265.589844 846.632812 264.9375 845.277344 262.777344 L 805.078125 198.59375 C 803.722656 196.429688 804.375 193.589844 806.539062 192.242188 L 862.90625 156.929688 C 864.046875 156.210938 865.550781 156.554688 866.265625 157.699219 L 908.777344 225.566406 C 909.488281 226.707031 909.144531 228.210938 908.003906 228.929688 " fill-opacity="1" fill-rule="nonzero"/><path fill="#ffffff" d="M 907.300781 226.785156 L 902.480469 231.082031 L 849.914062 262.730469 C 848.953125 263.335938 847.679688 263.039062 847.074219 262.078125 L 806.492188 197.28125 C 805.886719 196.320312 806.175781 195.046875 807.144531 194.441406 L 858.824219 160.050781 L 864.527344 158.492188 L 907.300781 226.785156 " fill-opacity="1" fill-rule="nonzero"/><path fill="#f04524" d="M 902.445312 232.414062 L 846.074219 267.722656 C 843.910156 269.074219 841.070312 268.417969 839.722656 266.261719 L 799.515625 202.078125 C 798.160156 199.921875 798.820312 197.074219 800.976562 195.722656 L 857.34375 160.414062 C 858.484375 159.695312 859.988281 160.039062 860.699219 161.179688 L 903.214844 229.050781 C 903.925781 230.191406 903.582031 231.699219 902.445312 232.414062 " fill-opacity="1" fill-rule="nonzero"/><path fill="#ed2128" d="M 804.097656 193.769531 L 800.976562 195.722656 C 798.820312 197.074219 798.160156 199.921875 799.515625 202.078125 L 839.722656 266.261719 C 841.070312 268.417969 843.910156 269.074219 846.074219 267.722656 L 849.195312 265.769531 L 804.097656 193.769531 " fill-opacity="1" fill-rule="nonzero"/><path fill="#f57831" d="M 856.363281 190.363281 L 830.902344 206.316406 L 823.199219 194.023438 L 848.664062 178.070312 L 856.363281 190.363281 " fill-opacity="1" fill-rule="nonzero"/><path fill="#ffffff" d="M 840.648438 267.335938 C 840.292969 267.035156 839.976562 266.675781 839.722656 266.261719 L 833.21875 255.882812 L 839.722656 266.261719 C 839.976562 266.675781 840.292969 267.035156 840.648438 267.335938 M 854.78125 162.019531 L 855.769531 161.398438 L 854.78125 162.019531 " fill-opacity="1" fill-rule="nonzero"/><path fill="#f14e41" d="M 854.78125 162.019531 L 855.769531 161.398438 L 857.34375 160.414062 L 854.78125 162.019531 M 857.34375 160.414062 C 857.359375 160.402344 857.371094 160.394531 857.390625 160.382812 C 857.371094 160.394531 857.359375 160.402344 857.34375 160.414062 M 857.390625 160.382812 C 857.78125 160.152344 858.210938 160.039062 858.632812 160.039062 C 858.210938 160.039062 857.78125 160.152344 857.390625 160.382812 M 858.644531 160.039062 C 858.636719 160.039062 858.636719 160.039062 858.636719 160.039062 C 858.636719 160.039062 858.636719 160.039062 858.644531 160.039062 " fill-opacity="1" fill-rule="nonzero"/><path fill="#f46a42" d="M 840.671875 267.355469 C 840.667969 267.347656 840.660156 267.34375 840.648438 267.335938 C 840.292969 267.035156 839.976562 266.675781 839.722656 266.261719 C 839.984375 266.683594 840.308594 267.050781 840.671875 267.355469 M 844.167969 257.738281 L 835.847656 244.453125 L 836.269531 242.605469 C 839.816406 227.164062 843.359375 211.730469 846.90625 196.289062 L 856.363281 190.363281 L 850.441406 180.90625 C 851.886719 174.613281 853.335938 168.3125 854.78125 162.019531 L 857.34375 160.414062 C 857.359375 160.402344 857.371094 160.394531 857.390625 160.382812 C 857.78125 160.152344 858.210938 160.039062 858.632812 160.039062 C 858.632812 160.039062 858.632812 160.039062 858.636719 160.039062 C 858.636719 160.039062 858.636719 160.039062 858.644531 160.039062 C 859.429688 160.039062 860.207031 160.429688 860.671875 161.132812 C 860.671875 161.132812 860.671875 161.132812 860.671875 161.140625 C 860.683594 161.152344 860.695312 161.167969 860.699219 161.179688 L 864.96875 167.996094 C 863.148438 175.910156 861.332031 183.8125 859.507812 191.722656 C 854.710938 212.496094 849.894531 233.261719 845.039062 254.023438 C 844.75 255.261719 844.457031 256.503906 844.167969 257.738281 " fill-opacity="1" fill-rule="nonzero"/><path fill="#f14e41" d="M 841.742188 268.019531 C 841.363281 267.855469 841 267.628906 840.671875 267.355469 C 840.308594 267.050781 839.984375 266.683594 839.722656 266.261719 L 833.21875 255.882812 L 835.847656 244.453125 L 844.167969 257.738281 C 843.359375 261.167969 842.550781 264.597656 841.742188 268.019531 " fill-opacity="1" fill-rule="nonzero"/><path fill="#f79455" d="M 846.90625 196.289062 C 847.804688 192.371094 848.707031 188.460938 849.605469 184.542969 C 849.882812 183.332031 850.164062 182.121094 850.441406 180.90625 L 856.363281 190.363281 L 846.90625 196.289062 " fill-opacity="1" fill-rule="nonzero"/><path fill="#ffffff" d="M 855.234375 261.980469 L 868.722656 253.53125 L 855.234375 261.980469 " fill-opacity="1" fill-rule="nonzero"/><path fill="#ffffff" d="M 882.324219 195.699219 L 873.644531 181.839844 L 882.324219 195.695312 C 882.324219 195.699219 882.324219 195.699219 882.324219 195.699219 " fill-opacity="1" fill-rule="nonzero"/><path fill="#f46a42" d="M 855.234375 261.980469 L 855.566406 260.542969 L 872.390625 187.296875 L 873.644531 181.839844 L 882.324219 195.699219 C 879.613281 207.574219 876.910156 219.457031 874.210938 231.335938 C 872.550781 238.628906 870.894531 245.921875 869.222656 253.222656 L 868.722656 253.53125 L 855.234375 261.980469 " fill-opacity="1" fill-rule="nonzero"/></svg>